STARTFONT 2.1
FONT -Baekmuk-Batang-Medium-R-Normal--16-160-75-75-M-160-ksx1001.1997-0
SIZE 16 75 75
FONTBOUNDINGBOX 16 16 0 -4
STARTPROPERTIES 18
FOUNDRY "Baekmuk"
FAMILY_NAME "Batang"
WEIGHT_NAME "Medium"
SLANT "R"
SETWIDTH_NAME "Normal"
ADD_STYLE_NAME ""
PIXEL_SIZE 16
POINT_SIZE 160
RESOLUTION_X 75
RESOLUTION_Y 75
SPACING "M"
AVERAGE_WIDTH 160
CHARSET_REGISTRY "ksx1001.1997"
CHARSET_ENCODING "0"
DEFAULT_CHAR 8481
FONT_ASCENT 12
FONT_DESCENT 3
COPYRIGHT "(c)Hwan Design Inc. and Mizi Research Inc."
ENDPROPERTIES
CHARS 8224
STARTCHAR 3000
ENCODING 8481
SWIDTH 1600 0
DWIDTH 16 0
BBX 0 0 0 0
BITMAP
ENDCHAR
STARTCHAR 3001
ENCODING 8482
SWIDTH 1600 0
DWIDTH 16 0
BBX 3 3 11 10
BITMAP
80
60
20
ENDCHAR
STARTCHAR 3002
ENCODING 8483
SWIDTH 1600 0
DWIDTH 16 0
BBX 4 3 10 9
BITMAP
70
90
50
ENDCHAR
STARTCHAR 00B7
ENCODING 8484
SWIDTH 1600 0
DWIDTH 16 0
BBX 2 2 7 4
BITMAP
C0
C0
ENDCHAR
STARTCHAR 2025
ENCODING 8485
SWIDTH 1600 0
DWIDTH 16 0
BBX 9 2 3 4
BITMAP
C080
C080
ENDCHAR
STARTCHAR 2026
ENCODING 8486
SWIDTH 1600 0
DWIDTH 16 0
BBX 12 2 2 4
BITMAP
8410
8410
ENDCHAR
STARTCHAR 00A8
ENCODING 8487
SWIDTH 1600 0
DWIDTH 16 0
BBX 6 2 5 4
BITMAP
84
84
ENDCHAR
STARTCHAR 3003
ENCODING 8488
SWIDTH 1600 0
DWIDTH 16 0
BBX 4 4 6 3
BITMAP
50
90
A0
A0
ENDCHAR
STARTCHAR 00AD
ENCODING 8489
SWIDTH 1600 0
DWIDTH 16 0
BBX 8 1 4 4
BITMAP
FF
ENDCHAR
STARTCHAR 2015
ENCODING 8490
SWIDTH 1600 0
DWIDTH 16 0
BBX 16 1 0 4
BITMAP
FFFF
ENDCHAR
STARTCHAR 2225
ENCODING 8491
SWIDTH 1600 0
DWIDTH 16 0
BBX 4 13 6 -2
BITMAP
90
90
90
90
90
90
90
90
90
90
90
90
90
ENDCHAR
STARTCHAR FF3C
ENCODING 8492
SWIDTH 1600 0
DWIDTH 16 0
BBX 14 13 1 -2
BITMAP
8000
4000
3000
0800
0400
0200
0100
0080
0040
0020
0010
0008
0004
ENDCHAR
STARTCHAR 223C
ENCODING 8493
SWIDTH 1600 0
DWIDTH 16 0
BBX 10 3 3 3
BITMAP
7000
8C40
0780
ENDCHAR
STARTCHAR 2018
ENCODING 8494
SWIDTH 1600 0
DWIDTH 16 0
BBX 2 3 11 9
BITMAP
80
80
C0
ENDCHAR
STARTCHAR 2019
ENCODING 8495
SWIDTH 1600 0
DWIDTH 16 0
BBX 2 4 3 9
BITMAP
C0
40
40
80
ENDCHAR
STARTCHAR 201C
ENCODING 8496
SWIDTH 1600 0
DWIDTH 16 0
BBX 6 4 9 9
BITMAP
44
88
C8
CC
ENDCHAR
STARTCHAR 201D
ENCODING 8497
SWIDTH 1600 0
DWIDTH 16 0
BBX 6 5 1 8
BITMAP
0C
CC
44
48
80
ENDCHAR
STARTCHAR 3014
ENCODING 8498
SWIDTH 1600 0
DWIDTH 16 0
BBX 3 14 11 -2
BITMAP
20
C0
80
80
80
80
80
80
80
80
80
80
80
60
ENDCHAR
STARTCHAR 3015
ENCODING 8499
SWIDTH 1600 0
DWIDTH 16 0
BBX 3 14 2 -2
BITMAP
80
60
20
20
20
20
20
20
20
20
20
20
20
C0
ENDCHAR
STARTCHAR 3008
ENCODING 8500
SWIDTH 1600 0
DWIDTH 16 0
BBX 5 14 10 -2
BITMAP
08
10
10
20
40
80
80
80
80
40
20
10
10
08
ENDCHAR
STARTCHAR 3009
ENCODING 8501
SWIDTH 1600 0
DWIDTH 16 0
BBX 5 14 1 -2
BITMAP
80
40
40
20
10
08
08
08
08
10
20
40
40
80
ENDCHAR
STARTCHAR 300A
ENCODING 8502
SWIDTH 1600 0
DWIDTH 16 0
BBX 6 13 9 -2
BITMAP
14
28
28
50
60
A0
C0
A0
60
30
28
18
14
ENDCHAR
STARTCHAR 300B
ENCODING 8503
SWIDTH 1600 0
DWIDTH 16 0
BBX 6 12 1 -1
BITMAP
C0
60
50
30
28
18
14
28
28
50
60
A0
ENDCHAR
STARTCHAR 300C
ENCODING 8504
SWIDTH 1600 0
DWIDTH 16 0
BBX 6 8 10 5
BITMAP
FC
80
80
80
80
80
80
80
ENDCHAR
STARTCHAR 300D
ENCODING 8505
SWIDTH 1600 0
DWIDTH 16 0
BBX 6 8 1 -3
BITMAP
04
04
04
04
04
04
04
FC
ENDCHAR
STARTCHAR 300E
ENCODING 8506
SWIDTH 1600 0
DWIDTH 16 0
BBX 6 8 10 5
BITMAP
FC
FC
C0
C0
C0
C0
C0
C0
ENDCHAR
STARTCHAR 300F
ENCODING 8507
SWIDTH 1600 0
DWIDTH 16 0
BBX 7 7 0 -3
BITMAP
0E
0A
0A
0A
0A
FA
FE
ENDCHAR
STARTCHAR 3010
ENCODING 8508
SWIDTH 1600 0
DWIDTH 16 0
BBX 4 14 11 -2
BITMAP
F0
E0
E0
E0
C0
C0
C0
C0
C0
C0
C0
E0
E0
F0
ENDCHAR
STARTCHAR 3011
ENCODING 8509
SWIDTH 1600 0
DWIDTH 16 0
BBX 4 15 1 -3
BITMAP
F0
70
70
30
30
30
30
30
30
30
30
70
70
F0
F0
ENDCHAR
STARTCHAR 00B1
ENCODING 8510
SWIDTH 1600 0
DWIDTH 16 0
BBX 11 10 3 0
BITMAP
0400
0400
0400
0400
FFE0
0400
0400
0400
0400
FFC0
ENDCHAR
STARTCHAR 00D7
ENCODING 8511
SWIDTH 1600 0
DWIDTH 16 0
BBX 10 9 3 0
BITMAP
8040
4080
2100
1200
0C00
1600
2100
4080
8040
ENDCHAR
STARTCHAR 00F7
ENCODING 8512
SWIDTH 1600 0
DWIDTH 16 0
BBX 11 10 3 0
BITMAP
0400
0400
0000
0000
0000
FFE0
0000
0000
0400
0400
ENDCHAR
STARTCHAR 2260
ENCODING 8513
SWIDTH 1600 0
DWIDTH 16 0
BBX 12 9 2 0
BITMAP
0400
0400
FFF0
0400
0200
FFF0
0200
0200
0100
ENDCHAR
STARTCHAR 2264
ENCODING 8514
SWIDTH 1600 0
DWIDTH 16 0
BBX 10 9 3 0
BITMAP
00C0
0300
1C00
6000
C000
3800
0700
00C0
FFC0
ENDCHAR
STARTCHAR 2265
ENCODING 8515
SWIDTH 1600 0
DWIDTH 16 0
BBX 10 9 3 0
BITMAP
C000
3000
0E00
0180
00C0
0700
3800
C000
FFC0
ENDCHAR
STARTCHAR 221E
ENCODING 8516
SWIDTH 1600 0
DWIDTH 16 0
BBX 14 7 1 1
BITMAP
3870
4488
8304
8304
8304
6CD8
1020
ENDCHAR
STARTCHAR 2234
ENCODING 8517
SWIDTH 1600 0
DWIDTH 16 0
BBX 9 8 3 1
BITMAP
0C00
0C00
0000
0000
0000
0000
C180
C180
ENDCHAR
STARTCHAR 00B0
ENCODING 8518
SWIDTH 1600 0
DWIDTH 16 0
BBX 4 4 1 9
BITMAP
20
D0
90
70
ENDCHAR
STARTCHAR 2032
ENCODING 8519
SWIDTH 1600 0
DWIDTH 16 0
BBX 4 4 1 9
BITMAP
30
20
40
80
ENDCHAR
STARTCHAR 2033
ENCODING 8520
SWIDTH 1600 0
DWIDTH 16 0
BBX 5 3 2 10
BITMAP
48
58
90
ENDCHAR
STARTCHAR 2103
ENCODING 8521
SWIDTH 1600 0
DWIDTH 16 0
BBX 11 12 2 0
BITMAP
F000
9780
FC60
1820
1020
1000
1000
1000
1000
1820
0C40
0780
ENDCHAR
STARTCHAR 212B
ENCODING 8522
SWIDTH 1600 0
DWIDTH 16 0
BBX 12 13 2 0
BITMAP
0F00
0900
0900
0600
0600
0B00
0900
1180
1F80
20C0
20C0
4060
F1F0
ENDCHAR
STARTCHAR FFE0
ENCODING 8523
SWIDTH 1600 0
DWIDTH 16 0
BBX 14 13 1 -2
BITMAP
07EC
0870
1030
2040
2080
2100
2200
2400
2810
1C20
27C0
4000
8000
ENDCHAR
STARTCHAR FFE1
ENCODING 8524
SWIDTH 1600 0
DWIDTH 16 0
BBX 10 11 3 0
BITMAP
0780
0C80
08C0
1880
1800
7F00
0800
0800
7840
9F80
A380
ENDCHAR
STARTCHAR FFE5
ENCODING 8525
SWIDTH 1600 0
DWIDTH 16 0
BBX 11 11 3 0
BITMAP
F9E0
3080
3100
1900
7FC0
0C00
7FC0
0400
0400
0400
1F00
ENDCHAR
STARTCHAR 2642
ENCODING 8526
SWIDTH 1600 0
DWIDTH 16 0
BBX 8 13 4 -2
BITMAP
08
1C
2A
49
89
08
08
08
76
42
42
66
3C
ENDCHAR
STARTCHAR 2640
ENCODING 8527
SWIDTH 1600 0
DWIDTH 16 0
BBX 11 14 3 -2
BITMAP
0E00
3100
2180
2180
2100
1E00
0400
0400
FFE0
0400
0400
0400
0400
0400
ENDCHAR
STARTCHAR 2220
ENCODING 8528
SWIDTH 1600 0
DWIDTH 16 0
BBX 9 9 3 0
BITMAP
0080
0100
0200
0400
0800
1000
2000
C000
FF80
ENDCHAR
STARTCHAR 22A5
ENCODING 8529
SWIDTH 1600 0
DWIDTH 16 0
BBX 11 9 3 0
BITMAP
0400
0400
0400
0400
0400
0400
0400
0400
FFE0
ENDCHAR
STARTCHAR 2312
ENCODING 8530
SWIDTH 1600 0
DWIDTH 16 0
BBX 9 2 4 10
BITMAP
7E00
8180
ENDCHAR
STARTCHAR 2202
ENCODING 8531
SWIDTH 1600 0
DWIDTH 16 0
BBX 7 12 4 -1
BITMAP
1C
26
02
02
02
7A
46
84
8C
88
50
20
ENDCHAR
STARTCHAR 2207
ENCODING 8532
SWIDTH 1600 0
DWIDTH 16 0
BBX 12 9 2 0
BITMAP
FFF0
8020
4040
2040
2080
1100
0900
0A00
0400
ENDCHAR
STARTCHAR 2261
ENCODING 8533
SWIDTH 1600 0
DWIDTH 16 0
BBX 12 6 2 2
BITMAP
FFF0
0000
0000
FFF0
0000
FFF0
ENDCHAR
STARTCHAR 2252
ENCODING 8534
SWIDTH 1600 0
DWIDTH 16 0
BBX 12 9 2 0
BITMAP
2000
2000
FFF0
0000
0000
FFF0
0000
0040
0040
ENDCHAR
STARTCHAR 00A7
ENCODING 8535
SWIDTH 1600 0
DWIDTH 16 0
BBX 6 14 5 -2
BITMAP
70
88
88
C0
60
78
98
8C
48
70
18
CC
8C
78
ENDCHAR
STARTCHAR 203B
ENCODING 8536
SWIDTH 1600 0
DWIDTH 16 0
BBX 10 10 3 0
BITMAP
8040
4E80
2F00
1200
6DC0
6DC0
1200
2100
4E80
8E40
ENDCHAR
STARTCHAR 2606
ENCODING 8537
SWIDTH 1600 0
DWIDTH 16 0
BBX 12 11 2 -1
BITMAP
0600
0600
0A00
F9F0
8020
6040
1080
1080
2680
2940
30C0
ENDCHAR
STARTCHAR 2605
ENCODING 8538
SWIDTH 1600 0
DWIDTH 16 0
BBX 12 11 2 -1
BITMAP
0200
0600
0600
0F00
FFF0
3FE0
1F80
1F80
1F80
39C0
30C0
ENDCHAR
STARTCHAR 25CB
ENCODING 8539
SWIDTH 1600 0
DWIDTH 16 0
BBX 14 13 1 -2
BITMAP
0FC0
1830
2018
4008
8004
8004
8004
8004
8004
4008
6018
1830
0FC0
ENDCHAR
STARTCHAR 25CF
ENCODING 8540
SWIDTH 1600 0
DWIDTH 16 0
BBX 13 13 2 -2
BITMAP
0F80
3FC0
7FE0
FFF0
FFF0
FFF8
FFF8
FFF8
FFF0
FFF0
7FE0
3FC0
0F80
ENDCHAR
STARTCHAR 25CE
ENCODING 8541
SWIDTH 1600 0
DWIDTH 16 0
BBX 14 13 1 -2
BITMAP
0FC0
1830
2F98
58C8
B064
A024
A024
A024
B064
58C8
6F98
1830
0FC0
ENDCHAR
STARTCHAR 25C7
ENCODING 8542
SWIDTH 1600 0
DWIDTH 16 0
BBX 14 14 1 -2
BITMAP
0300
0480
0840
1020
2010
4008
8004
8004
4008
2010
1020
0840
0480
0300
ENDCHAR
STARTCHAR 25C6
ENCODING 8543
SWIDTH 1600 0
DWIDTH 16 0
BBX 14 14 1 -2
BITMAP
0300
0780
0FC0
1FE0
3FF0
7FF8
FFFC
FFFC
7FF8
3FF0
1FE0
0FC0
0780
0200
ENDCHAR
STARTCHAR 25A1
ENCODING 8544
SWIDTH 1600 0
DWIDTH 16 0
BBX 13 13 2 -2
BITMAP
FFF8
8008
8008
8008
8008
8008
8008
8008
8008
8008
8008
8008
FFF8
ENDCHAR
STARTCHAR 25A0
ENCODING 8545
SWIDTH 1600 0
DWIDTH 16 0
BBX 12 13 2 -2
BITMAP
FFF0
FFF0
FFF0
FFF0
FFF0
FFF0
FFF0
FFF0
FFF0
FFF0
FFF0
FFF0
FFF0
ENDCHAR
STARTCHAR 25B3
ENCODING 8546
SWIDTH 1600 0
DWIDTH 16 0
BBX 12 10 2 0
BITMAP
0400
0A00
0900
1100
2080
2040
4040
8020
8010
FFF0
ENDCHAR
STARTCHAR 25B2
ENCODING 8547
SWIDTH 1600 0
DWIDTH 16 0
BBX 12 9 2 0
BITMAP
0600
0F00
0F00
1F80
3FC0
3FC0
7FE0
FFF0
FFF0
ENDCHAR
STARTCHAR 25BD
ENCODING 8548
SWIDTH 1600 0
DWIDTH 16 0
BBX 12 10 2 -1
BITMAP
FFF0
8010
8020
4040
2040
2080
1100
0900
0A00
0400
ENDCHAR
STARTCHAR 25BC
ENCODING 8549
SWIDTH 1600 0
DWIDTH 16 0
BBX 12 9 2 0
BITMAP
FFF0
FFF0
7FE0
3FC0
3FC0
1F80
0F00
0F00
0600
ENDCHAR
STARTCHAR 2192
ENCODING 8550
SWIDTH 1600 0
DWIDTH 16 0
BBX 14 5 1 2
BITMAP
0010
0018
FFFC
0010
0020
ENDCHAR
STARTCHAR 2190
ENCODING 8551
SWIDTH 1600 0
DWIDTH 16 0
BBX 14 5 1 2
BITMAP
2000
6000
FFFC
2000
1000
ENDCHAR
STARTCHAR 2191
ENCODING 8552
SWIDTH 1600 0
DWIDTH 16 0
BBX 5 14 6 -2
BITMAP
20
30
70
A8
20
20
20
20
20
20
20
20
20
20
ENDCHAR
STARTCHAR 2193
ENCODING 8553
SWIDTH 1600 0
DWIDTH 16 0
BBX 5 14 5 -2
BITMAP
20
20
20
20
20
20
20
20
20
20
A8
70
70
20
ENDCHAR
STARTCHAR 2194
ENCODING 8554
SWIDTH 1600 0
DWIDTH 16 0
BBX 12 5 2 2
BITMAP
0020
C010
FFF0
4020
2000
ENDCHAR
STARTCHAR 3013
ENCODING 8555
SWIDTH 1600 0
DWIDTH 16 0
BBX 12 4 2 3
BITMAP
FFF0
0000
0000
FFF0
ENDCHAR
STARTCHAR 226A
ENCODING 8556
SWIDTH 1600 0
DWIDTH 16 0
BBX 12 11 2 -1
BITMAP
0110
0660
0880
3300
4400
8800
6600
1100
0CC0
0220
0100
ENDCHAR
STARTCHAR 226B
ENCODING 8557
SWIDTH 1600 0
DWIDTH 16 0
BBX 12 11 2 -1
BITMAP
8800
6600
1100
0CC0
0220
0110
0660
0880
3300
4400
1800
ENDCHAR
STARTCHAR 221A
ENCODING 8558
SWIDTH 1600 0
DWIDTH 16 0
BBX 15 14 1 -2
BITMAP
00FE
0100
0100
0100
0200
0200
0200
0400
4400
A800
2800
3800
1000
1000
ENDCHAR
STARTCHAR 223D
ENCODING 8559
SWIDTH 1600 0
DWIDTH 16 0
BBX 13 7 1 1
BITMAP
38F0
4118
8208
8208
8410
44E0
7800
ENDCHAR
STARTCHAR 221D
ENCODING 8560
SWIDTH 1600 0
DWIDTH 16 0
BBX 11 7 2 1
BITMAP
38E0
4500
8200
8200
8500
68A0
1040
ENDCHAR
STARTCHAR 2235
ENCODING 8561
SWIDTH 1600 0
DWIDTH 16 0
BBX 8 8 4 1
BITMAP
81
81
00
00
00
00
18
18
ENDCHAR
STARTCHAR 222B
ENCODING 8562
SWIDTH 1600 0
DWIDTH 16 0
BBX 3 14 7 -2
BITMAP
60
A0
80
80
80
C0
40
40
60
60
20
20
A0
C0
ENDCHAR
STARTCHAR 222C
ENCODING 8563
SWIDTH 1600 0
DWIDTH 16 0
BBX 8 14 4 -2
BITMAP
60
A7
84
84
84
C4
46
42
63
63
21
21
A1
C6
ENDCHAR
STARTCHAR 2208
ENCODING 8564
SWIDTH 1600 0
DWIDTH 16 0
BBX 12 9 2 0
BITMAP
0FF0
3000
4000
8000
FFF0
8000
8000
4000
3FF0
ENDCHAR
STARTCHAR 220B
ENCODING 8565
SWIDTH 1600 0
DWIDTH 16 0
BBX 12 9 2 0
BITMAP
FF00
00C0
0020
0010
FFF0
0010
0010
0020
FFC0
ENDCHAR
STARTCHAR 2286
ENCODING 8566
SWIDTH 1600 0
DWIDTH 16 0
BBX 10 9 3 0
BITMAP
3F80
4000
8000
8000
8000
6000
1F80
0000
FFC0
ENDCHAR
STARTCHAR 2287
ENCODING 8567
SWIDTH 1600 0
DWIDTH 16 0
BBX 10 9 3 0
BITMAP
7F80
00C0
0040
0040
0040
0180
7E00
0000
FFC0
ENDCHAR
STARTCHAR 2282
ENCODING 8568
SWIDTH 1600 0
DWIDTH 16 0
BBX 12 9 2 0
BITMAP
0FF0
3000
4000
8000
8000
8000
8000
4000
3FF0
ENDCHAR
STARTCHAR 2283
ENCODING 8569
SWIDTH 1600 0
DWIDTH 16 0
BBX 12 9 2 0
BITMAP
FF00
00C0
0020
0010
0010
0010
0010
0020
FFC0
ENDCHAR
STARTCHAR 222A
ENCODING 8570
SWIDTH 1600 0
DWIDTH 16 0
BBX 10 12 3 -1
BITMAP
0040
8040
8040
8040
8040
8040
8040
8040
8040
C080
6100
1E00
ENDCHAR
STARTCHAR 2229
ENCODING 8571
SWIDTH 1600 0
DWIDTH 16 0
BBX 10 12 3 -2
BITMAP
1E00
2180
40C0
8040
8040
8040
8040
8040
8040
8040
8040
8000
ENDCHAR
STARTCHAR 2227
ENCODING 8572
SWIDTH 1600 0
DWIDTH 16 0
BBX 10 9 3 0
BITMAP
0C00
1400
1200
2200
2100
4080
4080
8040
8040
ENDCHAR
STARTCHAR 2228
ENCODING 8573
SWIDTH 1600 0
DWIDTH 16 0
BBX 10 10 3 0
BITMAP
8000
8040
4080
4080
2100
2100
1200
1200
0C00
0C00
ENDCHAR
STARTCHAR FFE2
ENCODING 8574
SWIDTH 1600 0
DWIDTH 16 0
BBX 10 7 3 0
BITMAP
FFC0
0040
0040
0040
0040
0040
0040
ENDCHAR
STARTCHAR 21D2
ENCODING 8737
SWIDTH 1600 0
DWIDTH 16 0
BBX 14 7 1 1
BITMAP
0010
FFF8
0004
0004
FFF8
0010
0020
ENDCHAR
STARTCHAR 21D4
ENCODING 8738
SWIDTH 1600 0
DWIDTH 16 0
BBX 14 8 1 1
BITMAP
0840
1020
3FF0
4008
8004
7FF8
1020
0800
ENDCHAR
STARTCHAR 2200
ENCODING 8739
SWIDTH 1600 0
DWIDTH 16 0
BBX 12 12 2 0
BITMAP
8010
4020
4020
2040
3FC0
2080
1080
1100
0900
0900
0600
0600
ENDCHAR
STARTCHAR 2203
ENCODING 8740
SWIDTH 1600 0
DWIDTH 16 0
BBX 8 11 4 0
BITMAP
FF
01
01
01
01
FF
01
01
01
01
FF
ENDCHAR
STARTCHAR 00B4
ENCODING 8741
SWIDTH 1600 0
DWIDTH 16 0
BBX 2 2 7 11
BITMAP
C0
80
ENDCHAR
STARTCHAR FF5E
ENCODING 8742
SWIDTH 1600 0
DWIDTH 16 0
BBX 8 2 4 10
BITMAP
7D
8E
ENDCHAR
STARTCHAR 02C7
ENCODING 8743
SWIDTH 1600 0
DWIDTH 16 0
BBX 4 2 6 10
BITMAP
F0
60
ENDCHAR
STARTCHAR 02D8
ENCODING 8744
SWIDTH 1600 0
DWIDTH 16 0
BBX 6 3 5 10
BITMAP
84
84
78
ENDCHAR
STARTCHAR 02DD
ENCODING 8745
SWIDTH 1600 0
DWIDTH 16 0
BBX 4 2 6 11
BITMAP
D0
A0
ENDCHAR
STARTCHAR 02DA
ENCODING 8746
SWIDTH 1600 0
DWIDTH 16 0
BBX 3 4 6 9
BITMAP
60
A0
A0
40
ENDCHAR
STARTCHAR 02D9
ENCODING 8747
SWIDTH 1600 0
DWIDTH 16 0
BBX 2 2 7 4
BITMAP
C0
C0
ENDCHAR
STARTCHAR 00B8
ENCODING 8748
SWIDTH 1600 0
DWIDTH 16 0
BBX 2 3 7 -2
BITMAP
C0
40
C0
ENDCHAR
STARTCHAR 02DB
ENCODING 8749
SWIDTH 1600 0
DWIDTH 16 0
BBX 2 3 7 -2
BITMAP
80
80
C0
ENDCHAR
STARTCHAR 00A1
ENCODING 8750
SWIDTH 1600 0
DWIDTH 16 0
BBX 3 11 6 0
BITMAP
40
00
00
40
40
40
40
40
40
E0
C0
ENDCHAR
STARTCHAR 00BF
ENCODING 8751
SWIDTH 1600 0
DWIDTH 16 0
BBX 4 11 6 0
BITMAP
20
00
00
20
20
60
C0
80
80
80
70
ENDCHAR
STARTCHAR 02D0
ENCODING 8752
SWIDTH 1600 0
DWIDTH 16 0
BBX 2 7 7 1
BITMAP
C0
00
00
00
00
C0
C0
ENDCHAR
STARTCHAR 222E
ENCODING 8753
SWIDTH 1600 0
DWIDTH 16 0
BBX 6 12 5 -1
BITMAP
0C
10
10
10
30
F8
B8
70
20
20
20
C0
ENDCHAR
STARTCHAR 2211
ENCODING 8754
SWIDTH 1600 0
DWIDTH 16 0
BBX 13 14 1 -2
BITMAP
FFF8
6008
3008
1808
0C08
0608
0300
0200
0400
0808
1008
2008
7FF8
FFF8
ENDCHAR
STARTCHAR 220F
ENCODING 8755
SWIDTH 1600 0
DWIDTH 16 0
BBX 12 14 2 -2
BITMAP
FFF0
2040
2040
2040
2040
2040
2040
2040
2040
2040
2040
2040
2040
F1F0
ENDCHAR
STARTCHAR 00A4
ENCODING 8756
SWIDTH 1600 0
DWIDTH 16 0
BBX 12 11 2 -1
BITMAP
CF20
70C0
2040
4020
4020
4020
4020
6040
30C0
2F20
C010
ENDCHAR
STARTCHAR 2109
ENCODING 8757
SWIDTH 1600 0
DWIDTH 16 0
BBX 13 12 1 -1
BITMAP
07F8
6218
A208
A220
4220
03E0
0220
0220
0200
0200
0200
0F80
ENDCHAR
STARTCHAR 2030
ENCODING 8758
SWIDTH 1600 0
DWIDTH 16 0
BBX 14 14 1 -2
BITMAP
7000
C840
8880
8900
8900
8A00
7400
0B18
0CA4
14A4
24A4
44A4
84A4
8318
ENDCHAR
STARTCHAR 25C1
ENCODING 8759
SWIDTH 1600 0
DWIDTH 16 0
BBX 10 12 3 -1
BITMAP
0040
01C0
0640
0840
3040
4040
8040
6040
1840
0440
0340
00C0
ENDCHAR
STARTCHAR 25C0
ENCODING 8760
SWIDTH 1600 0
DWIDTH 16 0
BBX 9 10 3 0
BITMAP
0180
0780
0F80
3F80
FF80
FF80
3F80
0F80
0780
0180
ENDCHAR
STARTCHAR 25B7
ENCODING 8761
SWIDTH 1600 0
DWIDTH 16 0
BBX 9 12 3 -1
BITMAP
8000
C000
B000
8C00
8200
8180
8080
8100
8600
9800
A000
C000
ENDCHAR
STARTCHAR 25B6
ENCODING 8762
SWIDTH 1600 0
DWIDTH 16 0
BBX 9 10 4 0
BITMAP
C000
F000
F800
FE00
FF80
FF80
FE00
F800
F000
C000
ENDCHAR
STARTCHAR 2664
ENCODING 8763
SWIDTH 1600 0
DWIDTH 16 0
BBX 12 13 2 -2
BITMAP
0600
0900
1080
2040
4040
4020
8010
8010
8010
C930
7AE0
0900
0F00
ENDCHAR
STARTCHAR 2660
ENCODING 8764
SWIDTH 1600 0
DWIDTH 16 0
BBX 12 13 2 -2
BITMAP
0600
0F00
1F80
3FC0
3FC0
7FE0
7FE0
FFF0
FFF0
7FE0
36C0
0600
0F00
ENDCHAR
STARTCHAR 2661
ENCODING 8765
SWIDTH 1600 0
DWIDTH 16 0
BBX 12 13 2 -2
BITMAP
39C0
4620
8610
8010
8010
8020
8020
4040
2040
2080
1100
0A00
0400
ENDCHAR
STARTCHAR 2665
ENCODING 8766
SWIDTH 1600 0
DWIDTH 16 0
BBX 12 13 2 -2
BITMAP
79E0
FFF0
FFF0
FFF0
FFF0
FFF0
7FE0
7FE0
3FC0
1F80
0F00
0700
0600
ENDCHAR
STARTCHAR 2667
ENCODING 8767
SWIDTH 1600 0
DWIDTH 16 0
BBX 14 14 1 -2
BITMAP
0780
0840
0840
1040
0840
04B0
7CC8
8004
8004
8004
C588
7D70
0480
0780
ENDCHAR
STARTCHAR 2663
ENCODING 8768
SWIDTH 1600 0
DWIDTH 16 0
BBX 14 14 1 -2
BITMAP
0780
0FC0
0FC0
0FC0
0FC0
37B0
7FF8
FFFC
FFFC
FEFC
7B78
0300
0300
0780
ENDCHAR
STARTCHAR 2299
ENCODING 8769
SWIDTH 1600 0
DWIDTH 16 0
BBX 14 14 1 -2
BITMAP
0FC0
3030
6018
4FC8
9FE4
9FE4
9FE4
9FE4
9FE4
9FE4
4FC8
6018
3030
0FC0
ENDCHAR
STARTCHAR 25C8
ENCODING 8770
SWIDTH 1600 0
DWIDTH 16 0
BBX 14 14 1 -2
BITMAP
0300
0480
0840
1320
2F90
5FE8
BFF4
9FE4
4FC8
2790
1320
0840
0480
0300
ENDCHAR
STARTCHAR 25A3
ENCODING 8771
SWIDTH 1600 0
DWIDTH 16 0
BBX 13 12 1 -1
BITMAP
FFF8
8008
8008
8FC8
8FC8
8FC8
8FC8
8FC8
8FC8
8008
8008
FFF8
ENDCHAR
STARTCHAR 25D0
ENCODING 8772
SWIDTH 1600 0
DWIDTH 16 0
BBX 13 14 2 -2
BITMAP
0F80
3C60
7C30
7C10
FC18
FC08
FC08
FC08
FC08
FC18
7C10
7C30
3CE0
0F80
ENDCHAR
STARTCHAR 25D1
ENCODING 8773
SWIDTH 1600 0
DWIDTH 16 0
BBX 13 14 1 -2
BITMAP
0F80
39E0
21F0
41F0
C1F8
81F8
81F8
81F8
81F8
C1F8
41F0
21F0
39E0
0F80
ENDCHAR
STARTCHAR 2592
ENCODING 8774
SWIDTH 1600 0
DWIDTH 16 0
BBX 13 12 1 -1
BITMAP
FFF8
A548
CAA8
A548
CAA8
A548
CAA8
A548
CAA8
A548
8008
FFF8
ENDCHAR
STARTCHAR 25A4
ENCODING 8775
SWIDTH 1600 0
DWIDTH 16 0
BBX 13 12 1 -1
BITMAP
FFF8
8008
8008
FFF8
8008
8008
FFF8
8008
FFF8
8008
8008
FFF8
ENDCHAR
STARTCHAR 25A5
ENCODING 8776
SWIDTH 1600 0
DWIDTH 16 0
BBX 14 12 1 -1
BITMAP
FFFC
9124
9124
9124
9124
9124
9124
9124
9124
9124
9124
FFFC
ENDCHAR
STARTCHAR 25A8
ENCODING 8777
SWIDTH 1600 0
DWIDTH 16 0
BBX 13 12 2 -1
BITMAP
FFF8
8418
8828
90C8
A108
C208
8438
8848
9088
A108
C208
FFF8
ENDCHAR
STARTCHAR 25A7
ENCODING 8778
SWIDTH 1600 0
DWIDTH 16 0
BBX 13 13 1 -2
BITMAP
FFF8
C208
A108
9088
8848
8428
C218
A108
9088
8848
8428
8218
FFF8
ENDCHAR
STARTCHAR 25A6
ENCODING 8779
SWIDTH 1600 0
DWIDTH 16 0
BBX 12 12 2 -1
BITMAP
FFF0
9290
9290
FFF0
9290
9290
FFF0
9290
FFF0
9290
9290
FFF0
ENDCHAR
STARTCHAR 25A9
ENCODING 8780
SWIDTH 1600 0
DWIDTH 16 0
BBX 13 12 2 -1
BITMAP
FFF8
CA28
B148
90C8
E928
8618
8618
C928
B0C8
A948
C628
FFF8
ENDCHAR
STARTCHAR 2668
ENCODING 8781
SWIDTH 1600 0
DWIDTH 16 0
BBX 13 13 1 -2
BITMAP
0100
0B40
0AC0
0AC0
0B40
0F40
0D40
2D50
CB48
8A88
C238
7FE0
1F80
ENDCHAR
STARTCHAR 260F
ENCODING 8782
SWIDTH 1600 0
DWIDTH 16 0
BBX 15 10 1 0
BITMAP
1FE0
7F9C
AFE4
EBE2
D47C
2830
4830
4828
4448
7FF8
ENDCHAR
STARTCHAR 260E
ENCODING 8783
SWIDTH 1600 0
DWIDTH 16 0
BBX 15 10 1 0
BITMAP
1FF0
7FFC
F85E
FFDE
0C60
1830
3838
3838
3C78
7FF8
ENDCHAR
STARTCHAR 261C
ENCODING 8784
SWIDTH 1600 0
DWIDTH 16 0
BBX 16 7 0 1
BITMAP
03E0
FD9B
7FC7
0763
07C3
039F
0060
ENDCHAR
STARTCHAR 261E
ENCODING 8785
SWIDTH 1600 0
DWIDTH 16 0
BBX 16 6 0 2
BITMAP
07FC
F83F
A3E8
A2B0
B9F0
47E0
ENDCHAR
STARTCHAR 00B6
ENCODING 8786
SWIDTH 1600 0
DWIDTH 16 0
BBX 9 14 3 -2
BITMAP
3C80
4480
8480
8480
8480
4480
3C80
0480
0480
0480
0480
0480
0480
0400
ENDCHAR
STARTCHAR 2020
ENCODING 8787
SWIDTH 1600 0
DWIDTH 16 0
BBX 9 14 4 -2
BITMAP
0800
0800
0800
0800
FF80
0800
0800
0800
0800
0800
0800
0800
0800
0800
ENDCHAR
STARTCHAR 2021
ENCODING 8788
SWIDTH 1600 0
DWIDTH 16 0
BBX 9 14 3 -2
BITMAP
0800
0800
FF80
0800
0800
7F00
0800
0800
0800
0800
0800
0800
0800
0800
ENDCHAR
STARTCHAR 2195
ENCODING 8789
SWIDTH 1600 0
DWIDTH 16 0
BBX 4 11 6 -1
BITMAP
60
D0
40
40
40
40
40
40
40
D0
60
ENDCHAR
STARTCHAR 2197
ENCODING 8790
SWIDTH 1600 0
DWIDTH 16 0
BBX 9 9 3 0
BITMAP
0380
0180
0280
0400
0800
1000
2000
4000
8000
ENDCHAR
STARTCHAR 2199
ENCODING 8791
SWIDTH 1600 0
DWIDTH 16 0
BBX 10 10 3 0
BITMAP
0040
0080
0100
0200
0400
0800
9000
A000
C000
F000
ENDCHAR
STARTCHAR 2196
ENCODING 8792
SWIDTH 1600 0
DWIDTH 16 0
BBX 10 9 3 0
BITMAP
7000
6000
9000
0800
0400
0200
0100
0080
0040
ENDCHAR
STARTCHAR 2198
ENCODING 8793
SWIDTH 1600 0
DWIDTH 16 0
BBX 10 10 3 0
BITMAP
8000
4000
2000
1000
0800
0400
0240
0140
00C0
03C0
ENDCHAR
STARTCHAR 266D
ENCODING 8794
SWIDTH 1600 0
DWIDTH 16 0
BBX 6 10 5 0
BITMAP
80
80
80
B8
C4
84
84
88
90
E0
ENDCHAR
STARTCHAR 2669
ENCODING 8795
SWIDTH 1600 0
DWIDTH 16 0
BBX 4 13 5 -1
BITMAP
10
10
10
10
10
10
10
10
10
10
30
F0
C0
ENDCHAR
STARTCHAR 266A
ENCODING 8796
SWIDTH 1600 0
DWIDTH 16 0
BBX 8 12 3 -1
BITMAP
10
1C
1E
13
11
11
11
11
12
10
70
E0
ENDCHAR
STARTCHAR 266C
ENCODING 8797
SWIDTH 1600 0
DWIDTH 16 0
BBX 12 11 2 -1
BITMAP
1FF0
1010
1FF0
1010
1010
1010
1010
1010
7070
E0E0
C000
ENDCHAR
STARTCHAR 327F
ENCODING 8798
SWIDTH 1600 0
DWIDTH 16 0
BBX 14 12 1 -1
BITMAP
0F80
3060
68F0
4990
8B00
8E00
EF3C
090C
4888
28D8
1830
0FC0
ENDCHAR
STARTCHAR 321C
ENCODING 8799
SWIDTH 1600 0
DWIDTH 16 0
BBX 14 12 1 -1
BITMAP
5FC0
8088
8108
86C4
9834
8004
C7F4
BA04
8204
8208
8208
4210
ENDCHAR
STARTCHAR 2116
ENCODING 8800
SWIDTH 1600 0
DWIDTH 16 0
BBX 14 12 1 -1
BITMAP
CE00
4400
6400
6400
6470
5488
5488
5488
4C88
4488
4454
0020
ENDCHAR
STARTCHAR 33C7
ENCODING 8801
SWIDTH 1600 0
DWIDTH 16 0
BBX 14 12 1 -1
BITMAP
3C00
4200
4200
8000
8070
8088
8088
C088
4288
4488
3C54
0020
ENDCHAR
STARTCHAR 2122
ENCODING 8802
SWIDTH 1600 0
DWIDTH 16 0
BBX 14 11 1 0
BITMAP
7F0C
9518
9398
1198
11A8
11A8
11A8
1168
1168
1148
3B9C
ENDCHAR
STARTCHAR 33C2
ENCODING 8803
SWIDTH 1600 0
DWIDTH 16 0
BBX 14 8 1 -1
BITMAP
F3F0
9150
1150
7150
9150
9150
FD54
0020
ENDCHAR
STARTCHAR 33D8
ENCODING 8804
SWIDTH 1600 0
DWIDTH 16 0
BBX 16 10 0 -3
BITMAP
F9FC
44A4
44A4
44A4
44A4
44A4
4AA5
7000
4000
E000
ENDCHAR
STARTCHAR 2121
ENCODING 8805
SWIDTH 1600 0
DWIDTH 16 0
BBX 14 12 1 -1
BITMAP
FE04
9204
1104
1044
11A4
1134
1134
11C4
1104
1104
38A4
0040
ENDCHAR
STARTCHAR FF01
ENCODING 8993
SWIDTH 1600 0
DWIDTH 16 0
BBX 2 11 7 0
BITMAP
80
80
80
40
40
40
40
00
00
00
80
ENDCHAR
STARTCHAR FF02
ENCODING 8994
SWIDTH 1600 0
DWIDTH 16 0
BBX 5 3 6 10
BITMAP
58
90
A0
ENDCHAR
STARTCHAR FF03
ENCODING 8995
SWIDTH 1600 0
DWIDTH 16 0
BBX 6 13 5 -2
BITMAP
24
24
28
48
FC
48
48
48
FC
90
90
90
90
ENDCHAR
STARTCHAR FF04
ENCODING 8996
SWIDTH 1600 0
DWIDTH 16 0
BBX 9 15 3 -3
BITMAP
1400
3C00
5700
9500
9400
D400
7C00
1F00
1500
1480
9480
5500
7F00
1400
1400
ENDCHAR
STARTCHAR FF05
ENCODING 8997
SWIDTH 1600 0
DWIDTH 16 0
BBX 12 14 2 -3
BITMAP
F010
8820
8840
8880
8900
9A00
6400
0CE0
1910
3110
6110
4110
8130
00E0
ENDCHAR
STARTCHAR FF06
ENCODING 8998
SWIDTH 1600 0
DWIDTH 16 0
BBX 11 12 3 -1
BITMAP
0800
3600
2200
2600
3C00
31E0
D880
8880
8C80
8700
C300
7DC0
ENDCHAR
STARTCHAR FF07
ENCODING 8999
SWIDTH 1600 0
DWIDTH 16 0
BBX 2 3 7 9
BITMAP
C0
80
80
ENDCHAR
STARTCHAR FF08
ENCODING 9000
SWIDTH 1600 0
DWIDTH 16 0
BBX 3 14 12 -2
BITMAP
20
40
40
80
80
80
80
80
80
80
80
40
40
20
ENDCHAR
STARTCHAR FF09
ENCODING 9001
SWIDTH 1600 0
DWIDTH 16 0
BBX 3 14 1 -2
BITMAP
80
80
40
40
20
20
20
20
20
20
20
40
40
80
ENDCHAR
STARTCHAR FF0A
ENCODING 9002
SWIDTH 1600 0
DWIDTH 16 0
BBX 6 6 5 2
BITMAP
10
14
68
30
EC
10
ENDCHAR
STARTCHAR FF0B
ENCODING 9003
SWIDTH 1600 0
DWIDTH 16 0
BBX 11 10 2 0
BITMAP
0400
0400
0400
0400
0400
FFE0
0400
0400
0400
0400
ENDCHAR
STARTCHAR FF0C
ENCODING 9004
SWIDTH 1600 0
DWIDTH 16 0
BBX 2 3 1 -1
BITMAP
C0
40
80
ENDCHAR
STARTCHAR FF0D
ENCODING 9005
SWIDTH 1600 0
DWIDTH 16 0
BBX 10 1 3 4
BITMAP
FFC0
ENDCHAR
STARTCHAR FF0E
ENCODING 9006
SWIDTH 1600 0
DWIDTH 16 0
BBX 1 2 1 0
BITMAP
80
80
ENDCHAR
STARTCHAR FF0F
ENCODING 9007
SWIDTH 1600 0
DWIDTH 16 0
BBX 15 15 1 -3
BITMAP
0002
0004
0008
0010
0020
0040
0080
0100
0200
0400
0800
1000
2000
4000
8000
ENDCHAR
STARTCHAR FF10
ENCODING 9008
SWIDTH 1600 0
DWIDTH 16 0
BBX 6 12 5 -1
BITMAP
78
48
84
84
84
84
84
84
84
88
48
30
ENDCHAR
STARTCHAR FF11
ENCODING 9009
SWIDTH 1600 0
DWIDTH 16 0
BBX 5 12 6 0
BITMAP
20
E0
20
20
20
20
20
20
20
20
20
F8
ENDCHAR
STARTCHAR FF12
ENCODING 9010
SWIDTH 1600 0
DWIDTH 16 0
BBX 6 11 5 0
BITMAP
78
84
C4
04
08
08
10
20
40
84
F8
ENDCHAR
STARTCHAR FF13
ENCODING 9011
SWIDTH 1600 0
DWIDTH 16 0
BBX 6 12 5 -1
BITMAP
38
44
44
04
08
30
08
04
04
84
88
70
ENDCHAR
STARTCHAR FF14
ENCODING 9012
SWIDTH 1600 0
DWIDTH 16 0
BBX 5 11 5 0
BITMAP
08
08
18
28
28
48
88
88
78
08
08
ENDCHAR
STARTCHAR FF15
ENCODING 9013
SWIDTH 1600 0
DWIDTH 16 0
BBX 6 12 5 -1
BITMAP
F8
80
80
80
F8
8C
04
04
84
8C
58
20
ENDCHAR
STARTCHAR FF16
ENCODING 9014
SWIDTH 1600 0
DWIDTH 16 0
BBX 6 11 5 0
BITMAP
3C
4C
80
80
F8
84
84
84
84
48
38
ENDCHAR
STARTCHAR FF17
ENCODING 9015
SWIDTH 1600 0
DWIDTH 16 0
BBX 6 11 5 0
BITMAP
FC
88
08
10
10
10
20
20
20
20
60
ENDCHAR
STARTCHAR FF18
ENCODING 9016
SWIDTH 1600 0
DWIDTH 16 0
BBX 6 11 5 0
BITMAP
78
C8
84
88
48
78
84
84
84
C4
78
ENDCHAR
STARTCHAR FF19
ENCODING 9017
SWIDTH 1600 0
DWIDTH 16 0
BBX 6 12 5 -1
BITMAP
70
48
84
84
84
84
5C
24
08
48
D0
20
ENDCHAR
STARTCHAR FF1A
ENCODING 9018
SWIDTH 1600 0
DWIDTH 16 0
BBX 1 8 8 0
BITMAP
80
80
00
00
00
00
80
80
ENDCHAR
STARTCHAR FF1B
ENCODING 9019
SWIDTH 1600 0
DWIDTH 16 0
BBX 2 10 7 -2
BITMAP
80
80
00
00
00
00
00
C0
40
80
ENDCHAR
STARTCHAR FF1C
ENCODING 9020
SWIDTH 1600 0
DWIDTH 16 0
BBX 9 10 4 0
BITMAP
0080
0300
0C00
3000
C000
8000
6000
1800
0600
0180
ENDCHAR
STARTCHAR FF1D
ENCODING 9021
SWIDTH 1600 0
DWIDTH 16 0
BBX 12 4 2 3
BITMAP
FFF0
0000
0000
FFF0
ENDCHAR
STARTCHAR FF1E
ENCODING 9022
SWIDTH 1600 0
DWIDTH 16 0
BBX 10 10 3 0
BITMAP
8000
6000
1800
0600
0180
00C0
0300
0C00
3000
C000
ENDCHAR
STARTCHAR FF1F
ENCODING 9023
SWIDTH 1600 0
DWIDTH 16 0
BBX 6 11 5 -1
BITMAP
78
8C
CC
0C
08
10
20
00
00
20
20
ENDCHAR
STARTCHAR FF20
ENCODING 9024
SWIDTH 1600 0
DWIDTH 16 0
BBX 10 11 3 -1
BITMAP
0F00
3080
4080
8E40
9140
9140
9240
9E80
4140
2080
1F00
ENDCHAR
STARTCHAR FF21
ENCODING 9025
SWIDTH 1600 0
DWIDTH 16 0
BBX 11 11 2 0
BITMAP
0600
0600
0A00
0900
1100
1100
1080
2F80
20C0
2040
F0E0
ENDCHAR
STARTCHAR FF22
ENCODING 9026
SWIDTH 1600 0
DWIDTH 16 0
BBX 10 11 3 0
BITMAP
FF00
2080
2080
2080
2100
3E00
2180
2040
2040
2080
7100
ENDCHAR
STARTCHAR FF23
ENCODING 9027
SWIDTH 1600 0
DWIDTH 16 0
BBX 9 11 3 0
BITMAP
1F00
6080
4000
8000
8000
8000
8000
8000
C000
6080
3F00
ENDCHAR
STARTCHAR FF24
ENCODING 9028
SWIDTH 1600 0
DWIDTH 16 0
BBX 10 11 3 0
BITMAP
FE00
4180
4080
4040
4040
4040
4040
4040
4080
4100
FE00
ENDCHAR
STARTCHAR FF25
ENCODING 9029
SWIDTH 1600 0
DWIDTH 16 0
BBX 10 11 3 0
BITMAP
FF80
2080
2040
2000
2200
3E00
2200
2000
2040
2080
FF80
ENDCHAR
STARTCHAR FF26
ENCODING 9030
SWIDTH 1600 0
DWIDTH 16 0
BBX 10 11 3 0
BITMAP
FF80
2080
2040
2000
2200
3E00
2200
2000
2000
2000
7800
ENDCHAR
STARTCHAR FF27
ENCODING 9031
SWIDTH 1600 0
DWIDTH 16 0
BBX 10 12 3 -1
BITMAP
1F80
2080
4000
8000
8000
8000
8000
81C0
8080
4080
2180
1E00
ENDCHAR
STARTCHAR FF28
ENCODING 9032
SWIDTH 1600 0
DWIDTH 16 0
BBX 12 11 2 0
BITMAP
79F0
2040
2040
2040
2040
3FC0
2040
2040
2040
2040
F8E0
ENDCHAR
STARTCHAR FF29
ENCODING 9033
SWIDTH 1600 0
DWIDTH 16 0
BBX 5 11 6 0
BITMAP
F8
20
20
20
20
20
20
20
20
20
70
ENDCHAR
STARTCHAR FF2A
ENCODING 9034
SWIDTH 1600 0
DWIDTH 16 0
BBX 7 13 4 -2
BITMAP
3E
08
08
08
08
08
08
08
08
08
08
48
F0
ENDCHAR
STARTCHAR FF2B
ENCODING 9035
SWIDTH 1600 0
DWIDTH 16 0
BBX 11 11 2 0
BITMAP
F9E0
2080
2100
2200
2400
3C00
2200
2100
2080
2080
70E0
ENDCHAR
STARTCHAR FF2C
ENCODING 9036
SWIDTH 1600 0
DWIDTH 16 0
BBX 9 11 3 0
BITMAP
F800
2000
2000
2000
2000
2000
2000
2000
2000
2180
7F80
ENDCHAR
STARTCHAR FF2D
ENCODING 9037
SWIDTH 1600 0
DWIDTH 16 0
BBX 15 11 0 0
BITMAP
F01E
3028
3028
2828
2848
2448
2488
2288
2288
2108
793C
ENDCHAR
STARTCHAR FF2E
ENCODING 9038
SWIDTH 1600 0
DWIDTH 16 0
BBX 11 11 2 0
BITMAP
E1E0
2040
3040
2840
2840
2440
2240
2140
2140
20C0
F840
ENDCHAR
STARTCHAR FF2F
ENCODING 9039
SWIDTH 1600 0
DWIDTH 16 0
BBX 10 11 3 0
BITMAP
3F00
6180
4080
8040
8040
8040
8040
8040
4080
6180
3F00
ENDCHAR
STARTCHAR FF30
ENCODING 9040
SWIDTH 1600 0
DWIDTH 16 0
BBX 10 11 3 0
BITMAP
7F00
20C0
2040
2040
20C0
3F80
2000
2000
2000
2000
F800
ENDCHAR
STARTCHAR FF31
ENCODING 9041
SWIDTH 1600 0
DWIDTH 16 0
BBX 10 13 3 -2
BITMAP
1E00
6180
4080
C040
8040
8040
8040
8040
9040
EC80
2300
1F00
01C0
ENDCHAR
STARTCHAR FF32
ENCODING 9042
SWIDTH 1600 0
DWIDTH 16 0
BBX 9 11 3 0
BITMAP
FF00
2180
2080
2080
2100
3E00
2400
2200
2100
2100
F880
ENDCHAR
STARTCHAR FF33
ENCODING 9043
SWIDTH 1600 0
DWIDTH 16 0
BBX 8 12 4 -1
BITMAP
7E
82
80
80
60
1C
03
01
01
82
62
1C
ENDCHAR
STARTCHAR FF34
ENCODING 9044
SWIDTH 1600 0
DWIDTH 16 0
BBX 11 11 3 0
BITMAP
7FC0
C460
8420
0400
0400
0400
0400
0400
0400
0400
0E00
ENDCHAR
STARTCHAR FF35
ENCODING 9045
SWIDTH 1600 0
DWIDTH 16 0
BBX 10 11 3 0
BITMAP
E1C0
4080
4080
4080
4080
4080
4080
4080
4080
6100
3E00
ENDCHAR
STARTCHAR FF36
ENCODING 9046
SWIDTH 1600 0
DWIDTH 16 0
BBX 10 10 3 1
BITMAP
E1C0
4080
2100
2100
2100
1200
1200
1200
0C00
0C00
ENDCHAR
STARTCHAR FF37
ENCODING 9047
SWIDTH 1600 0
DWIDTH 16 0
BBX 16 11 0 0
BITMAP
F3CF
2104
2084
2188
1188
1248
1250
0A50
0C30
0C30
0420
ENDCHAR
STARTCHAR FF38
ENCODING 9048
SWIDTH 1600 0
DWIDTH 16 0
BBX 10 11 3 0
BITMAP
F380
2100
2200
1400
0C00
0C00
1400
2200
2200
4100
F3C0
ENDCHAR
STARTCHAR FF39
ENCODING 9049
SWIDTH 1600 0
DWIDTH 16 0
BBX 10 11 3 0
BITMAP
F1C0
6080
2100
1100
1200
0C00
0400
0400
0400
0400
1F00
ENDCHAR
STARTCHAR FF3A
ENCODING 9050
SWIDTH 1600 0
DWIDTH 16 0
BBX 8 11 4 0
BITMAP
7F
42
82
04
08
08
10
20
40
41
FE
ENDCHAR
STARTCHAR FF3B
ENCODING 9051
SWIDTH 1600 0
DWIDTH 16 0
BBX 3 15 12 -3
BITMAP
E0
80
80
80
80
80
80
80
80
80
80
80
80
80
40
ENDCHAR
STARTCHAR FFE6
ENCODING 9052
SWIDTH 1600 0
DWIDTH 16 0
BBX 14 11 1 -1
BITMAP
C30C
4208
4108
FFFC
2510
FFFC
24A0
18A0
18C0
1840
0040
ENDCHAR
STARTCHAR FF3D
ENCODING 9053
SWIDTH 1600 0
DWIDTH 16 0
BBX 3 15 1 -3
BITMAP
E0
20
20
20
20
20
20
20
20
20
20
20
20
20
40
ENDCHAR
STARTCHAR FF3E
ENCODING 9054
SWIDTH 1600 0
DWIDTH 16 0
BBX 4 2 6 10
BITMAP
60
90
ENDCHAR
STARTCHAR FF3F
ENCODING 9055
SWIDTH 1600 0
DWIDTH 16 0
BBX 14 1 1 -2
BITMAP
FFFC
ENDCHAR
STARTCHAR FF40
ENCODING 9056
SWIDTH 1600 0
DWIDTH 16 0
BBX 4 6 6 7
BITMAP
C0
40
40
20
20
10
ENDCHAR
STARTCHAR FF41
ENCODING 9057
SWIDTH 1600 0
DWIDTH 16 0
BBX 7 8 4 -1
BITMAP
78
C4
04
3C
44
84
CE
30
ENDCHAR
STARTCHAR FF42
ENCODING 9058
SWIDTH 1600 0
DWIDTH 16 0
BBX 8 12 4 -1
BITMAP
C0
40
40
40
7E
41
41
41
41
43
66
18
ENDCHAR
STARTCHAR FF43
ENCODING 9059
SWIDTH 1600 0
DWIDTH 16 0
BBX 6 8 5 -1
BITMAP
7C
84
80
80
80
80
4C
30
ENDCHAR
STARTCHAR FF44
ENCODING 9060
SWIDTH 1600 0
DWIDTH 16 0
BBX 7 12 4 -1
BITMAP
06
02
02
02
7E
42
82
82
82
82
6E
10
ENDCHAR
STARTCHAR FF45
ENCODING 9061
SWIDTH 1600 0
DWIDTH 16 0
BBX 7 8 5 0
BITMAP
38
CC
84
FC
80
80
C2
7C
ENDCHAR
STARTCHAR FF46
ENCODING 9062
SWIDTH 1600 0
DWIDTH 16 0
BBX 6 11 5 0
BITMAP
1C
20
20
20
F8
20
20
20
20
20
78
ENDCHAR
STARTCHAR FF47
ENCODING 9063
SWIDTH 1600 0
DWIDTH 16 0
BBX 8 11 4 -3
BITMAP
3B
44
44
44
44
38
40
3C
C2
82
7C
ENDCHAR
STARTCHAR FF48
ENCODING 9064
SWIDTH 1600 0
DWIDTH 16 0
BBX 7 11 4 0
BITMAP
40
40
40
40
5C
62
42
42
42
42
E2
ENDCHAR
STARTCHAR FF49
ENCODING 9065
SWIDTH 1600 0
DWIDTH 16 0
BBX 3 11 6 0
BITMAP
40
40
00
40
40
40
40
40
40
40
E0
ENDCHAR
STARTCHAR FF4A
ENCODING 9066
SWIDTH 1600 0
DWIDTH 16 0
BBX 3 13 6 -2
BITMAP
20
20
00
00
E0
20
20
20
20
20
20
20
C0
ENDCHAR
STARTCHAR FF4B
ENCODING 9067
SWIDTH 1600 0
DWIDTH 16 0
BBX 8 10 4 0
BITMAP
C0
40
40
4F
44
48
70
48
44
46
ENDCHAR
STARTCHAR FF4C
ENCODING 9068
SWIDTH 1600 0
DWIDTH 16 0
BBX 2 11 7 0
BITMAP
C0
40
40
40
40
40
40
40
40
40
40
ENDCHAR
STARTCHAR FF4D
ENCODING 9069
SWIDTH 1600 0
DWIDTH 16 0
BBX 12 8 2 0
BITMAP
DCC0
6320
4220
4220
4220
4220
4220
E770
ENDCHAR
STARTCHAR FF4E
ENCODING 9070
SWIDTH 1600 0
DWIDTH 16 0
BBX 8 8 4 0
BITMAP
DC
62
42
42
42
42
42
E7
ENDCHAR
STARTCHAR FF4F
ENCODING 9071
SWIDTH 1600 0
DWIDTH 16 0
BBX 7 9 4 -1
BITMAP
38
44
82
82
82
82
82
44
38
ENDCHAR
STARTCHAR FF50
ENCODING 9072
SWIDTH 1600 0
DWIDTH 16 0
BBX 7 10 4 -3
BITMAP
78
44
42
42
42
42
64
58
40
E0
ENDCHAR
STARTCHAR FF51
ENCODING 9073
SWIDTH 1600 0
DWIDTH 16 0
BBX 7 10 5 -3
BITMAP
7C
84
84
84
84
84
4C
34
04
0E
ENDCHAR
STARTCHAR FF52
ENCODING 9074
SWIDTH 1600 0
DWIDTH 16 0
BBX 6 7 5 0
BITMAP
DC
60
40
40
40
40
40
ENDCHAR
STARTCHAR FF53
ENCODING 9075
SWIDTH 1600 0
DWIDTH 16 0
BBX 6 8 5 0
BITMAP
20
D8
84
60
38
04
84
68
ENDCHAR
STARTCHAR FF54
ENCODING 9076
SWIDTH 1600 0
DWIDTH 16 0
BBX 5 10 6 -1
BITMAP
40
40
F0
40
40
40
40
40
40
38
ENDCHAR
STARTCHAR FF55
ENCODING 9077
SWIDTH 1600 0
DWIDTH 16 0
BBX 7 8 4 -1
BITMAP
C6
42
42
42
42
42
6E
10
ENDCHAR
STARTCHAR FF56
ENCODING 9078
SWIDTH 1600 0
DWIDTH 16 0
BBX 6 7 5 0
BITMAP
C4
44
48
48
30
30
10
ENDCHAR
STARTCHAR FF57
ENCODING 9079
SWIDTH 1600 0
DWIDTH 16 0
BBX 10 7 3 0
BITMAP
CC40
4440
4C80
5280
3300
2300
0100
ENDCHAR
STARTCHAR FF58
ENCODING 9080
SWIDTH 1600 0
DWIDTH 16 0
BBX 8 7 4 0
BITMAP
F7
24
28
18
34
42
E7
ENDCHAR
STARTCHAR FF59
ENCODING 9081
SWIDTH 1600 0
DWIDTH 16 0
BBX 8 10 4 -3
BITMAP
C3
42
24
24
38
18
18
10
10
E0
ENDCHAR
STARTCHAR FF5A
ENCODING 9082
SWIDTH 1600 0
DWIDTH 16 0
BBX 6 7 5 0
BITMAP
7C
08
10
20
20
44
88
ENDCHAR
STARTCHAR FF5B
ENCODING 9083
SWIDTH 1600 0
DWIDTH 16 0
BBX 3 15 11 -3
BITMAP
20
40
40
40
40
40
40
80
40
40
40
40
40
40
20
ENDCHAR
STARTCHAR FF5C
ENCODING 9084
SWIDTH 1600 0
DWIDTH 16 0
BBX 1 14 7 -2
BITMAP
80
80
80
80
80
80
80
80
80
80
80
80
80
80
ENDCHAR
STARTCHAR FF5D
ENCODING 9085
SWIDTH 1600 0
DWIDTH 16 0
BBX 3 15 1 -3
BITMAP
40
20
20
20
20
20
20
20
20
20
20
20
20
40
80
ENDCHAR
STARTCHAR FFE3
ENCODING 9086
SWIDTH 1600 0
DWIDTH 16 0
BBX 6 1 5 11
BITMAP
FC
ENDCHAR
STARTCHAR 3131
ENCODING 9249
SWIDTH 1600 0
DWIDTH 16 0
BBX 10 8 3 1
BITMAP
FFC0
4040
0040
0040
0040
0040
0040
0040
ENDCHAR
STARTCHAR 3132
ENCODING 9250
SWIDTH 1600 0
DWIDTH 16 0
BBX 12 8 2 1
BITMAP
F9F0
0810
0810
0810
0810
0810
0810
0810
ENDCHAR
STARTCHAR 3133
ENCODING 9251
SWIDTH 1600 0
DWIDTH 16 0
BBX 12 8 2 1
BITMAP
F880
0840
0880
0880
08C0
0920
0A10
0810
ENDCHAR
STARTCHAR 3134
ENCODING 9252
SWIDTH 1600 0
DWIDTH 16 0
BBX 11 7 3 2
BITMAP
C000
4000
4000
4000
4000
4060
3FE0
ENDCHAR
STARTCHAR 3135
ENCODING 9253
SWIDTH 1600 0
DWIDTH 16 0
BBX 12 8 2 1
BITMAP
C5F0
4240
4040
4080
42C0
4520
7A10
0010
ENDCHAR
STARTCHAR 3136
ENCODING 9254
SWIDTH 1600 0
DWIDTH 16 0
BBX 13 9 2 0
BITMAP
80E0
4018
47F8
4040
41E0
4210
5E10
6210
01E0
ENDCHAR
STARTCHAR 3137
ENCODING 9255
SWIDTH 1600 0
DWIDTH 16 0
BBX 10 7 3 2
BITMAP
0180
FF80
8000
8000
8000
80C0
FFC0
ENDCHAR
STARTCHAR 3138
ENCODING 9256
SWIDTH 1600 0
DWIDTH 16 0
BBX 13 9 2 0
BITMAP
C1F0
7900
4100
4100
4100
4100
4500
79F8
4000
ENDCHAR
STARTCHAR 3139
ENCODING 9257
SWIDTH 1600 0
DWIDTH 16 0
BBX 11 9 2 1
BITMAP
0040
FFC0
0040
0080
0080
7FC0
4000
4060
7FE0
ENDCHAR
STARTCHAR 313A
ENCODING 9258
SWIDTH 1600 0
DWIDTH 16 0
BBX 12 8 2 1
BITMAP
0010
F8F0
1010
1010
E010
8010
8410
F810
ENDCHAR
STARTCHAR 313B
ENCODING 9259
SWIDTH 1600 0
DWIDTH 16 0
BBX 13 8 1 1
BITMAP
7CF8
0888
0888
F888
4088
4088
42F8
7C80
ENDCHAR
STARTCHAR 313C
ENCODING 9260
SWIDTH 1600 0
DWIDTH 16 0
BBX 12 9 2 0
BITMAP
7C10
0910
0910
F9F0
4110
4110
4310
7DF0
0010
ENDCHAR
STARTCHAR 313D
ENCODING 9261
SWIDTH 1600 0
DWIDTH 16 0
BBX 12 8 2 1
BITMAP
FC40
0840
0840
F880
40C0
4120
4310
7E10
ENDCHAR
STARTCHAR 313E
ENCODING 9262
SWIDTH 1600 0
DWIDTH 16 0
BBX 14 8 1 1
BITMAP
7CFC
0880
0880
F8F8
4080
4080
4280
7CFC
ENDCHAR
STARTCHAR 313F
ENCODING 9263
SWIDTH 1600 0
DWIDTH 16 0
BBX 13 8 2 1
BITMAP
7C30
0BE0
0820
FE20
4120
4140
4D58
77E8
ENDCHAR
STARTCHAR 3140
ENCODING 9264
SWIDTH 1600 0
DWIDTH 16 0
BBX 14 9 1 0
BITMAP
F8F0
0800
0BFC
0820
70F0
4088
4108
4888
70F0
ENDCHAR
STARTCHAR 3141
ENCODING 9265
SWIDTH 1600 0
DWIDTH 16 0
BBX 10 8 3 1
BITMAP
FFC0
4040
4040
4040
4080
4080
7FC0
4000
ENDCHAR
STARTCHAR 3142
ENCODING 9266
SWIDTH 1600 0
DWIDTH 16 0
BBX 9 10 3 0
BITMAP
0180
C080
4080
4080
7F80
4080
4080
4080
7F80
4080
ENDCHAR
STARTCHAR 3143
ENCODING 9267
SWIDTH 1600 0
DWIDTH 16 0
BBX 12 10 2 0
BITMAP
0020
CB10
4910
4910
79F0
4910
4910
4910
79F0
4910
ENDCHAR
STARTCHAR 3144
ENCODING 9268
SWIDTH 1600 0
DWIDTH 16 0
BBX 12 9 2 0
BITMAP
C440
4440
44C0
7C80
44C0
4520
4610
7C10
4000
ENDCHAR
STARTCHAR 3145
ENCODING 9269
SWIDTH 1600 0
DWIDTH 16 0
BBX 11 8 3 1
BITMAP
0C00
0400
0800
0E00
1100
20C0
4040
8020
ENDCHAR
STARTCHAR 3146
ENCODING 9270
SWIDTH 1600 0
DWIDTH 16 0
BBX 12 8 2 1
BITMAP
1040
0840
1080
1880
2540
4620
8410
0810
ENDCHAR
STARTCHAR 3147
ENCODING 9271
SWIDTH 1600 0
DWIDTH 16 0
BBX 8 9 4 1
BITMAP
08
3C
42
81
81
81
81
42
3C
ENDCHAR
STARTCHAR 3148
ENCODING 9272
SWIDTH 1600 0
DWIDTH 16 0
BBX 11 9 2 1
BITMAP
0040
7FE0
2200
0200
0600
0980
1060
2020
C000
ENDCHAR
STARTCHAR 3149
ENCODING 9273
SWIDTH 1600 0
DWIDTH 16 0
BBX 14 7 1 2
BITMAP
7FF8
2820
0820
1840
24B0
4288
8104
ENDCHAR
STARTCHAR 314A
ENCODING 9274
SWIDTH 1600 0
DWIDTH 16 0
BBX 12 9 2 0
BITMAP
0F00
0000
FFE0
6200
0600
0D00
18C0
2020
C010
ENDCHAR
STARTCHAR 314B
ENCODING 9275
SWIDTH 1600 0
DWIDTH 16 0
BBX 9 10 4 0
BITMAP
0080
FF80
4080
0080
0380
7C80
C080
0100
0100
0100
ENDCHAR
STARTCHAR 314C
ENCODING 9276
SWIDTH 1600 0
DWIDTH 16 0
BBX 10 8 4 1
BITMAP
FF80
8000
8000
8000
FF80
8000
80C0
FFC0
ENDCHAR
STARTCHAR 314D
ENCODING 9277
SWIDTH 1600 0
DWIDTH 16 0
BBX 12 8 2 1
BITMAP
0060
7FE0
2180
1080
1080
1100
0100
FFF0
ENDCHAR
STARTCHAR 314E
ENCODING 9278
SWIDTH 1600 0
DWIDTH 16 0
BBX 12 9 2 0
BITMAP
0F20
01F0
FE00
0300
0C80
1080
1080
1880
0F00
ENDCHAR
STARTCHAR 314F
ENCODING 9279
SWIDTH 1600 0
DWIDTH 16 0
BBX 6 14 6 -2
BITMAP
C0
40
40
40
40
40
48
7C
40
40
40
40
40
40
ENDCHAR
STARTCHAR 3150
ENCODING 9280
SWIDTH 1600 0
DWIDTH 16 0
BBX 6 14 5 -2
BITMAP
1C
C4
44
44
44
44
44
7C
44
44
44
44
44
04
ENDCHAR
STARTCHAR 3151
ENCODING 9281
SWIDTH 1600 0
DWIDTH 16 0
BBX 6 14 6 -2
BITMAP
C0
40
40
40
48
7C
40
40
48
7C
40
40
40
40
ENDCHAR
STARTCHAR 3152
ENCODING 9282
SWIDTH 1600 0
DWIDTH 16 0
BBX 5 14 6 -2
BITMAP
18
88
88
88
F8
88
88
88
F8
88
88
88
88
08
ENDCHAR
STARTCHAR 3153
ENCODING 9283
SWIDTH 1600 0
DWIDTH 16 0
BBX 6 14 4 -2
BITMAP
18
04
04
04
04
04
FC
04
04
04
04
04
04
04
ENDCHAR
STARTCHAR 3154
ENCODING 9284
SWIDTH 1600 0
DWIDTH 16 0
BBX 8 14 4 -2
BITMAP
03
21
11
11
11
11
11
F1
11
11
11
11
11
01
ENDCHAR
STARTCHAR 3155
ENCODING 9285
SWIDTH 1600 0
DWIDTH 16 0
BBX 6 14 4 -2
BITMAP
0C
04
04
04
FC
44
04
04
FC
04
04
04
04
04
ENDCHAR
STARTCHAR 3156
ENCODING 9286
SWIDTH 1600 0
DWIDTH 16 0
BBX 9 14 3 -2
BITMAP
0180
0880
0880
0880
F880
0880
0880
0880
1880
6880
0880
0880
0880
0080
ENDCHAR
STARTCHAR 3157
ENCODING 9287
SWIDTH 1600 0
DWIDTH 16 0
BBX 13 8 2 1
BITMAP
0600
0200
0200
0200
0200
0210
07F8
F800
ENDCHAR
STARTCHAR 3158
ENCODING 9288
SWIDTH 1600 0
DWIDTH 16 0
BBX 15 14 0 -2
BITMAP
0030
0010
0010
0C10
0410
0410
0412
041C
0470
FF90
2010
0010
0010
0010
ENDCHAR
STARTCHAR 3159
ENCODING 9289
SWIDTH 1600 0
DWIDTH 16 0
BBX 11 14 3 -2
BITMAP
00C0
0420
0220
6220
2220
2220
2220
23E0
2220
3E20
C220
0220
0220
0020
ENDCHAR
STARTCHAR 315A
ENCODING 9290
SWIDTH 1600 0
DWIDTH 16 0
BBX 11 14 2 -2
BITMAP
00C0
0020
0020
1820
0820
0820
0820
0820
08E0
1F20
E020
0020
0020
0020
ENDCHAR
STARTCHAR 315B
ENCODING 9291
SWIDTH 1600 0
DWIDTH 16 0
BBX 14 7 1 2
BITMAP
0040
0840
0840
0840
0840
0840
FFFC
ENDCHAR
STARTCHAR 315C
ENCODING 9292
SWIDTH 1600 0
DWIDTH 16 0
BBX 15 11 1 -2
BITMAP
0004
FFFE
2100
0100
0100
0100
0100
0100
0100
0100
0100
ENDCHAR
STARTCHAR 315D
ENCODING 9293
SWIDTH 1600 0
DWIDTH 16 0
BBX 11 14 2 -2
BITMAP
0080
0060
0020
0020
0320
FC20
0820
0BE0
0820
0820
0820
0820
0020
0020
ENDCHAR
STARTCHAR 315E
ENCODING 9294
SWIDTH 1600 0
DWIDTH 16 0
BBX 13 14 1 -2
BITMAP
0018
0088
0048
0048
0048
FE48
0848
0BC8
0848
0848
0848
0048
0008
0008
ENDCHAR
STARTCHAR 315F
ENCODING 9295
SWIDTH 1600 0
DWIDTH 16 0
BBX 12 14 1 -2
BITMAP
0060
0010
0010
0010
0010
87F0
7C10
0410
0410
0410
0410
0410
0010
0010
ENDCHAR
STARTCHAR 3160
ENCODING 9296
SWIDTH 1600 0
DWIDTH 16 0
BBX 14 11 1 -2
BITMAP
000C
FFFC
6840
0840
0840
0840
0840
0840
0840
0840
0840
ENDCHAR
STARTCHAR 3161
ENCODING 9297
SWIDTH 1600 0
DWIDTH 16 0
BBX 14 2 1 4
BITMAP
001C
FFFC
ENDCHAR
STARTCHAR 3162
ENCODING 9298
SWIDTH 1600 0
DWIDTH 16 0
BBX 12 14 1 -2
BITMAP
0060
0010
0010
0010
0010
0010
0010
0070
9F90
6010
0010
0010
0010
0010
ENDCHAR
STARTCHAR 3163
ENCODING 9299
SWIDTH 1600 0
DWIDTH 16 0
BBX 2 14 7 -2
BITMAP
C0
40
40
40
40
40
40
40
40
40
40
40
40
40
ENDCHAR
STARTCHAR 3164
ENCODING 9300
SWIDTH 1600 0
DWIDTH 16 0
BBX 0 0 0 0
BITMAP
ENDCHAR
STARTCHAR 3165
ENCODING 9301
SWIDTH 1600 0
DWIDTH 16 0
BBX 12 8 3 1
BITMAP
0400
8200
8200
8200
8200
8A00
B200
C3F0
ENDCHAR
STARTCHAR 3166
ENCODING 9302
SWIDTH 1600 0
DWIDTH 16 0
BBX 12 9 3 1
BITMAP
0020
03E0
8200
8200
8200
8200
8200
9230
E3F0
ENDCHAR
STARTCHAR 3167
ENCODING 9303
SWIDTH 1600 0
DWIDTH 16 0
BBX 12 8 2 1
BITMAP
C0C0
4080
4080
4180
4140
4220
7C10
0800
ENDCHAR
STARTCHAR 3168
ENCODING 9304
SWIDTH 1600 0
DWIDTH 16 0
BBX 13 8 2 1
BITMAP
8080
40C0
4140
4120
4220
4610
4A10
77F8
ENDCHAR
STARTCHAR 3169
ENCODING 9305
SWIDTH 1600 0
DWIDTH 16 0
BBX 14 8 1 1
BITMAP
FF30
1110
1120
D120
6130
4148
458C
7984
ENDCHAR
STARTCHAR 316A
ENCODING 9306
SWIDTH 1600 0
DWIDTH 16 0
BBX 13 9 2 1
BITMAP
0010
FFF8
0900
0900
F900
4100
4100
4300
7DF8
ENDCHAR
STARTCHAR 316B
ENCODING 9307
SWIDTH 1600 0
DWIDTH 16 0
BBX 14 9 1 0
BITMAP
9C90
6A90
0A90
FB90
4290
42A8
42A4
73C4
0280
ENDCHAR
STARTCHAR 316C
ENCODING 9308
SWIDTH 1600 0
DWIDTH 16 0
BBX 12 8 2 1
BITMAP
FC40
04C0
08C0
7CA0
4120
4110
4610
7BF0
ENDCHAR
STARTCHAR 316D
ENCODING 9309
SWIDTH 1600 0
DWIDTH 16 0
BBX 14 8 1 1
BITMAP
FC00
09FC
0840
F8E0
4110
4110
4510
78E0
ENDCHAR
STARTCHAR 316E
ENCODING 9310
SWIDTH 1600 0
DWIDTH 16 0
BBX 12 10 2 0
BITMAP
0020
0210
F910
8910
89F0
8910
8910
8910
F9F0
8110
ENDCHAR
STARTCHAR 316F
ENCODING 9311
SWIDTH 1600 0
DWIDTH 16 0
BBX 12 9 2 0
BITMAP
0080
F8C0
8880
8880
88C0
9120
9230
FC10
8800
ENDCHAR
STARTCHAR 3170
ENCODING 9312
SWIDTH 1600 0
DWIDTH 16 0
BBX 12 8 2 1
BITMAP
00C0
F8C0
88C0
88A0
8920
9120
9210
FBF0
ENDCHAR
STARTCHAR 3171
ENCODING 9313
SWIDTH 1600 0
DWIDTH 16 0
BBX 7 11 5 -1
BITMAP
FE
82
82
84
FE
78
C4
84
84
CC
78
ENDCHAR
STARTCHAR 3172
ENCODING 9314
SWIDTH 1600 0
DWIDTH 16 0
BBX 11 9 2 0
BITMAP
CC20
45E0
4420
7C20
4420
4420
4420
7C20
0400
ENDCHAR
STARTCHAR 3173
ENCODING 9315
SWIDTH 1600 0
DWIDTH 16 0
BBX 12 9 2 0
BITMAP
CDF0
4500
4500
7D00
4500
4500
4510
7DF0
4400
ENDCHAR
STARTCHAR 3174
ENCODING 9316
SWIDTH 1600 0
DWIDTH 16 0
BBX 13 10 1 0
BITMAP
1000
C988
48B8
4888
7908
4988
4A48
4C28
7C08
4000
ENDCHAR
STARTCHAR 3175
ENCODING 9317
SWIDTH 1600 0
DWIDTH 16 0
BBX 14 8 1 1
BITMAP
890C
4930
4920
7920
4B20
4AA0
4CA0
783C
ENDCHAR
STARTCHAR 3176
ENCODING 9318
SWIDTH 1600 0
DWIDTH 16 0
BBX 13 9 1 0
BITMAP
8DF8
4440
4440
7C40
4460
4490
4508
7E08
4400
ENDCHAR
STARTCHAR 3177
ENCODING 9319
SWIDTH 1600 0
DWIDTH 16 0
BBX 13 10 1 0
BITMAP
0010
C5F8
4500
4500
7DF0
4500
4500
4500
7DF8
4000
ENDCHAR
STARTCHAR 3178
ENCODING 9320
SWIDTH 1600 0
DWIDTH 16 0
BBX 7 13 5 -2
BITMAP
82
82
FE
82
82
FE
80
78
84
82
82
84
78
ENDCHAR
STARTCHAR 3179
ENCODING 9321
SWIDTH 1600 0
DWIDTH 16 0
BBX 11 13 2 -2
BITMAP
C920
4920
79E0
4920
4920
79E0
4100
0F80
18C0
1040
1040
18C0
0F80
ENDCHAR
STARTCHAR 317A
ENCODING 9322
SWIDTH 1600 0
DWIDTH 16 0
BBX 12 8 2 1
BITMAP
1010
09F0
1010
1010
2810
2410
4610
8210
ENDCHAR
STARTCHAR 317B
ENCODING 9323
SWIDTH 1600 0
DWIDTH 16 0
BBX 14 8 1 1
BITMAP
0980
0880
0880
1080
1880
2680
4288
80FC
ENDCHAR
STARTCHAR 317C
ENCODING 9324
SWIDTH 1600 0
DWIDTH 16 0
BBX 14 8 1 1
BITMAP
08F8
0880
0880
1080
1880
2480
4280
80FC
ENDCHAR
STARTCHAR 317D
ENCODING 9325
SWIDTH 1600 0
DWIDTH 16 0
BBX 13 8 1 1
BITMAP
0988
0888
0888
10F8
1888
2688
42F8
8088
ENDCHAR
STARTCHAR 317E
ENCODING 9326
SWIDTH 1600 0
DWIDTH 16 0
BBX 13 8 1 1
BITMAP
19F8
0840
1820
1040
2860
2490
4308
8108
ENDCHAR
STARTCHAR 317F
ENCODING 9327
SWIDTH 1600 0
DWIDTH 16 0
BBX 9 9 4 1
BITMAP
1000
0800
1800
2400
2400
4200
8100
8100
FF80
ENDCHAR
STARTCHAR 3180
ENCODING 9328
SWIDTH 1600 0
DWIDTH 16 0
BBX 12 7 2 1
BITMAP
70E0
8910
8910
8A10
8910
8910
70E0
ENDCHAR
STARTCHAR 3181
ENCODING 9329
SWIDTH 1600 0
DWIDTH 16 0
BBX 8 9 4 1
BITMAP
18
08
7C
C3
81
81
81
42
3C
ENDCHAR
STARTCHAR 3182
ENCODING 9330
SWIDTH 1600 0
DWIDTH 16 0
BBX 12 9 2 1
BITMAP
3000
10C0
7840
CC80
8480
85C0
8520
CE10
7C10
ENDCHAR
STARTCHAR 3183
ENCODING 9331
SWIDTH 1600 0
DWIDTH 16 0
BBX 13 9 2 1
BITMAP
2080
2040
70C0
88C0
8920
8920
8A10
8A10
73F8
ENDCHAR
STARTCHAR 3184
ENCODING 9332
SWIDTH 1600 0
DWIDTH 16 0
BBX 10 12 3 -1
BITMAP
7FC0
0200
0300
1200
1200
FFC0
0000
1E00
2100
2100
2100
1E00
ENDCHAR
STARTCHAR 3185
ENCODING 9333
SWIDTH 1600 0
DWIDTH 16 0
BBX 14 9 1 0
BITMAP
3870
0604
FFFC
0000
78F0
4488
4488
4488
3870
ENDCHAR
STARTCHAR 3186
ENCODING 9334
SWIDTH 1600 0
DWIDTH 16 0
BBX 10 10 3 0
BITMAP
00C0
FFC0
0000
0000
1E00
3300
2100
2100
3300
1E00
ENDCHAR
STARTCHAR 3187
ENCODING 9335
SWIDTH 1600 0
DWIDTH 16 0
BBX 14 14 1 -2
BITMAP
0060
0020
0020
0120
1120
113C
1120
1120
1160
FEBC
0020
0020
0020
0020
ENDCHAR
STARTCHAR 3188
ENCODING 9336
SWIDTH 1600 0
DWIDTH 16 0
BBX 11 14 2 -2
BITMAP
0060
0120
0120
05A0
65E0
25A0
25A0
27A0
27E0
3DA0
C1A0
01A0
01A0
0020
ENDCHAR
STARTCHAR 3189
ENCODING 9337
SWIDTH 1600 0
DWIDTH 16 0
BBX 11 14 2 -2
BITMAP
0060
0020
0020
0620
2220
1220
1220
1220
12A0
FD20
4020
0020
0020
0020
ENDCHAR
STARTCHAR 318A
ENCODING 9338
SWIDTH 1600 0
DWIDTH 16 0
BBX 12 14 1 -2
BITMAP
0030
0010
0010
0010
0390
FE10
12F0
1210
1210
12F0
1210
0210
0010
0010
ENDCHAR
STARTCHAR 318B
ENCODING 9339
SWIDTH 1600 0
DWIDTH 16 0
BBX 11 14 2 -2
BITMAP
0060
0020
00A0
00A0
00A0
3CA0
E8A0
29A0
28A0
2BA0
28A0
00A0
0020
0020
ENDCHAR
STARTCHAR 318C
ENCODING 9340
SWIDTH 1600 0
DWIDTH 16 0
BBX 11 14 2 -2
BITMAP
0060
0020
0020
0020
0020
9F20
7220
1220
1220
1220
1220
1220
0020
0020
ENDCHAR
STARTCHAR 318D
ENCODING 9341
SWIDTH 1600 0
DWIDTH 16 0
BBX 3 3 7 4
BITMAP
C0
E0
C0
ENDCHAR
STARTCHAR 318E
ENCODING 9342
SWIDTH 1600 0
DWIDTH 16 0
BBX 8 14 4 -2
BITMAP
03
01
01
01
E1
E1
E1
01
01
01
01
01
01
01
ENDCHAR
STARTCHAR 2170
ENCODING 9505
SWIDTH 1600 0
DWIDTH 16 0
BBX 2 11 7 0
BITMAP
40
00
00
00
C0
40
40
40
40
40
40
ENDCHAR
STARTCHAR 2171
ENCODING 9506
SWIDTH 1600 0
DWIDTH 16 0
BBX 7 11 4 0
BITMAP
42
00
00
00
C6
42
42
42
42
42
42
ENDCHAR
STARTCHAR 2172
ENCODING 9507
SWIDTH 1600 0
DWIDTH 16 0
BBX 9 11 3 0
BITMAP
4480
0000
0000
0000
CD80
4480
4480
4480
4480
4480
4480
ENDCHAR
STARTCHAR 2173
ENCODING 9508
SWIDTH 1600 0
DWIDTH 16 0
BBX 10 11 3 0
BITMAP
4000
4000
0000
0000
C840
4880
4480
4500
4300
4300
4000
ENDCHAR
STARTCHAR 2174
ENCODING 9509
SWIDTH 1600 0
DWIDTH 16 0
BBX 7 7 5 0
BITMAP
C6
44
48
28
28
10
10
ENDCHAR
STARTCHAR 2175
ENCODING 9510
SWIDTH 1600 0
DWIDTH 16 0
BBX 9 11 4 0
BITMAP
0080
0080
0000
0000
8980
8880
9080
5080
6080
2080
2080
ENDCHAR
STARTCHAR 2176
ENCODING 9511
SWIDTH 1600 0
DWIDTH 16 0
BBX 11 11 3 0
BITMAP
0220
0220
0000
0000
8E60
9220
9220
6220
6220
6220
0220
ENDCHAR
STARTCHAR 2177
ENCODING 9512
SWIDTH 1600 0
DWIDTH 16 0
BBX 13 11 2 0
BITMAP
0248
0248
0000
0000
8A50
9250
5250
5250
6250
2250
2250
ENDCHAR
STARTCHAR 2178
ENCODING 9513
SWIDTH 1600 0
DWIDTH 16 0
BBX 11 11 3 0
BITMAP
4000
4000
0000
C000
5DC0
4C80
4500
4600
4900
4880
FDE0
ENDCHAR
STARTCHAR 2179
ENCODING 9514
SWIDTH 1600 0
DWIDTH 16 0
BBX 8 7 4 0
BITMAP
66
24
18
18
28
44
C7
ENDCHAR
STARTCHAR 2160
ENCODING 9520
SWIDTH 1600 0
DWIDTH 16 0
BBX 5 11 5 0
BITMAP
F8
20
20
20
20
20
20
20
20
20
F8
ENDCHAR
STARTCHAR 2161
ENCODING 9521
SWIDTH 1600 0
DWIDTH 16 0
BBX 10 11 3 0
BITMAP
FF80
2100
2100
2100
2100
2100
2100
2100
2100
2100
7FC0
ENDCHAR
STARTCHAR 2162
ENCODING 9522
SWIDTH 1600 0
DWIDTH 16 0
BBX 14 11 1 0
BITMAP
FFFC
2110
2110
2110
2110
2110
2110
2110
2110
2110
73B8
ENDCHAR
STARTCHAR 2163
ENCODING 9523
SWIDTH 1600 0
DWIDTH 16 0
BBX 14 11 1 0
BITMAP
FF3C
2410
2610
2220
2220
2320
2140
2140
21C0
2080
7080
ENDCHAR
STARTCHAR 2164
ENCODING 9524
SWIDTH 1600 0
DWIDTH 16 0
BBX 12 11 2 0
BITMAP
F8F0
2040
2040
1080
1080
1900
0900
0900
0600
0600
0400
ENDCHAR
STARTCHAR 2165
ENCODING 9525
SWIDTH 1600 0
DWIDTH 16 0
BBX 13 11 2 0
BITMAP
F3F8
4120
4220
2220
2220
2420
3420
1420
1820
1820
0070
ENDCHAR
STARTCHAR 2166
ENCODING 9526
SWIDTH 1600 0
DWIDTH 16 0
BBX 14 12 1 -1
BITMAP
F3FC
6148
2248
2248
2248
1448
1448
1448
1448
0848
0848
0030
ENDCHAR
STARTCHAR 2167
ENCODING 9527
SWIDTH 1600 0
DWIDTH 16 0
BBX 14 12 1 -1
BITMAP
E7FC
42A8
64A8
24A8
24A8
28A8
28A8
38A8
18A8
10A8
11AC
0050
ENDCHAR
STARTCHAR 2168
ENCODING 9528
SWIDTH 1600 0
DWIDTH 16 0
BBX 13 11 1 0
BITMAP
FF38
2210
2220
2140
2180
2080
2140
2240
2220
2430
7E38
ENDCHAR
STARTCHAR 2169
ENCODING 9529
SWIDTH 1600 0
DWIDTH 16 0
BBX 12 11 2 0
BITMAP
79E0
1080
1100
0900
0600
0600
0A00
1100
2080
20C0
F9F0
ENDCHAR
STARTCHAR 0391
ENCODING 9537
SWIDTH 1600 0
DWIDTH 16 0
BBX 12 11 2 0
BITMAP
00C0
0140
0240
0240
0440
0840
1040
1FC0
2040
4020
E070
ENDCHAR
STARTCHAR 0392
ENCODING 9538
SWIDTH 1600 0
DWIDTH 16 0
BBX 12 12 2 -1
BITMAP
1FC0
0420
0810
0820
0840
1F80
1040
1020
2020
2040
F180
0E00
ENDCHAR
STARTCHAR 0393
ENCODING 9539
SWIDTH 1600 0
DWIDTH 16 0
BBX 11 11 3 0
BITMAP
3FE0
0840
1040
1040
1000
2000
2000
2000
2000
4000
E000
ENDCHAR
STARTCHAR 0394
ENCODING 9540
SWIDTH 1600 0
DWIDTH 16 0
BBX 10 11 3 0
BITMAP
0040
00C0
0140
0240
0440
0880
1080
2080
4080
8080
FF80
ENDCHAR
STARTCHAR 0395
ENCODING 9541
SWIDTH 1600 0
DWIDTH 16 0
BBX 12 11 2 0
BITMAP
1FE0
0410
0810
0800
0880
1F00
1100
1100
2020
2040
FFC0
ENDCHAR
STARTCHAR 0396
ENCODING 9542
SWIDTH 1600 0
DWIDTH 16 0
BBX 10 11 3 0
BITMAP
1FC0
3080
2100
0200
0400
0800
1000
1000
2000
4300
FF00
ENDCHAR
STARTCHAR 0397
ENCODING 9543
SWIDTH 1600 0
DWIDTH 16 0
BBX 14 11 1 0
BITMAP
1E3C
0810
0810
0820
1020
1FE0
1020
2040
2040
2040
F3C0
ENDCHAR
STARTCHAR 0398
ENCODING 9544
SWIDTH 1600 0
DWIDTH 16 0
BBX 10 12 3 -1
BITMAP
0F80
3040
6040
4040
D240
9E40
8240
8080
8080
4100
2600
1800
ENDCHAR
STARTCHAR 0399
ENCODING 9545
SWIDTH 1600 0
DWIDTH 16 0
BBX 7 11 5 0
BITMAP
3E
08
10
10
10
20
20
20
20
40
E0
ENDCHAR
STARTCHAR 039A
ENCODING 9546
SWIDTH 1600 0
DWIDTH 16 0
BBX 14 11 1 0
BITMAP
1F3C
0410
0860
0880
0B00
1500
1900
1080
2080
2040
F9F0
ENDCHAR
STARTCHAR 039B
ENCODING 9547
SWIDTH 1600 0
DWIDTH 16 0
BBX 11 11 3 0
BITMAP
0180
0280
0280
0480
0880
0880
1080
2080
2080
4080
E3E0
ENDCHAR
STARTCHAR 039C
ENCODING 9548
SWIDTH 1600 0
DWIDTH 16 0
BBX 15 11 1 0
BITMAP
1C0E
0C18
1428
1428
1450
2490
2490
2510
4620
4620
E4F0
ENDCHAR
STARTCHAR 039D
ENCODING 9549
SWIDTH 1600 0
DWIDTH 16 0
BBX 14 11 1 0
BITMAP
1C3C
0410
0C10
1210
1220
1120
1120
2140
20C0
20C0
F000
ENDCHAR
STARTCHAR 039E
ENCODING 9550
SWIDTH 1600 0
DWIDTH 16 0
BBX 12 11 2 0
BITMAP
1FF0
1020
0020
0000
0080
1F80
1000
0000
4040
4080
FF80
ENDCHAR
STARTCHAR 039F
ENCODING 9551
SWIDTH 1600 0
DWIDTH 16 0
BBX 10 12 3 -1
BITMAP
0F80
1080
2040
4040
4040
8080
8080
8080
8100
4200
2400
1800
ENDCHAR
STARTCHAR 03A0
ENCODING 9552
SWIDTH 1600 0
DWIDTH 16 0
BBX 13 11 2 0
BITMAP
1FF8
0820
1020
1040
1040
1040
2080
2080
2080
4100
E380
ENDCHAR
STARTCHAR 03A1
ENCODING 9553
SWIDTH 1600 0
DWIDTH 16 0
BBX 12 11 2 0
BITMAP
0FE0
0430
0810
0820
0860
1FC0
1000
1000
2000
2000
F800
ENDCHAR
STARTCHAR 03A3
ENCODING 9554
SWIDTH 1600 0
DWIDTH 16 0
BBX 10 11 3 0
BITMAP
1FC0
1040
0800
0800
0400
0600
0400
1800
2080
4100
FF00
ENDCHAR
STARTCHAR 03A4
ENCODING 9555
SWIDTH 1600 0
DWIDTH 16 0
BBX 12 11 2 0
BITMAP
3FE0
4220
8210
0400
0400
0400
0800
0800
0800
1000
7C00
ENDCHAR
STARTCHAR 03A5
ENCODING 9556
SWIDTH 1600 0
DWIDTH 16 0
BBX 10 12 3 0
BITMAP
2040
D1C0
0E00
0800
0800
1000
1000
1000
2000
2000
2000
F000
ENDCHAR
STARTCHAR 03A6
ENCODING 9557
SWIDTH 1600 0
DWIDTH 16 0
BBX 10 11 3 0
BITMAP
0780
0F00
3480
4480
4440
88C0
8880
8980
5300
3E00
7800
ENDCHAR
STARTCHAR 03A7
ENCODING 9558
SWIDTH 1600 0
DWIDTH 16 0
BBX 13 11 1 0
BITMAP
0E38
0420
0440
0480
0300
0300
0500
0880
1080
2040
F1F0
ENDCHAR
STARTCHAR 03A8
ENCODING 9559
SWIDTH 1600 0
DWIDTH 16 0
BBX 11 12 3 0
BITMAP
4000
2CE0
2960
4900
8900
9100
9100
9200
7C00
2000
2000
F800
ENDCHAR
STARTCHAR 03A9
ENCODING 9560
SWIDTH 1600 0
DWIDTH 16 0
BBX 12 11 2 0
BITMAP
03C0
0C20
1010
1010
2010
2020
2020
10C0
0B00
8C00
F3C0
ENDCHAR
STARTCHAR 03B1
ENCODING 9569
SWIDTH 1600 0
DWIDTH 16 0
BBX 8 7 4 0
BITMAP
1D
25
46
8C
84
88
F6
ENDCHAR
STARTCHAR 03B2
ENCODING 9570
SWIDTH 1600 0
DWIDTH 16 0
BBX 8 13 4 -2
BITMAP
07
19
11
21
21
2E
42
42
42
42
BC
80
80
ENDCHAR
STARTCHAR 03B3
ENCODING 9571
SWIDTH 1600 0
DWIDTH 16 0
BBX 8 9 4 -2
BITMAP
E3
12
14
18
10
20
20
40
40
ENDCHAR
STARTCHAR 03B4
ENCODING 9572
SWIDTH 1600 0
DWIDTH 16 0
BBX 8 11 4 0
BITMAP
1C
22
12
09
18
64
42
86
84
4C
78
ENDCHAR
STARTCHAR 03B5
ENCODING 9573
SWIDTH 1600 0
DWIDTH 16 0
BBX 7 7 4 0
BITMAP
1E
20
40
7C
80
40
7C
ENDCHAR
STARTCHAR 03B6
ENCODING 9574
SWIDTH 1600 0
DWIDTH 16 0
BBX 7 13 4 -2
BITMAP
20
42
2C
30
20
40
80
80
40
78
08
08
70
ENDCHAR
STARTCHAR 03B7
ENCODING 9575
SWIDTH 1600 0
DWIDTH 16 0
BBX 6 9 5 -2
BITMAP
DC
24
44
44
88
88
10
10
30
ENDCHAR
STARTCHAR 03B8
ENCODING 9576
SWIDTH 1600 0
DWIDTH 16 0
BBX 8 12 4 -1
BITMAP
0E
11
21
21
42
7E
42
84
84
88
50
20
ENDCHAR
STARTCHAR 03B9
ENCODING 9577
SWIDTH 1600 0
DWIDTH 16 0
BBX 4 7 6 0
BITMAP
30
20
40
40
80
90
E0
ENDCHAR
STARTCHAR 03BA
ENCODING 9578
SWIDTH 1600 0
DWIDTH 16 0
BBX 7 7 4 0
BITMAP
16
28
30
30
48
48
CC
ENDCHAR
STARTCHAR 03BB
ENCODING 9579
SWIDTH 1600 0
DWIDTH 16 0
BBX 7 11 5 0
BITMAP
18
0C
04
04
04
0C
14
24
44
44
86
ENDCHAR
STARTCHAR 03BC
ENCODING 9580
SWIDTH 1600 0
DWIDTH 16 0
BBX 8 9 4 -2
BITMAP
10
11
21
22
42
44
6B
90
80
ENDCHAR
STARTCHAR 03BD
ENCODING 9581
SWIDTH 1600 0
DWIDTH 16 0
BBX 6 7 5 0
BITMAP
C0
44
44
88
90
B0
C0
ENDCHAR
STARTCHAR 03BE
ENCODING 9582
SWIDTH 1600 0
DWIDTH 16 0
BBX 8 13 4 -2
BITMAP
0E
10
1F
20
40
2C
3E
C0
80
80
78
04
38
ENDCHAR
STARTCHAR 03BF
ENCODING 9583
SWIDTH 1600 0
DWIDTH 16 0
BBX 6 8 5 -1
BITMAP
3C
44
84
84
84
88
90
60
ENDCHAR
STARTCHAR 03C0
ENCODING 9584
SWIDTH 1600 0
DWIDTH 16 0
BBX 8 7 4 0
BITMAP
7F
A4
28
48
48
C8
8C
ENDCHAR
STARTCHAR 03C1
ENCODING 9585
SWIDTH 1600 0
DWIDTH 16 0
BBX 8 9 4 -2
BITMAP
04
1A
21
21
61
A2
A4
98
C0
ENDCHAR
STARTCHAR 03C3
ENCODING 9586
SWIDTH 1600 0
DWIDTH 16 0
BBX 8 9 4 -1
BITMAP
07
38
44
42
84
84
84
58
20
ENDCHAR
STARTCHAR 03C4
ENCODING 9587
SWIDTH 1600 0
DWIDTH 16 0
BBX 6 7 5 0
BITMAP
7C
A0
20
40
40
40
60
ENDCHAR
STARTCHAR 03C5
ENCODING 9588
SWIDTH 1600 0
DWIDTH 16 0
BBX 7 8 4 -1
BITMAP
32
22
22
42
44
88
50
20
ENDCHAR
STARTCHAR 03C6
ENCODING 9589
SWIDTH 1600 0
DWIDTH 16 0
BBX 8 8 4 -2
BITMAP
67
89
91
91
92
7C
20
60
ENDCHAR
STARTCHAR 03C7
ENCODING 9590
SWIDTH 1600 0
DWIDTH 16 0
BBX 8 9 4 -2
BITMAP
31
4B
0A
0C
08
38
28
49
8E
ENDCHAR
STARTCHAR 03C8
ENCODING 9591
SWIDTH 1600 0
DWIDTH 16 0
BBX 8 13 4 -2
BITMAP
06
04
04
08
09
49
91
92
92
6C
30
20
60
ENDCHAR
STARTCHAR 03C9
ENCODING 9592
SWIDTH 1600 0
DWIDTH 16 0
BBX 9 7 4 0
BITMAP
2000
4480
8880
8880
9180
9100
EE00
ENDCHAR
STARTCHAR 2500
ENCODING 9761
SWIDTH 1600 0
DWIDTH 16 0
BBX 16 1 0 4
BITMAP
FFFF
ENDCHAR
STARTCHAR 2502
ENCODING 9762
SWIDTH 1600 0
DWIDTH 16 0
BBX 1 16 7 -3
BITMAP
80
80
80
80
80
80
80
80
80
80
80
80
80
80
80
80
ENDCHAR
STARTCHAR 250C
ENCODING 9763
SWIDTH 1600 0
DWIDTH 16 0
BBX 9 8 7 -3
BITMAP
FF80
8000
8000
8000
8000
8000
8000
8000
ENDCHAR
STARTCHAR 2510
ENCODING 9764
SWIDTH 1600 0
DWIDTH 16 0
BBX 9 8 -1 -3
BITMAP
FF80
0080
0080
0080
0080
0080
0080
0080
ENDCHAR
STARTCHAR 2518
ENCODING 9765
SWIDTH 1600 0
DWIDTH 16 0
BBX 9 9 -1 4
BITMAP
0080
0080
0080
0080
0080
0080
0080
0080
FF80
ENDCHAR
STARTCHAR 2514
ENCODING 9766
SWIDTH 1600 0
DWIDTH 16 0
BBX 9 9 7 4
BITMAP
8000
8000
8000
8000
8000
8000
8000
8000
FF80
ENDCHAR
STARTCHAR 251C
ENCODING 9767
SWIDTH 1600 0
DWIDTH 16 0
BBX 9 16 7 -3
BITMAP
8000
8000
8000
8000
8000
8000
8000
8000
FF80
8000
8000
8000
8000
8000
8000
8000
ENDCHAR
STARTCHAR 252C
ENCODING 9768
SWIDTH 1600 0
DWIDTH 16 0
BBX 17 8 -1 -3
BITMAP
FFFF80
008000
008000
008000
008000
008000
008000
008000
ENDCHAR
STARTCHAR 2524
ENCODING 9769
SWIDTH 1600 0
DWIDTH 16 0
BBX 9 16 -1 -3
BITMAP
0080
0080
0080
0080
0080
0080
0080
0080
FF80
0080
0080
0080
0080
0080
0080
0080
ENDCHAR
STARTCHAR 2534
ENCODING 9770
SWIDTH 1600 0
DWIDTH 16 0
BBX 17 9 -1 4
BITMAP
008000
008000
008000
008000
008000
008000
008000
008000
FFFF80
ENDCHAR
STARTCHAR 253C
ENCODING 9771
SWIDTH 1600 0
DWIDTH 16 0
BBX 17 16 -1 -3
BITMAP
008000
008000
008000
008000
008000
008000
008000
008000
FFFF80
008000
008000
008000
008000
008000
008000
008000
ENDCHAR
STARTCHAR 2501
ENCODING 9772
SWIDTH 1600 0
DWIDTH 16 0
BBX 16 1 0 4
BITMAP
FFFF
ENDCHAR
STARTCHAR 2503
ENCODING 9773
SWIDTH 1600 0
DWIDTH 16 0
BBX 1 16 7 -3
BITMAP
80
80
80
80
80
80
80
80
80
80
80
80
80
80
80
80
ENDCHAR
STARTCHAR 250F
ENCODING 9774
SWIDTH 1600 0
DWIDTH 16 0
BBX 8 8 7 -3
BITMAP
FF
80
80
80
80
80
80
80
ENDCHAR
STARTCHAR 2513
ENCODING 9775
SWIDTH 1600 0
DWIDTH 16 0
BBX 8 8 0 -3
BITMAP
FF
01
01
01
01
01
01
01
ENDCHAR
STARTCHAR 251B
ENCODING 9776
SWIDTH 1600 0
DWIDTH 16 0
BBX 8 9 0 4
BITMAP
01
01
01
01
01
01
01
01
FF
ENDCHAR
STARTCHAR 2517
ENCODING 9777
SWIDTH 1600 0
DWIDTH 16 0
BBX 8 9 7 4
BITMAP
80
80
80
80
80
80
80
80
FF
ENDCHAR
STARTCHAR 2523
ENCODING 9778
SWIDTH 1600 0
DWIDTH 16 0
BBX 8 16 7 -3
BITMAP
80
80
80
80
80
80
80
80
FF
80
80
80
80
80
80
80
ENDCHAR
STARTCHAR 2533
ENCODING 9779
SWIDTH 1600 0
DWIDTH 16 0
BBX 15 8 0 -3
BITMAP
FFFE
0100
0100
0100
0100
0100
0100
0100
ENDCHAR
STARTCHAR 252B
ENCODING 9780
SWIDTH 1600 0
DWIDTH 16 0
BBX 8 16 0 -3
BITMAP
01
01
01
01
01
01
01
01
FF
01
01
01
01
01
01
01
ENDCHAR
STARTCHAR 253B
ENCODING 9781
SWIDTH 1600 0
DWIDTH 16 0
BBX 15 9 1 4
BITMAP
0100
0100
0100
0100
0100
0100
0100
0100
FFFE
ENDCHAR
STARTCHAR 254B
ENCODING 9782
SWIDTH 1600 0
DWIDTH 16 0
BBX 15 16 1 -3
BITMAP
0100
0100
0100
0100
0100
0100
0100
0100
FFFE
0100
0100
0100
0100
0100
0100
0100
ENDCHAR
STARTCHAR 2520
ENCODING 9783
SWIDTH 1600 0
DWIDTH 16 0
BBX 8 16 8 -3
BITMAP
80
80
80
80
80
80
80
80
FF
80
80
80
80
80
80
80
ENDCHAR
STARTCHAR 252F
ENCODING 9784
SWIDTH 1600 0
DWIDTH 16 0
BBX 17 8 -1 -3
BITMAP
FFFF80
008000
008000
008000
008000
008000
008000
008000
ENDCHAR
STARTCHAR 2528
ENCODING 9785
SWIDTH 1600 0
DWIDTH 16 0
BBX 8 16 1 -3
BITMAP
01
01
01
01
01
01
01
01
FF
01
01
01
01
01
01
01
ENDCHAR
STARTCHAR 2537
ENCODING 9786
SWIDTH 1600 0
DWIDTH 16 0
BBX 17 9 -1 4
BITMAP
008000
008000
008000
008000
008000
008000
008000
008000
FFFF80
ENDCHAR
STARTCHAR 253F
ENCODING 9787
SWIDTH 1600 0
DWIDTH 16 0
BBX 17 16 -1 -3
BITMAP
008000
008000
008000
008000
008000
008000
008000
008000
FFFF80
008000
008000
008000
008000
008000
008000
008000
ENDCHAR
STARTCHAR 251D
ENCODING 9788
SWIDTH 1600 0
DWIDTH 16 0
BBX 9 16 7 -3
BITMAP
8000
8000
8000
8000
8000
8000
8000
8000
FF80
8000
8000
8000
8000
8000
8000
8000
ENDCHAR
STARTCHAR 2530
ENCODING 9789
SWIDTH 1600 0
DWIDTH 16 0
BBX 15 8 0 -3
BITMAP
FFFE
0100
0100
0100
0100
0100
0100
0100
ENDCHAR
STARTCHAR 2525
ENCODING 9790
SWIDTH 1600 0
DWIDTH 16 0
BBX 9 16 -1 -3
BITMAP
0080
0080
0080
0080
0080
0080
0080
0080
FF80
0080
0080
0080
0080
0080
0080
0080
ENDCHAR
STARTCHAR 2538
ENCODING 9791
SWIDTH 1600 0
DWIDTH 16 0
BBX 15 9 0 4
BITMAP
0100
0100
0100
0100
0100
0100
0100
0100
FFFE
ENDCHAR
STARTCHAR 2542
ENCODING 9792
SWIDTH 1600 0
DWIDTH 16 0
BBX 15 16 0 -3
BITMAP
0100
0100
0100
0100
0100
0100
0100
0100
FFFE
0100
0100
0100
0100
0100
0100
0100
ENDCHAR
STARTCHAR 2512
ENCODING 9793
SWIDTH 1600 0
DWIDTH 16 0
BBX 8 8 0 -3
BITMAP
FF
01
01
01
01
01
01
01
ENDCHAR
STARTCHAR 2511
ENCODING 9794
SWIDTH 1600 0
DWIDTH 16 0
BBX 9 8 -1 -3
BITMAP
FF80
0080
0080
0080
0080
0080
0080
0080
ENDCHAR
STARTCHAR 251A
ENCODING 9795
SWIDTH 1600 0
DWIDTH 16 0
BBX 8 9 1 4
BITMAP
01
01
01
01
01
01
01
01
FF
ENDCHAR
STARTCHAR 2519
ENCODING 9796
SWIDTH 1600 0
DWIDTH 16 0
BBX 9 9 0 4
BITMAP
0080
0080
0080
0080
0080
0080
0080
0080
FF80
ENDCHAR
STARTCHAR 2516
ENCODING 9797
SWIDTH 1600 0
DWIDTH 16 0
BBX 8 9 7 4
BITMAP
80
80
80
80
80
80
80
80
FF
ENDCHAR
STARTCHAR 2515
ENCODING 9798
SWIDTH 1600 0
DWIDTH 16 0
BBX 9 9 7 4
BITMAP
8000
8000
8000
8000
8000
8000
8000
8000
FF80
ENDCHAR
STARTCHAR 250E
ENCODING 9799
SWIDTH 1600 0
DWIDTH 16 0
BBX 8 8 8 -3
BITMAP
FF
80
80
80
80
80
80
80
ENDCHAR
STARTCHAR 250D
ENCODING 9800
SWIDTH 1600 0
DWIDTH 16 0
BBX 9 8 7 -3
BITMAP
FF80
8000
8000
8000
8000
8000
8000
8000
ENDCHAR
STARTCHAR 251E
ENCODING 9801
SWIDTH 1600 0
DWIDTH 16 0
BBX 9 16 7 -3
BITMAP
4000
4000
4000
4000
4000
4000
4000
4000
FF80
8000
8000
8000
8000
8000
8000
8000
ENDCHAR
STARTCHAR 251F
ENCODING 9802
SWIDTH 1600 0
DWIDTH 16 0
BBX 8 16 8 -3
BITMAP
80
80
80
80
80
80
80
80
FF
80
80
80
80
80
80
80
ENDCHAR
STARTCHAR 2521
ENCODING 9803
SWIDTH 1600 0
DWIDTH 16 0
BBX 9 16 7 -3
BITMAP
4000
4000
4000
4000
4000
4000
4000
4000
FF80
8000
8000
8000
8000
8000
8000
8000
ENDCHAR
STARTCHAR 2522
ENCODING 9804
SWIDTH 1600 0
DWIDTH 16 0
BBX 8 16 8 -3
BITMAP
80
80
80
80
80
80
80
80
FF
80
80
80
80
80
80
80
ENDCHAR
STARTCHAR 2526
ENCODING 9805
SWIDTH 1600 0
DWIDTH 16 0
BBX 8 16 0 -3
BITMAP
01
01
01
01
01
01
01
01
FF
01
01
01
01
01
01
01
ENDCHAR
STARTCHAR 2527
ENCODING 9806
SWIDTH 1600 0
DWIDTH 16 0
BBX 8 16 1 -3
BITMAP
01
01
01
01
01
01
01
01
FF
01
01
01
01
01
01
01
ENDCHAR
STARTCHAR 2529
ENCODING 9807
SWIDTH 1600 0
DWIDTH 16 0
BBX 8 16 1 -3
BITMAP
01
01
01
01
01
01
01
01
FF
01
01
01
01
01
01
01
ENDCHAR
STARTCHAR 252A
ENCODING 9808
SWIDTH 1600 0
DWIDTH 16 0
BBX 8 16 1 -3
BITMAP
02
02
02
02
02
02
02
02
FF
01
01
01
01
01
01
01
ENDCHAR
STARTCHAR 252D
ENCODING 9809
SWIDTH 1600 0
DWIDTH 16 0
BBX 17 8 -1 -3
BITMAP
FFFF80
008000
008000
008000
008000
008000
008000
008000
ENDCHAR
STARTCHAR 252E
ENCODING 9810
SWIDTH 1600 0
DWIDTH 16 0
BBX 17 8 -1 -3
BITMAP
FFFF80
008000
008000
008000
008000
008000
008000
008000
ENDCHAR
STARTCHAR 2531
ENCODING 9811
SWIDTH 1600 0
DWIDTH 16 0
BBX 15 8 0 -3
BITMAP
FFFE
0100
0100
0100
0100
0100
0100
0100
ENDCHAR
STARTCHAR 2532
ENCODING 9812
SWIDTH 1600 0
DWIDTH 16 0
BBX 15 8 0 -3
BITMAP
FFFE
0100
0100
0100
0100
0100
0100
0100
ENDCHAR
STARTCHAR 2535
ENCODING 9813
SWIDTH 1600 0
DWIDTH 16 0
BBX 17 9 -1 4
BITMAP
008000
008000
008000
008000
008000
008000
008000
008000
FFFF80
ENDCHAR
STARTCHAR 2536
ENCODING 9814
SWIDTH 1600 0
DWIDTH 16 0
BBX 17 9 -1 4
BITMAP
008000
008000
008000
008000
008000
008000
008000
008000
FFFF80
ENDCHAR
STARTCHAR 2539
ENCODING 9815
SWIDTH 1600 0
DWIDTH 16 0
BBX 15 9 0 4
BITMAP
0100
0100
0100
0100
0100
0100
0100
0100
FFFE
ENDCHAR
STARTCHAR 253A
ENCODING 9816
SWIDTH 1600 0
DWIDTH 16 0
BBX 15 9 0 4
BITMAP
0100
0100
0100
0100
0100
0100
0100
0100
FFFE
ENDCHAR
STARTCHAR 253D
ENCODING 9817
SWIDTH 1600 0
DWIDTH 16 0
BBX 17 16 -1 -3
BITMAP
008000
008000
008000
008000
008000
008000
008000
008000
FFFF80
008000
008000
008000
008000
008000
008000
008000
ENDCHAR
STARTCHAR 253E
ENCODING 9818
SWIDTH 1600 0
DWIDTH 16 0
BBX 17 16 -1 -3
BITMAP
008000
008000
008000
008000
008000
008000
008000
008000
FFFF80
008000
008000
008000
008000
008000
008000
008000
ENDCHAR
STARTCHAR 2540
ENCODING 9819
SWIDTH 1600 0
DWIDTH 16 0
BBX 15 16 0 -3
BITMAP
0100
0100
0100
0100
0100
0100
0100
0100
FFFE
0100
0100
0100
0100
0100
0100
0100
ENDCHAR
STARTCHAR 2541
ENCODING 9820
SWIDTH 1600 0
DWIDTH 16 0
BBX 15 16 0 -3
BITMAP
0100
0100
0100
0100
0100
0100
0100
0100
FFFE
0100
0100
0100
0100
0100
0100
0100
ENDCHAR
STARTCHAR 2543
ENCODING 9821
SWIDTH 1600 0
DWIDTH 16 0
BBX 15 16 1 -3
BITMAP
0100
0100
0100
0100
0100
0100
0100
0100
FFFE
0100
0100
0100
0100
0100
0100
0100
ENDCHAR
STARTCHAR 2544
ENCODING 9822
SWIDTH 1600 0
DWIDTH 16 0
BBX 15 16 0 -3
BITMAP
0100
0100
0100
0100
0100
0100
0100
0100
FFFE
0100
0100
0100
0100
0100
0100
0100
ENDCHAR
STARTCHAR 2545
ENCODING 9823
SWIDTH 1600 0
DWIDTH 16 0
BBX 15 16 0 -3
BITMAP
0100
0100
0100
0100
0100
0100
0100
0100
FFFE
0100
0100
0100
0100
0100
0100
0100
ENDCHAR
STARTCHAR 2546
ENCODING 9824
SWIDTH 1600 0
DWIDTH 16 0
BBX 15 16 0 -3
BITMAP
0100
0100
0100
0100
0100
0100
0100
0100
FFFE
0100
0100
0100
0100
0100
0100
0100
ENDCHAR
STARTCHAR 2547
ENCODING 9825
SWIDTH 1600 0
DWIDTH 16 0
BBX 15 16 1 -3
BITMAP
0100
0100
0100
0100
0100
0100
0100
0100
FFFE
0200
0200
0200
0200
0200
0200
0200
ENDCHAR
STARTCHAR 2548
ENCODING 9826
SWIDTH 1600 0
DWIDTH 16 0
BBX 15 16 1 -3
BITMAP
0100
0100
0100
0100
0100
0100
0100
0100
FFFE
0100
0100
0100
0100
0100
0100
0100
ENDCHAR
STARTCHAR 2549
ENCODING 9827
SWIDTH 1600 0
DWIDTH 16 0
BBX 15 16 0 -3
BITMAP
0100
0100
0100
0100
0100
0100
0100
0100
FFFE
0100
0100
0100
0100
0100
0100
0100
ENDCHAR
STARTCHAR 254A
ENCODING 9828
SWIDTH 1600 0
DWIDTH 16 0
BBX 15 16 0 -3
BITMAP
0100
0100
0100
0100
0100
0100
0100
0100
FFFE
0100
0100
0100
0100
0100
0100
0100
ENDCHAR
STARTCHAR 3395
ENCODING 10017
SWIDTH 1600 0
DWIDTH 16 0
BBX 16 14 0 -3
BITMAP
000C
000A
0012
0014
0894
1094
1198
2110
2131
2252
658A
5804
4000
C000
ENDCHAR
STARTCHAR 3396
ENCODING 10018
SWIDTH 1600 0
DWIDTH 16 0
BBX 15 12 1 -1
BITMAP
001C
0014
0024
0024
FE28
9228
9230
9220
9262
92A4
9214
0008
ENDCHAR
STARTCHAR 3397
ENCODING 10019
SWIDTH 1600 0
DWIDTH 16 0
BBX 14 12 1 -1
BITMAP
021C
0214
0224
0224
3A28
4628
8230
8220
8260
8224
4E18
3000
ENDCHAR
STARTCHAR 2113
ENCODING 10020
SWIDTH 1600 0
DWIDTH 16 0
BBX 7 12 4 -1
BITMAP
18
14
24
24
28
28
30
20
62
A4
14
08
ENDCHAR
STARTCHAR 3398
ENCODING 10021
SWIDTH 1600 0
DWIDTH 16 0
BBX 15 12 1 -1
BITMAP
C01C
4014
4024
4024
4028
4428
5830
6820
4462
4424
4214
0008
ENDCHAR
STARTCHAR 33C4
ENCODING 10022
SWIDTH 1600 0
DWIDTH 16 0
BBX 14 8 1 -1
BITMAP
387C
4444
8480
8080
8080
8084
4848
3030
ENDCHAR
STARTCHAR 33A3
ENCODING 10023
SWIDTH 1600 0
DWIDTH 16 0
BBX 14 12 1 0
BITMAP
0004
0004
0004
0014
0008
ECFC
94A4
94A4
94A4
94A4
94A4
94A4
ENDCHAR
STARTCHAR 33A4
ENCODING 10024
SWIDTH 1600 0
DWIDTH 16 0
BBX 13 13 1 -1
BITMAP
0018
0008
0008
0008
0000
79F8
4948
8148
8148
8148
4548
4948
3000
ENDCHAR
STARTCHAR 33A5
ENCODING 10025
SWIDTH 1600 0
DWIDTH 16 0
BBX 10 12 4 0
BITMAP
01C0
0080
0040
0140
0080
FF80
8880
8880
8880
8880
8880
8880
ENDCHAR
STARTCHAR 33A6
ENCODING 10026
SWIDTH 1600 0
DWIDTH 16 0
BBX 14 12 1 0
BITMAP
0018
4008
4008
4014
4C08
49D8
5128
7128
5928
4928
4928
C528
ENDCHAR
STARTCHAR 3399
ENCODING 10027
SWIDTH 1600 0
DWIDTH 16 0
BBX 12 12 2 0
BITMAP
3000
4000
4000
4000
F000
47F0
4490
4490
4490
4490
4490
4490
ENDCHAR
STARTCHAR 339A
ENCODING 10028
SWIDTH 1600 0
DWIDTH 16 0
BBX 15 7 0 0
BITMAP
CCFE
7292
4292
4292
4292
4292
4292
ENDCHAR
STARTCHAR 339B
ENCODING 10029
SWIDTH 1600 0
DWIDTH 16 0
BBX 15 10 0 -3
BITMAP
117E
134A
224A
224A
264A
444A
2B4A
5000
4000
8000
ENDCHAR
STARTCHAR 339C
ENCODING 10030
SWIDTH 1600 0
DWIDTH 16 0
BBX 14 7 1 0
BITMAP
ECFC
94A4
94A4
94A4
94A4
94A4
94BC
ENDCHAR
STARTCHAR 339D
ENCODING 10031
SWIDTH 1600 0
DWIDTH 16 0
BBX 15 8 0 -1
BITMAP
3CFE
4492
4092
8092
8092
4092
2892
1000
ENDCHAR
STARTCHAR 339E
ENCODING 10032
SWIDTH 1600 0
DWIDTH 16 0
BBX 13 11 2 0
BITMAP
8000
8000
8000
8000
83F8
B248
A248
E248
9248
9248
8A48
ENDCHAR
STARTCHAR 339F
ENCODING 10033
SWIDTH 1600 0
DWIDTH 16 0
BBX 14 12 1 0
BITMAP
0018
000C
0014
0018
0000
FCF8
94A8
94A8
94A8
94A8
94A8
94A8
ENDCHAR
STARTCHAR 33A0
ENCODING 10034
SWIDTH 1600 0
DWIDTH 16 0
BBX 14 13 1 -1
BITMAP
001C
0008
0010
0020
0018
79F8
4548
8148
8148
4148
4548
2948
1000
ENDCHAR
STARTCHAR 33A1
ENCODING 10035
SWIDTH 1600 0
DWIDTH 16 0
BBX 10 12 4 0
BITMAP
01C0
0040
0180
0240
0180
FF80
8880
8880
8880
8880
8880
8880
ENDCHAR
STARTCHAR 33A2
ENCODING 10036
SWIDTH 1600 0
DWIDTH 16 0
BBX 14 12 1 0
BITMAP
0018
C00C
4014
4018
4000
41F8
5948
5148
7148
4948
4948
4548
ENDCHAR
STARTCHAR 33CA
ENCODING 10037
SWIDTH 1600 0
DWIDTH 16 0
BBX 15 11 0 0
BITMAP
4000
4000
4000
4038
5C44
6244
421C
4264
4244
4244
E67E
ENDCHAR
STARTCHAR 338D
ENCODING 10038
SWIDTH 1600 0
DWIDTH 16 0
BBX 16 11 0 -4
BITMAP
089F
11A2
1122
2124
2238
2220
229E
5D63
4041
8026
0018
ENDCHAR
STARTCHAR 338E
ENCODING 10039
SWIDTH 1600 0
DWIDTH 16 0
BBX 15 10 1 -3
BITMAP
FE7E
9248
9288
9248
92B0
9280
9278
0084
0084
0088
ENDCHAR
STARTCHAR 338F
ENCODING 10040
SWIDTH 1600 0
DWIDTH 16 0
BBX 16 14 0 -3
BITMAP
4000
4000
4000
4000
4E3F
4844
5044
6828
4850
4440
C63C
0042
0082
004C
ENDCHAR
STARTCHAR 33CF
ENCODING 10041
SWIDTH 1600 0
DWIDTH 16 0
BBX 14 11 1 0
BITMAP
C000
4000
4000
4020
4038
4420
4820
5820
6820
4424
4218
ENDCHAR
STARTCHAR 3388
ENCODING 10042
SWIDTH 1600 0
DWIDTH 16 0
BBX 15 12 0 -1
BITMAP
0006
0002
0002
0002
78F2
4592
8012
80F2
8122
C522
48A2
3040
ENDCHAR
STARTCHAR 3389
ENCODING 10043
SWIDTH 1600 0
DWIDTH 16 0
BBX 15 12 0 -1
BITMAP
C002
4002
4002
4002
4BFA
52AA
540A
743A
544A
4C4A
4ADA
0120
ENDCHAR
STARTCHAR 33C8
ENCODING 10044
SWIDTH 1600 0
DWIDTH 16 0
BBX 16 12 0 -1
BITMAP
0CFC
0442
0442
0442
3442
4C7C
8442
8441
8441
8441
4C46
3038
ENDCHAR
STARTCHAR 33A7
ENCODING 10045
SWIDTH 1600 0
DWIDTH 16 0
BBX 14 14 1 -3
BITMAP
FE00
9204
9208
9210
9260
9280
0178
0288
04C0
0878
1008
2088
4048
0030
ENDCHAR
STARTCHAR 33A8
ENCODING 10046
SWIDTH 1600 0
DWIDTH 16 0
BBX 15 14 1 -3
BITMAP
EC00
9404
9408
9410
9424
9442
01C4
02BA
048C
0860
1010
2010
40D0
0020
ENDCHAR
STARTCHAR 33B0
ENCODING 10047
SWIDTH 1600 0
DWIDTH 16 0
BBX 13 10 1 -3
BITMAP
DCF8
6680
4240
4238
4208
4288
4448
7830
4000
4000
ENDCHAR
STARTCHAR 33B1
ENCODING 10048
SWIDTH 1600 0
DWIDTH 16 0
BBX 12 8 2 -1
BITMAP
BDF0
C500
8580
84E0
8410
8510
8590
0060
ENDCHAR
STARTCHAR 33B2
ENCODING 10049
SWIDTH 1600 0
DWIDTH 16 0
BBX 14 10 1 -3
BITMAP
1178
1144
3160
2238
2204
4444
6764
5818
8000
8000
ENDCHAR
STARTCHAR 33B3
ENCODING 10050
SWIDTH 1600 0
DWIDTH 16 0
BBX 13 8 2 -1
BITMAP
FEF0
9288
92C0
9230
9208
9288
92C8
0030
ENDCHAR
STARTCHAR 33B4
ENCODING 10051
SWIDTH 1600 0
DWIDTH 16 0
BBX 15 14 0 -3
BITMAP
03C6
0184
0084
DC84
6488
4248
4248
4248
4230
4230
7C10
4000
4000
C000
ENDCHAR
STARTCHAR 33B5
ENCODING 10052
SWIDTH 1600 0
DWIDTH 16 0
BBX 15 11 0 0
BITMAP
03C6
0084
0084
0084
CC48
7248
4248
4230
4230
4230
4200
ENDCHAR
STARTCHAR 33B6
ENCODING 10053
SWIDTH 1600 0
DWIDTH 16 0
BBX 16 14 0 -3
BITMAP
01C7
0082
0084
0044
10C4
1144
3128
2328
2218
4410
6710
5800
C000
8000
ENDCHAR
STARTCHAR 33B7
ENCODING 10054
SWIDTH 1600 0
DWIDTH 16 0
BBX 14 11 1 0
BITMAP
0104
0104
0108
0088
FE88
9290
9250
9250
9250
9220
9220
ENDCHAR
STARTCHAR 33B8
ENCODING 10055
SWIDTH 1600 0
DWIDTH 16 0
BBX 13 12 2 -1
BITMAP
0718
8210
8110
8110
8110
8920
90A0
A0A0
D0C0
8840
8840
0400
ENDCHAR
STARTCHAR 33B9
ENCODING 10056
SWIDTH 1600 0
DWIDTH 16 0
BBX 16 11 0 0
BITMAP
C377
4222
4622
6624
6A14
6A14
5A14
5A18
5A08
5208
4208
ENDCHAR
STARTCHAR 3380
ENCODING 10057
SWIDTH 1600 0
DWIDTH 16 0
BBX 13 13 1 -3
BITMAP
0020
0060
0060
DC90
6490
4290
42F0
4318
4308
4508
7800
4000
4000
ENDCHAR
STARTCHAR 3381
ENCODING 10058
SWIDTH 1600 0
DWIDTH 16 0
BBX 14 10 1 0
BITMAP
0020
0030
0050
BC50
C448
8488
84F8
8488
8504
85C4
ENDCHAR
STARTCHAR 3382
ENCODING 10059
SWIDTH 1600 0
DWIDTH 16 0
BBX 16 13 0 -3
BITMAP
0008
0018
0018
18A8
1124
3124
223C
2246
4442
6742
58E7
C000
8000
ENDCHAR
STARTCHAR 3383
ENCODING 10060
SWIDTH 1600 0
DWIDTH 16 0
BBX 14 10 1 0
BITMAP
0020
0030
0050
EC50
B450
A488
A4F8
A488
A48C
A504
ENDCHAR
STARTCHAR 3384
ENCODING 10061
SWIDTH 1600 0
DWIDTH 16 0
BBX 15 11 0 0
BITMAP
C000
4000
4018
4028
4628
4824
5044
703C
4844
4442
4602
ENDCHAR
STARTCHAR 33BA
ENCODING 10062
SWIDTH 1600 0
DWIDTH 16 0
BBX 15 14 1 -3
BITMAP
0EE6
0442
0464
0664
FA64
86A4
8694
8598
8598
8588
C908
B000
8000
8000
ENDCHAR
STARTCHAR 33BB
ENCODING 10063
SWIDTH 1600 0
DWIDTH 16 0
BBX 15 11 1 0
BITMAP
0EEE
0444
0464
02A4
FAA8
8AA8
8A98
8998
8998
8908
8800
ENDCHAR
STARTCHAR 33BC
ENCODING 10064
SWIDTH 1600 0
DWIDTH 16 0
BBX 15 14 0 -3
BITMAP
01B2
0092
0092
0092
11AC
13AC
326C
224C
244C
4444
6F40
5000
8000
8000
ENDCHAR
STARTCHAR 33BD
ENCODING 10065
SWIDTH 1600 0
DWIDTH 16 0
BBX 15 11 1 0
BITMAP
076E
0224
0124
0128
FD68
A558
A558
A598
A498
A490
A480
ENDCHAR
STARTCHAR 33BE
ENCODING 10066
SWIDTH 1600 0
DWIDTH 16 0
BBX 16 11 0 0
BITMAP
C3B7
4112
4092
4094
46B4
48AC
50CC
704C
484C
4448
4640
ENDCHAR
STARTCHAR 33BF
ENCODING 10067
SWIDTH 1600 0
DWIDTH 16 0
BBX 16 11 0 0
BITMAP
C3D9
424A
424A
664A
6A4A
6A5A
6A34
5A24
5A24
5224
4224
ENDCHAR
STARTCHAR 3390
ENCODING 10068
SWIDTH 1600 0
DWIDTH 16 0
BBX 16 11 0 0
BITMAP
E380
4100
4100
4100
413E
7F06
4104
4108
4111
4122
4146
ENDCHAR
STARTCHAR 3391
ENCODING 10069
SWIDTH 1600 0
DWIDTH 16 0
BBX 16 11 0 0
BITMAP
4770
4220
4220
4220
4E2F
4BF2
5232
7224
5228
4A29
CA2E
ENDCHAR
STARTCHAR 3392
ENCODING 10070
SWIDTH 1600 0
DWIDTH 16 0
BBX 16 11 0 0
BITMAP
C5F0
4D20
4D20
D520
B52F
B5EA
B522
B524
A524
A529
052A
ENDCHAR
STARTCHAR 3393
ENCODING 10071
SWIDTH 1600 0
DWIDTH 16 0
BBX 16 12 0 -1
BITMAP
6220
9220
8A20
8220
822F
83F2
9E32
8A24
8A24
8A28
DA29
277E
ENDCHAR
STARTCHAR 3394
ENCODING 10072
SWIDTH 1600 0
DWIDTH 16 0
BBX 16 11 0 0
BITMAP
FE20
2420
2420
2420
242F
27F2
2432
2424
2429
2429
263E
ENDCHAR
STARTCHAR 2126
ENCODING 10073
SWIDTH 1600 0
DWIDTH 16 0
BBX 12 11 2 0
BITMAP
0F00
31C0
6060
4060
4060
4060
2040
1080
8F10
8610
FFF0
ENDCHAR
STARTCHAR 33C0
ENCODING 10074
SWIDTH 1600 0
DWIDTH 16 0
BBX 16 11 0 0
BITMAP
C03C
40C2
4081
4081
4081
4481
5882
6864
4829
4529
46EF
ENDCHAR
STARTCHAR 33C1
ENCODING 10075
SWIDTH 1600 0
DWIDTH 16 0
BBX 16 11 0 0
BITMAP
C33C
4242
4281
6681
6A81
6A81
6A42
5A24
5A99
5299
42FF
ENDCHAR
STARTCHAR 338A
ENCODING 10076
SWIDTH 1600 0
DWIDTH 16 0
BBX 13 14 2 -3
BITMAP
03F8
0108
0100
0100
F900
85E0
8500
8500
8500
8500
C900
B380
8000
8000
ENDCHAR
STARTCHAR 338B
ENCODING 10077
SWIDTH 1600 0
DWIDTH 16 0
BBX 14 11 1 0
BITMAP
01FC
0084
0080
0080
D880
64F0
4480
4480
4480
4480
4480
ENDCHAR
STARTCHAR 338C
ENCODING 10078
SWIDTH 1600 0
DWIDTH 16 0
BBX 16 14 0 -3
BITMAP
007F
0021
0020
0020
08A0
11BC
1120
2120
2220
2220
6720
5800
4000
8000
ENDCHAR
STARTCHAR 33D6
ENCODING 10079
SWIDTH 1600 0
DWIDTH 16 0
BBX 15 12 1 -1
BITMAP
0004
0004
0004
ECC4
B524
A614
A614
A614
A614
A614
412E
00E0
ENDCHAR
STARTCHAR 33C5
ENCODING 10080
SWIDTH 1600 0
DWIDTH 16 0
BBX 14 12 1 -1
BITMAP
000C
0004
0004
0004
7804
88FC
8104
8104
8104
8104
488C
3070
ENDCHAR
STARTCHAR 33AD
ENCODING 10081
SWIDTH 1600 0
DWIDTH 16 0
BBX 14 11 1 0
BITMAP
0004
0004
0004
0004
FF3C
8944
8344
8544
8944
8924
8F1C
ENDCHAR
STARTCHAR 33AE
ENCODING 10082
SWIDTH 1600 0
DWIDTH 16 0
BBX 14 15 1 -3
BITMAP
0040
0040
01C0
FE40
8C40
B440
A640
1988
0030
00C0
033C
0C18
3004
4014
0008
ENDCHAR
STARTCHAR 33AF
ENCODING 10083
SWIDTH 1600 0
DWIDTH 16 0
BBX 14 14 1 -2
BITMAP
0040
0040
01C0
FE40
8C40
B440
A640
1980
003C
00C4
0168
0624
1810
6030
ENDCHAR
STARTCHAR 33DB
ENCODING 10084
SWIDTH 1600 0
DWIDTH 16 0
BBX 13 7 2 0
BITMAP
F8B8
80C0
C080
3080
0880
8880
D080
ENDCHAR
STARTCHAR 33A9
ENCODING 10085
SWIDTH 1600 0
DWIDTH 16 0
BBX 14 12 1 -1
BITMAP
F800
4600
4200
4200
42F0
4288
7C08
4078
4088
4108
409C
0060
ENDCHAR
STARTCHAR 33AA
ENCODING 10086
SWIDTH 1600 0
DWIDTH 16 0
BBX 16 12 0 -1
BITMAP
C3C0
4120
4120
4120
5D3E
5132
61C2
610E
5112
5112
4917
0008
ENDCHAR
STARTCHAR 33AB
ENCODING 10087
SWIDTH 1600 0
DWIDTH 16 0
BBX 15 11 0 0
BITMAP
CFC0
4920
5920
5920
593E
B932
B9C2
B90E
A912
A912
091E
ENDCHAR
STARTCHAR 33AC
ENCODING 10088
SWIDTH 1600 0
DWIDTH 16 0
BBX 15 12 0 -1
BITMAP
73C0
8A60
8A20
8220
823E
8232
9EC2
8B1E
8A12
8A12
5B16
2008
ENDCHAR
STARTCHAR 33DD
ENCODING 10089
SWIDTH 1600 0
DWIDTH 16 0
BBX 15 12 1 -1
BITMAP
90C0
9240
8A40
5A40
6C48
6C74
6C42
6C42
6C42
4842
0064
0018
ENDCHAR
STARTCHAR 33D0
ENCODING 10090
SWIDTH 1600 0
DWIDTH 16 0
BBX 11 11 2 0
BITMAP
C000
4000
4000
4000
47E0
4520
4520
4520
4520
4520
45E0
ENDCHAR
STARTCHAR 33D3
ENCODING 10091
SWIDTH 1600 0
DWIDTH 16 0
BBX 11 11 2 0
BITMAP
C000
4000
4000
4000
4420
4240
4380
4100
4280
4440
4C20
ENDCHAR
STARTCHAR 33C3
ENCODING 10092
SWIDTH 1600 0
DWIDTH 16 0
BBX 15 14 0 -3
BITMAP
FC00
4200
4300
4300
423E
7C42
4242
4142
4142
4342
4636
380A
0002
0002
ENDCHAR
STARTCHAR 33C9
ENCODING 10093
SWIDTH 1600 0
DWIDTH 16 0
BBX 14 14 1 -3
BITMAP
7000
4800
8400
8400
8084
8088
8E88
8450
8450
8420
4C20
3040
0040
0180
ENDCHAR
STARTCHAR 33DC
ENCODING 10094
SWIDTH 1600 0
DWIDTH 16 0
BBX 15 11 0 0
BITMAP
7C00
8200
8000
8000
70C2
1C44
0244
0128
0128
8210
7C10
ENDCHAR
STARTCHAR 33C6
ENCODING 10095
SWIDTH 1600 0
DWIDTH 16 0
BBX 16 14 0 -2
BITMAP
1000
6800
8480
8080
8100
8200
4C00
3500
097F
1192
214E
2138
4016
0012
ENDCHAR
STARTCHAR 00C6
ENCODING 10273
SWIDTH 1600 0
DWIDTH 16 0
BBX 15 11 0 0
BITMAP
01FE
0286
0480
0480
0888
08F8
0F88
1080
2080
4086
E1FE
ENDCHAR
STARTCHAR 00D0
ENCODING 10274
SWIDTH 1600 0
DWIDTH 16 0
BBX 10 11 3 0
BITMAP
7E00
2180
2080
2040
2040
F840
2040
2040
2080
2180
7E00
ENDCHAR
STARTCHAR 00AA
ENCODING 10275
SWIDTH 1600 0
DWIDTH 16 0
BBX 8 10 4 0
BITMAP
7E
22
02
3E
42
82
46
3B
00
FF
ENDCHAR
STARTCHAR 0126
ENCODING 10276
SWIDTH 1600 0
DWIDTH 16 0
BBX 12 11 2 0
BITMAP
F9F0
2040
FFF0
2040
2040
3FC0
2040
2040
2040
2040
F9F0
ENDCHAR
STARTCHAR 0132
ENCODING 10278
SWIDTH 1600 0
DWIDTH 16 0
BBX 12 12 2 -1
BITMAP
79F0
2040
2040
2040
2040
2040
2040
2040
2040
2040
FE80
0300
ENDCHAR
STARTCHAR 013F
ENCODING 10280
SWIDTH 1600 0
DWIDTH 16 0
BBX 10 11 3 0
BITMAP
F800
2000
2000
2000
2000
2200
2000
2000
2040
2080
7380
ENDCHAR
STARTCHAR 0141
ENCODING 10281
SWIDTH 1600 0
DWIDTH 16 0
BBX 9 11 3 0
BITMAP
F800
2000
2800
3000
2000
2000
6000
A000
2000
2080
7780
ENDCHAR
STARTCHAR 00D8
ENCODING 10282
SWIDTH 1600 0
DWIDTH 16 0
BBX 12 13 2 -1
BITMAP
0010
1F20
20C0
40A0
8120
8210
8210
8410
8820
5020
6020
70C0
8F00
ENDCHAR
STARTCHAR 0152
ENCODING 10283
SWIDTH 1600 0
DWIDTH 16 0
BBX 15 12 1 -1
BITMAP
1FFC
6104
4100
8100
8110
81F0
8110
8100
4102
4104
339C
0C60
ENDCHAR
STARTCHAR 00BA
ENCODING 10284
SWIDTH 1600 0
DWIDTH 16 0
BBX 8 11 4 0
BITMAP
3C
66
42
42
42
42
66
3C
00
00
FF
ENDCHAR
STARTCHAR 00DE
ENCODING 10285
SWIDTH 1600 0
DWIDTH 16 0
BBX 10 11 3 0
BITMAP
F000
2000
3F00
2080
2040
2040
2040
20C0
3F80
2000
E000
ENDCHAR
STARTCHAR 0166
ENCODING 10286
SWIDTH 1600 0
DWIDTH 16 0
BBX 11 11 2 0
BITMAP
7FC0
C460
8420
0400
0400
3F80
0400
0400
0400
0400
1F00
ENDCHAR
STARTCHAR 014A
ENCODING 10287
SWIDTH 1600 0
DWIDTH 16 0
BBX 8 12 4 -1
BITMAP
DE
61
41
41
41
41
41
41
49
59
EA
04
ENDCHAR
STARTCHAR 3260
ENCODING 10289
SWIDTH 1600 0
DWIDTH 16 0
BBX 15 14 1 -2
BITMAP
07C0
1830
2008
4004
FFE6
8022
8022
8022
8022
C026
4024
2028
1830
07C0
ENDCHAR
STARTCHAR 3261
ENCODING 10290
SWIDTH 1600 0
DWIDTH 16 0
BBX 15 15 1 -3
BITMAP
07C0
1830
2008
4004
4004
9802
8802
8802
8802
8802
47F4
4004
2008
1830
07C0
ENDCHAR
STARTCHAR 3262
ENCODING 10291
SWIDTH 1600 0
DWIDTH 16 0
BBX 14 15 1 -3
BITMAP
0FC0
1860
2010
4008
4FE8
8804
8804
8804
8804
8804
4FF8
4008
2010
1860
0FC0
ENDCHAR
STARTCHAR 3263
ENCODING 10292
SWIDTH 1600 0
DWIDTH 16 0
BBX 14 15 1 -3
BITMAP
0FC0
1860
2010
4008
4FE8
8024
8024
8FE4
8804
8804
CFFC
4008
2010
1860
0FC0
ENDCHAR
STARTCHAR 3264
ENCODING 10293
SWIDTH 1600 0
DWIDTH 16 0
BBX 14 15 1 -3
BITMAP
0FC0
1860
2010
4008
5FE8
8824
8824
8844
8844
8FE4
4808
4008
2010
1860
0FC0
ENDCHAR
STARTCHAR 3265
ENCODING 10294
SWIDTH 1600 0
DWIDTH 16 0
BBX 14 15 1 -3
BITMAP
0FC0
1860
2010
4048
4828
8824
8FE4
8824
8824
8FE4
4828
4008
2010
1860
0FC0
ENDCHAR
STARTCHAR 3266
ENCODING 10295
SWIDTH 1600 0
DWIDTH 16 0
BBX 14 15 1 -3
BITMAP
0FC0
1860
2010
4208
4188
8104
8304
8484
8864
9034
4008
4008
2010
1860
0FC0
ENDCHAR
STARTCHAR 3267
ENCODING 10296
SWIDTH 1600 0
DWIDTH 16 0
BBX 14 15 1 -3
BITMAP
0FC0
1860
2010
4108
4788
8864
9024
9024
9024
8844
4788
4008
2010
1860
0FC0
ENDCHAR
STARTCHAR 3268
ENCODING 10297
SWIDTH 1600 0
DWIDTH 16 0
BBX 14 15 1 -3
BITMAP
0FC0
1860
2010
4008
5FE8
8844
8044
8084
8184
8664
5838
4008
2010
1860
0FC0
ENDCHAR
STARTCHAR 3269
ENCODING 10298
SWIDTH 1600 0
DWIDTH 16 0
BBX 14 15 1 -3
BITMAP
0FC0
1860
2410
4388
4048
9FE4
8844
8084
8104
86E4
5838
4008
2010
1860
0FC0
ENDCHAR
STARTCHAR 326A
ENCODING 10299
SWIDTH 1600 0
DWIDTH 16 0
BBX 14 15 1 -3
BITMAP
0FC0
1860
2010
4028
5FF8
8024
8024
A3E4
9C24
8044
4048
4088
2110
1860
0FC0
ENDCHAR
STARTCHAR 326B
ENCODING 10300
SWIDTH 1600 0
DWIDTH 16 0
BBX 14 15 1 -3
BITMAP
0FC0
1860
2010
4008
4FE8
8804
8804
8FE4
8804
8804
4FF8
4008
2010
1860
0FC0
ENDCHAR
STARTCHAR 326C
ENCODING 10301
SWIDTH 1600 0
DWIDTH 16 0
BBX 14 15 1 -3
BITMAP
0FC0
1860
2010
4008
5FF8
88C4
8484
8484
8504
81F4
7E08
4008
2010
1860
0FC0
ENDCHAR
STARTCHAR 326D
ENCODING 10302
SWIDTH 1600 0
DWIDTH 16 0
BBX 14 15 1 -3
BITMAP
0FC0
1860
2010
4788
4008
80F4
BF04
8784
8844
8844
4848
4788
2010
1860
0FC0
ENDCHAR
STARTCHAR 326E
ENCODING 10303
SWIDTH 1600 0
DWIDTH 16 0
BBX 14 15 1 -3
BITMAP
0FC0
1860
20D0
4048
7F48
8244
8244
847C
8844
B044
4048
4048
2050
1860
0FC0
ENDCHAR
STARTCHAR 326F
ENCODING 10304
SWIDTH 1600 0
DWIDTH 16 0
BBX 14 15 1 -3
BITMAP
0FC0
1860
20D0
4048
7048
9044
9044
907C
91C4
9E44
4048
4048
2050
1860
0FC0
ENDCHAR
STARTCHAR 3270
ENCODING 10305
SWIDTH 1600 0
DWIDTH 16 0
BBX 14 15 1 -3
BITMAP
0FC0
1860
20D0
4048
7F48
9044
9044
907C
90C4
9F44
4048
4048
2050
1860
0FC0
ENDCHAR
STARTCHAR 3271
ENCODING 10306
SWIDTH 1600 0
DWIDTH 16 0
BBX 14 15 1 -3
BITMAP
0FC0
1860
2090
4048
5F48
8244
BF44
907C
9044
9F44
4048
4048
2050
1860
0FC0
ENDCHAR
STARTCHAR 3272
ENCODING 10307
SWIDTH 1600 0
DWIDTH 16 0
BBX 14 15 1 -3
BITMAP
0FC0
1860
2090
4048
4048
9F44
9244
927C
9E44
9044
4048
4048
2050
1860
0FC0
ENDCHAR
STARTCHAR 3273
ENCODING 10308
SWIDTH 1600 0
DWIDTH 16 0
BBX 14 15 1 -3
BITMAP
0FC0
1860
20D0
4448
6248
A244
BE44
A27C
A244
BE44
6048
4048
2050
1860
0FC0
ENDCHAR
STARTCHAR 3274
ENCODING 10309
SWIDTH 1600 0
DWIDTH 16 0
BBX 14 15 1 -3
BITMAP
0FC0
1860
20D0
4048
4648
8444
8844
8E7C
9144
A044
4048
4048
2050
1860
0FC0
ENDCHAR
STARTCHAR 3275
ENCODING 10310
SWIDTH 1600 0
DWIDTH 16 0
BBX 14 15 1 -3
BITMAP
0FC0
1860
2090
4848
5E48
A244
A144
A17C
A244
9E44
4048
4048
2050
1860
0FC0
ENDCHAR
STARTCHAR 3276
ENCODING 10311
SWIDTH 1600 0
DWIDTH 16 0
BBX 14 15 1 -3
BITMAP
0FC0
1860
2090
4048
4348
9E44
8444
8C7C
9B44
A044
4048
4048
2050
1860
0FC0
ENDCHAR
STARTCHAR 3277
ENCODING 10312
SWIDTH 1600 0
DWIDTH 16 0
BBX 14 15 1 -3
BITMAP
0FC0
1860
20D0
4848
4448
BF44
8244
847C
8A44
9144
4048
4048
2050
1860
0FC0
ENDCHAR
STARTCHAR 3278
ENCODING 10313
SWIDTH 1600 0
DWIDTH 16 0
BBX 14 15 1 -3
BITMAP
0FC0
1860
20D0
4048
7F48
8244
8E44
947C
8444
8844
5048
4048
2050
1860
0FC0
ENDCHAR
STARTCHAR 3279
ENCODING 10314
SWIDTH 1600 0
DWIDTH 16 0
BBX 14 15 1 -3
BITMAP
0FC0
1860
2090
4048
6248
9C44
9244
9C7C
90C4
9F44
4048
4048
2050
1860
0FC0
ENDCHAR
STARTCHAR 327A
ENCODING 10315
SWIDTH 1600 0
DWIDTH 16 0
BBX 14 15 1 -3
BITMAP
0FC0
1860
20D0
4048
7F48
8044
9244
9474
85C4
FA44
4048
4048
2050
1860
0FC0
ENDCHAR
STARTCHAR 327B
ENCODING 10316
SWIDTH 1600 0
DWIDTH 16 0
BBX 14 15 1 -3
BITMAP
0FC0
1860
20D0
5848
4448
FF44
9E44
9174
A144
9144
5E48
4048
2050
1860
0FC0
ENDCHAR
STARTCHAR 24D0
ENCODING 10317
SWIDTH 1600 0
DWIDTH 16 0
BBX 14 15 1 -3
BITMAP
0FC0
1860
2010
4008
4708
8884
8084
8784
8884
8884
4F48
4008
2010
1860
0FC0
ENDCHAR
STARTCHAR 24D1
ENCODING 10318
SWIDTH 1600 0
DWIDTH 16 0
BBX 14 15 1 -3
BITMAP
0FC0
1860
2410
4408
4408
8484
8744
8424
8424
8424
4428
4648
2190
1860
0FC0
ENDCHAR
STARTCHAR 24D2
ENCODING 10319
SWIDTH 1600 0
DWIDTH 16 0
BBX 14 15 1 -3
BITMAP
0FC0
1860
2010
4008
4788
8884
8804
8804
8804
8444
4388
4008
2010
1860
0FC0
ENDCHAR
STARTCHAR 24D3
ENCODING 10320
SWIDTH 1600 0
DWIDTH 16 0
BBX 14 15 1 -3
BITMAP
0FC0
1860
2090
4088
4088
8084
8F84
9084
9084
9084
5088
4988
2650
1860
0FC0
ENDCHAR
STARTCHAR 24D4
ENCODING 10321
SWIDTH 1600 0
DWIDTH 16 0
BBX 14 15 1 -3
BITMAP
0FC0
1860
2010
4008
4788
8844
8FC4
8804
8804
8444
4388
4008
2010
1860
0FC0
ENDCHAR
STARTCHAR 24D5
ENCODING 10322
SWIDTH 1600 0
DWIDTH 16 0
BBX 14 15 1 -3
BITMAP
0FC0
1860
2090
4388
4208
8204
8784
8204
8204
8204
4208
4208
2710
1860
0FC0
ENDCHAR
STARTCHAR 24D6
ENCODING 10323
SWIDTH 1600 0
DWIDTH 16 0
BBX 14 15 1 -3
BITMAP
0FC0
1860
2010
47E8
44C8
8844
8884
8504
8E04
89C4
4848
4FC8
2010
1860
0FC0
ENDCHAR
STARTCHAR 24D7
ENCODING 10324
SWIDTH 1600 0
DWIDTH 16 0
BBX 14 15 1 -3
BITMAP
0FC0
1860
2010
4408
4408
8404
85C4
8644
8444
8444
4448
4448
2010
1860
0FC0
ENDCHAR
STARTCHAR 24D8
ENCODING 10325
SWIDTH 1600 0
DWIDTH 16 0
BBX 14 15 1 -3
BITMAP
0FC0
1860
2310
4008
4008
8104
8104
8104
8104
8104
4108
4388
2010
1860
0FC0
ENDCHAR
STARTCHAR 24D9
ENCODING 10326
SWIDTH 1600 0
DWIDTH 16 0
BBX 14 15 1 -3
BITMAP
0FC0
1960
2010
4008
4008
8304
8104
8104
8104
8104
4108
4108
2610
1860
0FC0
ENDCHAR
STARTCHAR 24DA
ENCODING 10327
SWIDTH 1600 0
DWIDTH 16 0
BBX 14 15 1 -3
BITMAP
0FC0
1860
2C10
4408
4408
8404
8444
8584
8504
8684
4448
4E68
2010
1860
0FC0
ENDCHAR
STARTCHAR 24DB
ENCODING 10328
SWIDTH 1600 0
DWIDTH 16 0
BBX 14 15 1 -3
BITMAP
0FC0
1860
2110
4108
4108
8104
8104
8104
8104
8104
4108
4108
2010
1860
0FC0
ENDCHAR
STARTCHAR 24DC
ENCODING 10329
SWIDTH 1600 0
DWIDTH 16 0
BBX 14 15 1 -3
BITMAP
0FC0
1860
2010
4008
7778
9994
9114
9114
9114
9114
4008
4008
2010
1860
0FC0
ENDCHAR
STARTCHAR 24DD
ENCODING 10330
SWIDTH 1600 0
DWIDTH 16 0
BBX 14 15 1 -3
BITMAP
0FC0
1860
2010
4008
5B88
8C44
8844
8844
8844
8844
4008
4008
2010
1860
0FC0
ENDCHAR
STARTCHAR 24DE
ENCODING 10331
SWIDTH 1600 0
DWIDTH 16 0
BBX 14 15 1 -3
BITMAP
0FC0
1860
2010
4008
4788
8484
8844
8844
8844
8484
4788
4008
2010
1860
0FC0
ENDCHAR
STARTCHAR 24DF
ENCODING 10332
SWIDTH 1600 0
DWIDTH 16 0
BBX 14 15 1 -3
BITMAP
0FC0
1860
2010
4588
4648
8424
8424
8424
8464
8784
4408
4408
2010
1860
0FC0
ENDCHAR
STARTCHAR 24E0
ENCODING 10333
SWIDTH 1600 0
DWIDTH 16 0
BBX 14 15 1 -3
BITMAP
0FC0
1860
2010
4F88
5088
9084
9084
9084
8884
8784
4088
41C8
2010
1860
0FC0
ENDCHAR
STARTCHAR 24E1
ENCODING 10334
SWIDTH 1600 0
DWIDTH 16 0
BBX 14 15 1 -3
BITMAP
0FC0
1860
2010
4008
4248
83C4
8204
8204
8204
8204
4708
4008
2010
1860
0FC0
ENDCHAR
STARTCHAR 24E2
ENCODING 10335
SWIDTH 1600 0
DWIDTH 16 0
BBX 14 15 1 -3
BITMAP
0FC0
1860
2010
4008
4788
8444
8404
8384
8844
8444
4388
4008
2010
1860
0FC0
ENDCHAR
STARTCHAR 24E3
ENCODING 10336
SWIDTH 1600 0
DWIDTH 16 0
BBX 14 15 1 -3
BITMAP
0FC0
1860
2010
4208
4208
8784
8204
8204
8204
8204
4208
4388
2010
1860
0FC0
ENDCHAR
STARTCHAR 24E4
ENCODING 10337
SWIDTH 1600 0
DWIDTH 16 0
BBX 14 15 1 -3
BITMAP
0FC0
1860
2010
4008
4848
8844
8844
8844
8844
8844
47E8
4008
2010
1860
0FC0
ENDCHAR
STARTCHAR 24E5
ENCODING 10338
SWIDTH 1600 0
DWIDTH 16 0
BBX 14 15 1 -3
BITMAP
0FC0
1860
2010
4008
5CE8
8484
8484
8484
8304
8304
4008
4008
2010
1860
0FC0
ENDCHAR
STARTCHAR 24E6
ENCODING 10339
SWIDTH 1600 0
DWIDTH 16 0
BBX 14 15 1 -3
BITMAP
0FC0
1860
2010
4008
4008
9104
9124
8B24
8CC4
8CC4
4408
4008
2010
1860
0FC0
ENDCHAR
STARTCHAR 24E7
ENCODING 10340
SWIDTH 1600 0
DWIDTH 16 0
BBX 14 15 1 -3
BITMAP
0FC0
1860
2010
4008
4EE8
8484
8304
8104
8684
8484
4CE8
4008
2010
1860
0FC0
ENDCHAR
STARTCHAR 24E8
ENCODING 10341
SWIDTH 1600 0
DWIDTH 16 0
BBX 14 15 1 -3
BITMAP
0FC0
1860
2010
4EE8
4448
8484
8284
8304
8104
8104
4208
4C08
2010
1860
0FC0
ENDCHAR
STARTCHAR 24E9
ENCODING 10342
SWIDTH 1600 0
DWIDTH 16 0
BBX 14 15 1 -3
BITMAP
0FC0
1860
2010
4008
47C8
8084
8104
8204
8404
8444
4F88
4008
2010
1860
0FC0
ENDCHAR
STARTCHAR 2460
ENCODING 10343
SWIDTH 1600 0
DWIDTH 16 0
BBX 14 15 1 -3
BITMAP
0FC0
1860
2610
4208
4208
8204
8204
8204
8204
8204
4208
4F88
2010
1860
0FC0
ENDCHAR
STARTCHAR 2461
ENCODING 10344
SWIDTH 1600 0
DWIDTH 16 0
BBX 14 14 1 -3
BITMAP
0FC0
1860
2790
4C48
C04C
8084
8104
8204
8404
C84C
4FC8
2010
1860
0FC0
ENDCHAR
STARTCHAR 2462
ENCODING 10345
SWIDTH 1600 0
DWIDTH 16 0
BBX 14 15 1 -3
BITMAP
0FC0
1860
2390
4448
4448
8044
8084
8184
8044
8044
4848
4888
2710
1860
0FC0
ENDCHAR
STARTCHAR 2463
ENCODING 10346
SWIDTH 1600 0
DWIDTH 16 0
BBX 14 15 1 -3
BITMAP
0FC0
1860
2110
4108
4308
8504
8904
8904
9104
9FC4
4108
4108
2010
1860
0FC0
ENDCHAR
STARTCHAR 2464
ENCODING 10347
SWIDTH 1600 0
DWIDTH 16 0
BBX 14 15 1 -3
BITMAP
0FC0
3870
2F90
4808
C80C
8804
8B04
8C84
8044
8044
4848
4888
2890
1F60
0FC0
ENDCHAR
STARTCHAR 2465
ENCODING 10348
SWIDTH 1600 0
DWIDTH 16 0
BBX 14 15 1 -3
BITMAP
0FC0
1860
2010
4388
4448
8804
8804
8F84
8844
8844
4848
44C8
2390
1860
0FC0
ENDCHAR
STARTCHAR 2466
ENCODING 10349
SWIDTH 1600 0
DWIDTH 16 0
BBX 14 15 1 -3
BITMAP
0FC0
1860
2010
4FC8
4848
8884
8104
8104
8104
8204
4208
4208
2610
1860
0FC0
ENDCHAR
STARTCHAR 2467
ENCODING 10350
SWIDTH 1600 0
DWIDTH 16 0
BBX 14 15 1 -3
BITMAP
0FC0
1860
2790
4CC8
4848
8884
8504
8384
8C44
8844
4848
4C48
2790
1860
0FC0
ENDCHAR
STARTCHAR 2468
ENCODING 10351
SWIDTH 1600 0
DWIDTH 16 0
BBX 14 15 1 -3
BITMAP
0FC0
1860
2710
4488
4848
8844
8844
89C4
8644
8044
4488
4508
2210
1860
0FC0
ENDCHAR
STARTCHAR 2469
ENCODING 10352
SWIDTH 1600 0
DWIDTH 16 0
BBX 14 15 1 -3
BITMAP
0FC0
1860
2010
4068
5898
890C
890C
890C
890C
890C
4898
5E68
2010
1860
0FC0
ENDCHAR
STARTCHAR 246A
ENCODING 10353
SWIDTH 1600 0
DWIDTH 16 0
BBX 14 15 1 -3
BITMAP
0FC0
1860
2010
4008
58C8
8844
8844
8844
8844
8844
4848
5EF8
2010
1860
0FC0
ENDCHAR
STARTCHAR 246B
ENCODING 10354
SWIDTH 1600 0
DWIDTH 16 0
BBX 14 15 1 -3
BITMAP
0FC0
1860
2010
40F8
5898
8814
8824
8844
8884
8904
48F8
5E08
2010
1860
0FC0
ENDCHAR
STARTCHAR 246C
ENCODING 10355
SWIDTH 1600 0
DWIDTH 16 0
BBX 14 15 1 -3
BITMAP
0FC0
1860
2010
4008
59E8
8814
8824
88E4
8814
8914
4918
5EE8
2010
1860
0FC0
ENDCHAR
STARTCHAR 246D
ENCODING 10356
SWIDTH 1600 0
DWIDTH 16 0
BBX 14 15 1 -3
BITMAP
0FC0
1860
2030
4028
5868
88A4
88A4
8924
89F4
8824
4828
5E78
2010
1860
0FC0
ENDCHAR
STARTCHAR 246E
ENCODING 10357
SWIDTH 1600 0
DWIDTH 16 0
BBX 14 15 1 -3
BITMAP
0FC0
1860
2010
49F8
5908
8904
89E4
8814
8814
8914
4928
44C8
2010
1860
0FC0
ENDCHAR
STARTCHAR 00BD
ENCODING 10358
SWIDTH 1600 0
DWIDTH 16 0
BBX 12 13 2 -2
BITMAP
4000
4060
4040
4080
4100
4200
05E0
0910
1020
2040
4080
8110
81E0
ENDCHAR
STARTCHAR 2153
ENCODING 10359
SWIDTH 1600 0
DWIDTH 16 0
BBX 12 14 2 -3
BITMAP
4000
4060
4080
4080
4100
4200
04C0
0920
1120
2040
4030
8110
8120
00C0
ENDCHAR
STARTCHAR 2154
ENCODING 10360
SWIDTH 1600 0
DWIDTH 16 0
BBX 12 15 2 -3
BITMAP
F000
8810
1020
2040
4080
8900
FA00
0460
0990
0810
1060
2010
4110
8110
00E0
ENDCHAR
STARTCHAR 00BC
ENCODING 10361
SWIDTH 1600 0
DWIDTH 16 0
BBX 11 14 2 -2
BITMAP
2000
2000
2020
2040
2080
2100
2200
0440
08C0
1140
2240
2440
47E0
8040
ENDCHAR
STARTCHAR 00BE
ENCODING 10362
SWIDTH 1600 0
DWIDTH 16 0
BBX 12 13 2 -2
BITMAP
F810
8820
1040
0880
8900
8900
7240
04C0
0940
1240
2440
47E0
0040
ENDCHAR
STARTCHAR 215B
ENCODING 10363
SWIDTH 1600 0
DWIDTH 16 0
BBX 12 14 2 -3
BITMAP
2000
2020
2040
2080
2100
2200
0440
09B0
1110
20E0
2110
4110
8110
00E0
ENDCHAR
STARTCHAR 215C
ENCODING 10364
SWIDTH 1600 0
DWIDTH 16 0
BBX 12 14 2 -3
BITMAP
F810
8820
1040
0880
8900
8A00
7440
05B0
0910
10E0
2110
4110
8110
00E0
ENDCHAR
STARTCHAR 215D
ENCODING 10365
SWIDTH 1600 0
DWIDTH 16 0
BBX 12 14 2 -2
BITMAP
F800
8010
8020
F840
0880
8900
9200
63F0
0510
0910
10A0
2150
4210
0120
ENDCHAR
STARTCHAR 215E
ENCODING 10366
SWIDTH 1600 0
DWIDTH 16 0
BBX 12 15 2 -3
BITMAP
6000
9800
1060
1040
1080
2100
2200
04E0
0910
1110
20E0
4110
8110
8110
00E0
ENDCHAR
STARTCHAR 00E6
ENCODING 10529
SWIDTH 1600 0
DWIDTH 16 0
BBX 12 9 2 -1
BITMAP
39C0
4620
4610
07F0
3C00
4400
C620
5BC0
2000
ENDCHAR
STARTCHAR 0111
ENCODING 10530
SWIDTH 1600 0
DWIDTH 16 0
BBX 9 12 4 -1
BITMAP
0600
0200
1F80
0200
3A00
4600
8200
8200
8200
8200
6600
1800
ENDCHAR
STARTCHAR 00F0
ENCODING 10531
SWIDTH 1600 0
DWIDTH 16 0
BBX 7 11 4 -1
BITMAP
20
18
28
04
7C
82
82
82
82
44
38
ENDCHAR
STARTCHAR 0127
ENCODING 10532
SWIDTH 1600 0
DWIDTH 16 0
BBX 8 11 3 0
BITMAP
20
20
FC
20
2E
31
21
21
21
21
21
ENDCHAR
STARTCHAR 0131
ENCODING 10533
SWIDTH 1600 0
DWIDTH 16 0
BBX 2 7 7 0
BITMAP
C0
40
40
40
40
40
40
ENDCHAR
STARTCHAR 0133
ENCODING 10534
SWIDTH 1600 0
DWIDTH 16 0
BBX 7 13 4 -2
BITMAP
42
42
00
00
C6
42
42
42
42
42
42
2A
0C
ENDCHAR
STARTCHAR 0138
ENCODING 10535
SWIDTH 1600 0
DWIDTH 16 0
BBX 6 7 5 0
BITMAP
8C
90
A0
F0
90
88
8C
ENDCHAR
STARTCHAR 0140
ENCODING 10536
SWIDTH 1600 0
DWIDTH 16 0
BBX 5 11 6 0
BITMAP
80
80
80
80
80
88
88
80
80
80
80
ENDCHAR
STARTCHAR 0142
ENCODING 10537
SWIDTH 1600 0
DWIDTH 16 0
BBX 5 11 6 0
BITMAP
60
20
28
30
20
20
60
A0
20
20
70
ENDCHAR
STARTCHAR 00F8
ENCODING 10538
SWIDTH 1600 0
DWIDTH 16 0
BBX 8 9 4 -1
BITMAP
18
66
86
89
91
A3
42
A4
18
ENDCHAR
STARTCHAR 0153
ENCODING 10539
SWIDTH 1600 0
DWIDTH 16 0
BBX 12 8 2 -1
BITMAP
7DE0
8210
83F0
8200
8200
8300
4DA0
3040
ENDCHAR
STARTCHAR 00DF
ENCODING 10540
SWIDTH 1600 0
DWIDTH 16 0
BBX 8 12 4 -1
BITMAP
3C
66
42
42
42
4C
42
43
41
41
5A
EE
ENDCHAR
STARTCHAR 00FE
ENCODING 10541
SWIDTH 1600 0
DWIDTH 16 0
BBX 8 12 4 -2
BITMAP
C0
40
40
7C
42
41
41
41
41
66
58
C0
ENDCHAR
STARTCHAR 0167
ENCODING 10542
SWIDTH 1600 0
DWIDTH 16 0
BBX 4 11 6 0
BITMAP
40
40
40
F0
40
40
40
40
40
40
70
ENDCHAR
STARTCHAR 014B
ENCODING 10543
SWIDTH 1600 0
DWIDTH 16 0
BBX 7 10 4 -3
BITMAP
FC
42
42
42
42
42
42
12
12
0C
ENDCHAR
STARTCHAR 0149
ENCODING 10544
SWIDTH 1600 0
DWIDTH 16 0
BBX 8 10 3 0
BITMAP
40
C0
80
37
19
11
11
11
11
11
ENDCHAR
STARTCHAR 3200
ENCODING 10545
SWIDTH 1600 0
DWIDTH 16 0
BBX 15 12 0 -2
BITMAP
6008
4004
8FF4
8012
8012
8012
8012
8012
4014
4014
2008
0010
ENDCHAR
STARTCHAR 3201
ENCODING 10546
SWIDTH 1600 0
DWIDTH 16 0
BBX 15 12 0 -2
BITMAP
2008
4004
4804
8402
8402
8402
8402
841A
87E4
4004
4008
2010
ENDCHAR
STARTCHAR 3202
ENCODING 10547
SWIDTH 1600 0
DWIDTH 16 0
BBX 15 12 0 -2
BITMAP
6008
4004
87F4
8402
8402
8402
8402
8402
47FC
4004
2008
0010
ENDCHAR
STARTCHAR 3203
ENCODING 10548
SWIDTH 1600 0
DWIDTH 16 0
BBX 15 12 0 -2
BITMAP
6008
4004
8FF4
8012
8022
87F2
8402
8402
47FC
4004
2008
0010
ENDCHAR
STARTCHAR 3204
ENCODING 10549
SWIDTH 1600 0
DWIDTH 16 0
BBX 15 12 0 -2
BITMAP
6008
4004
8004
8FF2
8412
8412
8422
87F2
4404
4004
2008
0010
ENDCHAR
STARTCHAR 3205
ENCODING 10550
SWIDTH 1600 0
DWIDTH 16 0
BBX 15 12 0 -2
BITMAP
6008
4024
8414
8412
87F2
8412
8412
8412
47F4
4414
2008
0010
ENDCHAR
STARTCHAR 3206
ENCODING 10551
SWIDTH 1600 0
DWIDTH 16 0
BBX 15 12 0 -2
BITMAP
6008
4104
80C4
8082
8182
8342
8232
8C1A
4004
4004
2008
0010
ENDCHAR
STARTCHAR 3207
ENCODING 10552
SWIDTH 1600 0
DWIDTH 16 0
BBX 15 11 0 -1
BITMAP
6008
4184
87E4
8C32
8812
8812
8812
8422
43C4
4004
2008
ENDCHAR
STARTCHAR 3208
ENCODING 10553
SWIDTH 1600 0
DWIDTH 16 0
BBX 15 12 0 -2
BITMAP
6008
4004
8FF4
8422
8042
80C2
8182
8272
4C14
4004
2008
0010
ENDCHAR
STARTCHAR 3209
ENCODING 10554
SWIDTH 1600 0
DWIDTH 16 0
BBX 15 12 0 -2
BITMAP
6008
41C4
8004
8002
8FE2
8042
8082
8362
4C14
4004
2008
0010
ENDCHAR
STARTCHAR 320A
ENCODING 10555
SWIDTH 1600 0
DWIDTH 16 0
BBX 15 12 0 -2
BITMAP
6008
4004
8FF4
8412
8012
81F2
8E22
8022
4024
4044
2088
0010
ENDCHAR
STARTCHAR 320B
ENCODING 10556
SWIDTH 1600 0
DWIDTH 16 0
BBX 15 12 0 -2
BITMAP
6008
4004
87F4
8402
8422
87F2
8402
8402
47FC
4004
2008
0010
ENDCHAR
STARTCHAR 320C
ENCODING 10557
SWIDTH 1600 0
DWIDTH 16 0
BBX 15 12 0 -2
BITMAP
2008
4004
4FFC
8002
8022
8242
8242
8082
9FFC
4004
4008
2010
ENDCHAR
STARTCHAR 320D
ENCODING 10558
SWIDTH 1600 0
DWIDTH 16 0
BBX 15 12 0 -2
BITMAP
6008
43C4
8004
80FA
9F82
83C2
8422
8422
4424
43C4
2008
0010
ENDCHAR
STARTCHAR 320E
ENCODING 10559
SWIDTH 1600 0
DWIDTH 16 0
BBX 15 12 0 -2
BITMAP
6028
4024
9FA4
80A2
8122
823E
8422
8822
4024
4024
2028
0010
ENDCHAR
STARTCHAR 320F
ENCODING 10560
SWIDTH 1600 0
DWIDTH 16 0
BBX 15 12 0 -2
BITMAP
6028
4024
9824
8822
8822
883E
8862
8FA2
4024
4024
2028
0010
ENDCHAR
STARTCHAR 3210
ENCODING 10561
SWIDTH 1600 0
DWIDTH 16 0
BBX 15 12 0 -2
BITMAP
6028
4024
8FA4
8822
8822
883E
8862
8FA2
4024
4024
2028
0010
ENDCHAR
STARTCHAR 3211
ENCODING 10562
SWIDTH 1600 0
DWIDTH 16 0
BBX 15 12 0 -2
BITMAP
6028
4024
9FA4
80A2
8122
8FBE
8822
8822
4BA4
4C24
2028
0010
ENDCHAR
STARTCHAR 3212
ENCODING 10563
SWIDTH 1600 0
DWIDTH 16 0
BBX 15 12 0 -2
BITMAP
6028
4024
9FA4
88A2
88A2
893E
8FA2
8022
4024
4024
2028
0010
ENDCHAR
STARTCHAR 3213
ENCODING 10564
SWIDTH 1600 0
DWIDTH 16 0
BBX 15 12 0 -2
BITMAP
6028
4224
8924
8922
8F22
893E
8922
8F22
4824
4024
2028
0010
ENDCHAR
STARTCHAR 3214
ENCODING 10565
SWIDTH 1600 0
DWIDTH 16 0
BBX 15 12 0 -2
BITMAP
6028
4024
8324
8222
8422
873E
88A2
9022
4024
4024
2028
0010
ENDCHAR
STARTCHAR 3215
ENCODING 10566
SWIDTH 1600 0
DWIDTH 16 0
BBX 15 13 0 -2
BITMAP
0040
6028
4424
8F24
91A2
90A2
90BA
91A2
8F22
4024
4024
2028
0010
ENDCHAR
STARTCHAR 3216
ENCODING 10567
SWIDTH 1600 0
DWIDTH 16 0
BBX 15 12 0 -2
BITMAP
6028
4024
93A4
8D22
8222
863E
89A2
9022
4024
4024
2028
0010
ENDCHAR
STARTCHAR 3217
ENCODING 10568
SWIDTH 1600 0
DWIDTH 16 0
BBX 15 13 0 -2
BITMAP
0040
6028
4724
8024
8F22
8122
823A
85A2
88A2
4024
4024
2028
0010
ENDCHAR
STARTCHAR 3218
ENCODING 10569
SWIDTH 1600 0
DWIDTH 16 0
BBX 15 12 0 -2
BITMAP
6028
4024
9FA4
8122
8322
8E3E
8422
8822
5024
4024
2028
0010
ENDCHAR
STARTCHAR 3219
ENCODING 10570
SWIDTH 1600 0
DWIDTH 16 0
BBX 15 12 0 -2
BITMAP
6028
4024
9FA4
8822
8FA2
883E
8822
8FA2
4024
4024
2028
0010
ENDCHAR
STARTCHAR 321A
ENCODING 10571
SWIDTH 1600 0
DWIDTH 16 0
BBX 15 12 0 -2
BITMAP
6028
4024
9FA4
8122
8122
853A
8122
9EA2
4024
4024
2028
0010
ENDCHAR
STARTCHAR 321B
ENCODING 10572
SWIDTH 1600 0
DWIDTH 16 0
BBX 15 11 0 -1
BITMAP
6028
4728
8024
9FE2
8722
88BE
88A2
88A2
4724
4024
2028
ENDCHAR
STARTCHAR 249C
ENCODING 10573
SWIDTH 1600 0
DWIDTH 16 0
BBX 15 12 0 -2
BITMAP
6008
4004
83C4
8442
8042
83C2
8442
8442
47A4
4004
2008
0010
ENDCHAR
STARTCHAR 249D
ENCODING 10574
SWIDTH 1600 0
DWIDTH 16 0
BBX 15 12 0 -2
BITMAP
6208
4204
8204
8202
83C2
8222
8222
8222
4224
4244
2188
0010
ENDCHAR
STARTCHAR 249E
ENCODING 10575
SWIDTH 1600 0
DWIDTH 16 0
BBX 15 12 0 -2
BITMAP
6008
4004
81C4
8222
8402
8402
8402
8222
41C4
4004
2008
0010
ENDCHAR
STARTCHAR 249F
ENCODING 10576
SWIDTH 1600 0
DWIDTH 16 0
BBX 15 12 0 -2
BITMAP
60C8
4044
8044
8342
84C2
8842
8842
8842
4844
47C4
2028
0010
ENDCHAR
STARTCHAR 24A0
ENCODING 10577
SWIDTH 1600 0
DWIDTH 16 0
BBX 15 12 0 -2
BITMAP
6008
41C4
8264
8422
87E2
8402
8402
8622
41C4
4004
2008
0010
ENDCHAR
STARTCHAR 24A1
ENCODING 10578
SWIDTH 1600 0
DWIDTH 16 0
BBX 15 12 0 -2
BITMAP
6048
41C4
8104
8102
83C2
8102
8102
8102
4104
4104
2388
0010
ENDCHAR
STARTCHAR 24A2
ENCODING 10579
SWIDTH 1600 0
DWIDTH 16 0
BBX 15 12 0 -2
BITMAP
6008
43F4
8444
8442
8442
8782
8702
84E2
4824
47C4
2008
0010
ENDCHAR
STARTCHAR 24A3
ENCODING 10580
SWIDTH 1600 0
DWIDTH 16 0
BBX 15 12 0 -2
BITMAP
6208
4204
8204
8202
83E2
8222
8222
8222
4224
4224
2008
0010
ENDCHAR
STARTCHAR 24A4
ENCODING 10581
SWIDTH 1600 0
DWIDTH 16 0
BBX 15 12 0 -2
BITMAP
6188
4004
8004
8002
8082
8082
8082
8082
4084
4084
2008
0010
ENDCHAR
STARTCHAR 24A5
ENCODING 10582
SWIDTH 1600 0
DWIDTH 16 0
BBX 15 13 0 -2
BITMAP
0080
6008
4004
8004
8182
8082
8082
8082
8082
4084
4084
2308
0010
ENDCHAR
STARTCHAR 24A6
ENCODING 10583
SWIDTH 1600 0
DWIDTH 16 0
BBX 15 12 0 -2
BITMAP
6208
4204
8204
8202
8222
82C2
8282
8342
4224
4234
2008
0010
ENDCHAR
STARTCHAR 24A7
ENCODING 10584
SWIDTH 1600 0
DWIDTH 16 0
BBX 15 12 0 -2
BITMAP
6088
4084
8084
8082
8082
8082
8082
8082
4084
4084
2008
0010
ENDCHAR
STARTCHAR 24A8
ENCODING 10585
SWIDTH 1600 0
DWIDTH 16 0
BBX 15 12 0 -2
BITMAP
6008
4004
B77C
988A
908A
908A
908A
908A
4004
4004
2008
0010
ENDCHAR
STARTCHAR 24A9
ENCODING 10586
SWIDTH 1600 0
DWIDTH 16 0
BBX 15 12 0 -2
BITMAP
6008
4004
8DC4
8622
8422
8422
8422
8422
4004
4004
2008
0010
ENDCHAR
STARTCHAR 24AA
ENCODING 10587
SWIDTH 1600 0
DWIDTH 16 0
BBX 15 12 0 -2
BITMAP
6008
4004
83C4
8262
8422
8422
8422
8642
43C4
4004
2008
0010
ENDCHAR
STARTCHAR 24AB
ENCODING 10588
SWIDTH 1600 0
DWIDTH 16 0
BBX 15 12 0 -2
BITMAP
6008
42C4
8334
8212
8212
8212
8212
83E2
4204
4204
2008
0010
ENDCHAR
STARTCHAR 24AC
ENCODING 10589
SWIDTH 1600 0
DWIDTH 16 0
BBX 15 12 0 -2
BITMAP
6008
4304
84C4
8842
8842
8842
8442
83C2
4044
4044
2028
0010
ENDCHAR
STARTCHAR 24AD
ENCODING 10590
SWIDTH 1600 0
DWIDTH 16 0
BBX 15 12 0 -2
BITMAP
6008
4004
8364
8182
8102
8102
8102
8102
4004
4004
2008
0010
ENDCHAR
STARTCHAR 24AE
ENCODING 10591
SWIDTH 1600 0
DWIDTH 16 0
BBX 15 12 0 -2
BITMAP
6008
4004
83C4
8402
8302
80C2
8422
8222
41C4
4004
2008
0010
ENDCHAR
STARTCHAR 24AF
ENCODING 10592
SWIDTH 1600 0
DWIDTH 16 0
BBX 15 12 0 -2
BITMAP
6008
4104
8104
83C2
8102
8102
8102
8102
4104
41C4
2008
0010
ENDCHAR
STARTCHAR 24B0
ENCODING 10593
SWIDTH 1600 0
DWIDTH 16 0
BBX 15 12 0 -2
BITMAP
6008
4004
8C64
8422
8422
8422
8422
8462
4384
4004
2008
0010
ENDCHAR
STARTCHAR 24B1
ENCODING 10594
SWIDTH 1600 0
DWIDTH 16 0
BBX 15 12 0 -2
BITMAP
6008
4004
8604
8422
8242
8242
8182
8182
4104
4004
2008
0010
ENDCHAR
STARTCHAR 24B2
ENCODING 10595
SWIDTH 1600 0
DWIDTH 16 0
BBX 15 12 0 -2
BITMAP
6008
4004
8004
8882
8892
89A2
8662
8662
4004
4004
2008
0010
ENDCHAR
STARTCHAR 24B3
ENCODING 10596
SWIDTH 1600 0
DWIDTH 16 0
BBX 15 12 0 -2
BITMAP
6008
4004
8664
8242
8182
8182
82C2
8442
4E74
4004
2008
0010
ENDCHAR
STARTCHAR 24B4
ENCODING 10597
SWIDTH 1600 0
DWIDTH 16 0
BBX 15 12 0 -2
BITMAP
6008
4004
8224
8242
8242
8142
8182
8082
4104
4704
2008
0010
ENDCHAR
STARTCHAR 24B5
ENCODING 10598
SWIDTH 1600 0
DWIDTH 16 0
BBX 15 11 0 -1
BITMAP
6008
4004
83E4
8242
8082
8102
8222
8242
47C4
4004
2008
ENDCHAR
STARTCHAR 2474
ENCODING 10599
SWIDTH 1600 0
DWIDTH 16 0
BBX 15 12 0 -2
BITMAP
6188
4084
8084
8082
8082
8082
8082
8082
4084
4084
23E8
0010
ENDCHAR
STARTCHAR 2475
ENCODING 10600
SWIDTH 1600 0
DWIDTH 16 0
BBX 15 12 0 -2
BITMAP
61C8
4224
8424
8422
8042
8082
8302
8402
4424
47E4
2008
0010
ENDCHAR
STARTCHAR 2476
ENCODING 10601
SWIDTH 1600 0
DWIDTH 16 0
BBX 15 12 0 -2
BITMAP
63C8
4624
8024
8022
80C2
8042
8022
8022
4424
4444
2388
0010
ENDCHAR
STARTCHAR 2477
ENCODING 10602
SWIDTH 1600 0
DWIDTH 16 0
BBX 15 12 0 -2
BITMAP
6088
4184
8284
8482
8482
8882
8882
8FE2
4084
4084
2048
0010
ENDCHAR
STARTCHAR 2478
ENCODING 10603
SWIDTH 1600 0
DWIDTH 16 0
BBX 15 12 0 -2
BITMAP
67E8
4404
8404
8402
87C2
8422
8022
8022
4424
4424
23C8
0010
ENDCHAR
STARTCHAR 2479
ENCODING 10604
SWIDTH 1600 0
DWIDTH 16 0
BBX 15 12 0 -2
BITMAP
61E8
4224
8404
8402
87C2
8422
8422
8422
4424
4244
2188
0010
ENDCHAR
STARTCHAR 247A
ENCODING 10605
SWIDTH 1600 0
DWIDTH 16 0
BBX 15 12 0 -2
BITMAP
63E8
4424
8444
8042
8082
8082
8102
8102
4104
4104
2008
0010
ENDCHAR
STARTCHAR 247B
ENCODING 10606
SWIDTH 1600 0
DWIDTH 16 0
BBX 15 12 0 -2
BITMAP
63C8
4424
8424
8442
8282
83E2
8422
8422
4424
4244
2188
0010
ENDCHAR
STARTCHAR 247C
ENCODING 10607
SWIDTH 1600 0
DWIDTH 16 0
BBX 15 12 0 -2
BITMAP
6188
4644
8424
8422
8422
8262
81A2
8022
4044
4644
2188
0010
ENDCHAR
STARTCHAR 247D
ENCODING 10608
SWIDTH 1600 0
DWIDTH 16 0
BBX 15 12 0 -2
BITMAP
6478
4C54
848C
848A
848A
848A
848A
848A
448C
4494
2068
0010
ENDCHAR
STARTCHAR 247E
ENCODING 10609
SWIDTH 1600 0
DWIDTH 16 0
BBX 15 12 0 -2
BITMAP
6008
4C64
8424
8422
8422
8422
8422
8422
4FFC
4004
2008
0010
ENDCHAR
STARTCHAR 247F
ENCODING 10610
SWIDTH 1600 0
DWIDTH 16 0
BBX 15 13 0 -2
BITMAP
2000
4008
4C7C
844C
840A
8412
8422
8442
8482
4F7C
4004
2008
0010
ENDCHAR
STARTCHAR 2480
ENCODING 10611
SWIDTH 1600 0
DWIDTH 16 0
BBX 15 12 0 -2
BITMAP
6008
4CF4
840C
8412
8432
840A
848A
848A
4F74
4004
2008
0010
ENDCHAR
STARTCHAR 2481
ENCODING 10612
SWIDTH 1600 0
DWIDTH 16 0
BBX 15 12 0 -2
BITMAP
6018
4C14
8434
8452
8492
8492
84FA
8412
4F1C
4004
2008
0010
ENDCHAR
STARTCHAR 2482
ENCODING 10613
SWIDTH 1600 0
DWIDTH 16 0
BBX 15 12 0 -2
BITMAP
6008
44FC
8C84
8482
84F2
840A
840A
848A
4494
4264
2008
0010
ENDCHAR
STARTCHAR 00B9
ENCODING 10614
SWIDTH 1600 0
DWIDTH 16 0
BBX 3 7 7 5
BITMAP
C0
40
40
40
40
40
E0
ENDCHAR
STARTCHAR 00B2
ENCODING 10615
SWIDTH 1600 0
DWIDTH 16 0
BBX 4 7 6 5
BITMAP
60
90
90
30
40
80
F0
ENDCHAR
STARTCHAR 00B3
ENCODING 10616
SWIDTH 1600 0
DWIDTH 16 0
BBX 4 8 6 4
BITMAP
60
90
10
60
10
90
90
60
ENDCHAR
STARTCHAR 2074
ENCODING 10617
SWIDTH 1600 0
DWIDTH 16 0
BBX 5 6 5 5
BITMAP
10
30
50
90
F8
10
ENDCHAR
STARTCHAR 207F
ENCODING 10618
SWIDTH 1600 0
DWIDTH 16 0
BBX 6 6 6 5
BITMAP
38
C8
88
88
88
8C
ENDCHAR
STARTCHAR 2081
ENCODING 10619
SWIDTH 1600 0
DWIDTH 16 0
BBX 3 7 6 -3
BITMAP
C0
40
40
40
40
40
E0
ENDCHAR
STARTCHAR 2082
ENCODING 10620
SWIDTH 1600 0
DWIDTH 16 0
BBX 4 7 6 -3
BITMAP
60
90
90
20
40
80
F0
ENDCHAR
STARTCHAR 2083
ENCODING 10621
SWIDTH 1600 0
DWIDTH 16 0
BBX 4 8 6 -4
BITMAP
60
90
10
60
10
90
90
60
ENDCHAR
STARTCHAR 2084
ENCODING 10622
SWIDTH 1600 0
DWIDTH 16 0
BBX 5 6 5 -2
BITMAP
10
30
50
90
F8
10
ENDCHAR
STARTCHAR 3041
ENCODING 10785
SWIDTH 1600 0
DWIDTH 16 0
BBX 9 10 3 -2
BITMAP
0800
0A00
3400
1000
1F00
1480
7880
9080
6080
0300
ENDCHAR
STARTCHAR 3042
ENCODING 10786
SWIDTH 1600 0
DWIDTH 16 0
BBX 12 12 2 -1
BITMAP
0400
0400
4780
3800
0900
0F80
1A60
2A30
4C30
8820
B820
40C0
ENDCHAR
STARTCHAR 3043
ENCODING 10787
SWIDTH 1600 0
DWIDTH 16 0
BBX 8 6 4 -1
BITMAP
80
84
83
91
A1
40
ENDCHAR
STARTCHAR 3044
ENCODING 10788
SWIDTH 1600 0
DWIDTH 16 0
BBX 11 8 3 1
BITMAP
8000
8000
8080
8040
8040
90E0
6020
6000
ENDCHAR
STARTCHAR 3045
ENCODING 10789
SWIDTH 1600 0
DWIDTH 16 0
BBX 6 9 5 -1
BITMAP
18
00
08
F8
04
04
08
08
10
ENDCHAR
STARTCHAR 3046
ENCODING 10790
SWIDTH 1600 0
DWIDTH 16 0
BBX 7 13 4 -2
BITMAP
0C
06
00
00
BE
42
02
02
02
04
04
08
10
ENDCHAR
STARTCHAR 3047
ENCODING 10791
SWIDTH 1600 0
DWIDTH 16 0
BBX 8 10 4 -2
BITMAP
10
08
00
7C
10
20
20
50
89
06
ENDCHAR
STARTCHAR 3048
ENCODING 10792
SWIDTH 1600 0
DWIDTH 16 0
BBX 10 11 3 -1
BITMAP
0C00
0200
0000
5E00
2400
0800
1000
2000
5800
C800
87C0
ENDCHAR
STARTCHAR 3049
ENCODING 10793
SWIDTH 1600 0
DWIDTH 16 0
BBX 10 9 3 -1
BITMAP
1000
1000
1080
78C0
1000
1F80
3080
D080
3700
ENDCHAR
STARTCHAR 304A
ENCODING 10794
SWIDTH 1600 0
DWIDTH 16 0
BBX 12 12 2 -1
BITMAP
1000
1800
10E0
1C30
3000
1000
17C0
1820
3020
D060
33C0
1000
ENDCHAR
STARTCHAR 304B
ENCODING 10795
SWIDTH 1600 0
DWIDTH 16 0
BBX 12 12 2 -1
BITMAP
1000
0800
0800
0840
3F20
D110
2170
2100
4200
4200
8C00
0800
ENDCHAR
STARTCHAR 304C
ENCODING 10796
SWIDTH 1600 0
DWIDTH 16 0
BBX 13 11 2 0
BITMAP
1800
0808
0810
1E40
F120
2110
2170
2210
4200
9E00
8C00
ENDCHAR
STARTCHAR 304D
ENCODING 10797
SWIDTH 1600 0
DWIDTH 16 0
BBX 9 12 3 -1
BITMAP
3000
1200
0C00
3400
0780
7A00
0100
1D80
6380
8000
4000
3E00
ENDCHAR
STARTCHAR 304E
ENCODING 10798
SWIDTH 1600 0
DWIDTH 16 0
BBX 12 12 3 -1
BITMAP
3020
1250
0C40
3400
0780
7A00
0100
1D80
6380
8000
4000
3E00
ENDCHAR
STARTCHAR 304F
ENCODING 10799
SWIDTH 1600 0
DWIDTH 16 0
BBX 6 12 5 -1
BITMAP
08
08
10
20
40
80
80
40
20
10
08
0C
ENDCHAR
STARTCHAR 3050
ENCODING 10800
SWIDTH 1600 0
DWIDTH 16 0
BBX 9 12 5 -1
BITMAP
0800
0800
1000
2280
4100
8000
8000
4000
2000
1000
0800
0C00
ENDCHAR
STARTCHAR 3051
ENCODING 10801
SWIDTH 1600 0
DWIDTH 16 0
BBX 12 12 2 -1
BITMAP
4180
4080
4080
41F0
8680
8080
A080
C080
C080
C100
4100
0200
ENDCHAR
STARTCHAR 3052
ENCODING 10802
SWIDTH 1600 0
DWIDTH 16 0
BBX 13 12 2 -1
BITMAP
41A8
4090
4080
41F0
8680
8080
A080
C080
C080
C100
4100
0200
ENDCHAR
STARTCHAR 3053
ENCODING 10803
SWIDTH 1600 0
DWIDTH 16 0
BBX 10 10 3 0
BITMAP
1F00
0700
0000
0000
0000
0000
8000
8000
4000
3FC0
ENDCHAR
STARTCHAR 3054
ENCODING 10804
SWIDTH 1600 0
DWIDTH 16 0
BBX 12 10 3 0
BITMAP
1FA0
0750
0000
0000
0000
0000
8000
8000
4000
3FC0
ENDCHAR
STARTCHAR 3055
ENCODING 10805
SWIDTH 1600 0
DWIDTH 16 0
BBX 10 12 3 -1
BITMAP
1E00
1180
8B00
7E00
0100
0080
1FC0
60C0
4000
4000
3000
0F00
ENDCHAR
STARTCHAR 3056
ENCODING 10806
SWIDTH 1600 0
DWIDTH 16 0
BBX 12 12 3 -1
BITMAP
1E30
11F0
8B20
7E00
0100
0080
1FC0
60C0
4000
4000
3000
0F00
ENDCHAR
STARTCHAR 3057
ENCODING 10807
SWIDTH 1600 0
DWIDTH 16 0
BBX 9 12 4 -1
BITMAP
8000
4000
4000
4000
8000
8000
8000
8000
8000
8080
4300
7C00
ENDCHAR
STARTCHAR 3058
ENCODING 10808
SWIDTH 1600 0
DWIDTH 16 0
BBX 9 12 4 -1
BITMAP
8000
4000
4400
8A00
8000
8000
8000
8000
8000
8080
4300
7C00
ENDCHAR
STARTCHAR 3059
ENCODING 10809
SWIDTH 1600 0
DWIDTH 16 0
BBX 12 13 2 -1
BITMAP
0600
0200
0200
0FF0
F200
0600
1A00
1200
1200
0E00
0200
0400
0400
ENDCHAR
STARTCHAR 305A
ENCODING 10810
SWIDTH 1600 0
DWIDTH 16 0
BBX 12 14 2 -2
BITMAP
0600
0260
0250
0FF0
F200
0600
0A00
1200
1200
0E00
0200
0200
0400
0800
ENDCHAR
STARTCHAR 305B
ENCODING 10811
SWIDTH 1600 0
DWIDTH 16 0
BBX 14 11 1 0
BITMAP
00C0
0060
0840
0840
0BFC
FC40
4840
09C0
0880
0800
07F0
ENDCHAR
STARTCHAR 305C
ENCODING 10812
SWIDTH 1600 0
DWIDTH 16 0
BBX 15 11 1 0
BITMAP
0080
0076
1848
0840
09FC
FE40
4840
09C0
0880
0800
07F0
ENDCHAR
STARTCHAR 305D
ENCODING 10813
SWIDTH 1600 0
DWIDTH 16 0
BBX 11 12 2 -1
BITMAP
1300
0D80
0200
0400
08E0
3F00
7600
C800
0800
0800
0400
0380
ENDCHAR
STARTCHAR 305E
ENCODING 10814
SWIDTH 1600 0
DWIDTH 16 0
BBX 13 12 2 -1
BITMAP
1300
0D88
0238
0400
08E0
3F00
7400
C800
0800
0800
0400
0380
ENDCHAR
STARTCHAR 305F
ENCODING 10815
SWIDTH 1600 0
DWIDTH 16 0
BBX 12 12 2 -1
BITMAP
1800
0800
1600
F9C0
1020
2070
2000
4000
4400
C400
8400
03F0
ENDCHAR
STARTCHAR 3060
ENCODING 10816
SWIDTH 1600 0
DWIDTH 16 0
BBX 13 11 2 -1
BITMAP
1808
0810
1600
B9C0
5020
2070
2000
2000
4400
4400
83F0
ENDCHAR
STARTCHAR 3061
ENCODING 10817
SWIDTH 1600 0
DWIDTH 16 0
BBX 10 12 3 -1
BITMAP
1000
1000
2E00
F000
2000
2000
2780
5840
6040
4040
0080
0700
ENDCHAR
STARTCHAR 3062
ENCODING 10818
SWIDTH 1600 0
DWIDTH 16 0
BBX 12 13 3 -1
BITMAP
2000
1000
1620
F850
2060
2000
2300
5CC0
6040
4040
00C0
0380
0E00
ENDCHAR
STARTCHAR 3063
ENCODING 10819
SWIDTH 1600 0
DWIDTH 16 0
BBX 10 6 3 -1
BITMAP
1F80
E040
0040
0040
0080
0300
ENDCHAR
STARTCHAR 3064
ENCODING 10820
SWIDTH 1600 0
DWIDTH 16 0
BBX 12 8 2 0
BITMAP
0FE0
3010
E010
0010
0010
0030
0060
0180
ENDCHAR
STARTCHAR 3065
ENCODING 10821
SWIDTH 1600 0
DWIDTH 16 0
BBX 15 10 1 0
BITMAP
0006
000A
07E4
3810
E010
0018
0010
0030
0060
0180
ENDCHAR
STARTCHAR 3066
ENCODING 10822
SWIDTH 1600 0
DWIDTH 16 0
BBX 12 11 2 -1
BITMAP
01F0
FF00
4200
0400
0800
0800
0800
0800
0400
0380
00C0
ENDCHAR
STARTCHAR 3067
ENCODING 10823
SWIDTH 1600 0
DWIDTH 16 0
BBX 13 11 2 -1
BITMAP
01F0
FF00
4208
0418
0800
0800
0800
0800
0400
0380
00C0
ENDCHAR
STARTCHAR 3068
ENCODING 10824
SWIDTH 1600 0
DWIDTH 16 0
BBX 9 12 3 -1
BITMAP
2000
1000
1000
1000
1380
1C00
1000
6000
4000
8000
4000
3F80
ENDCHAR
STARTCHAR 3069
ENCODING 10825
SWIDTH 1600 0
DWIDTH 16 0
BBX 10 12 4 -1
BITMAP
4080
2140
2080
2000
2700
1800
2000
4000
8000
8000
8000
7F00
ENDCHAR
STARTCHAR 306A
ENCODING 10826
SWIDTH 1600 0
DWIDTH 16 0
BBX 12 13 2 -2
BITMAP
0800
0C00
0A00
7C00
1030
21D0
2100
4100
8100
0F00
11C0
1300
0C00
ENDCHAR
STARTCHAR 306B
ENCODING 10827
SWIDTH 1600 0
DWIDTH 16 0
BBX 11 10 3 0
BITMAP
4000
43C0
44C0
8000
8000
A000
A000
C800
C7E0
4000
ENDCHAR
STARTCHAR 306C
ENCODING 10828
SWIDTH 1600 0
DWIDTH 16 0
BBX 13 11 1 -1
BITMAP
0200
0200
0280
2F70
3210
3408
5408
8808
9878
75B8
41E8
ENDCHAR
STARTCHAR 306D
ENCODING 10829
SWIDTH 1600 0
DWIDTH 16 0
BBX 12 12 2 -2
BITMAP
1000
1000
2000
31C0
DE20
3020
2020
E020
A1E0
E260
A3D0
2000
ENDCHAR
STARTCHAR 306E
ENCODING 10830
SWIDTH 1600 0
DWIDTH 16 0
BBX 12 10 2 0
BITMAP
0700
1AC0
2220
4410
8410
8810
9010
9020
6060
0080
ENDCHAR
STARTCHAR 306F
ENCODING 10831
SWIDTH 1600 0
DWIDTH 16 0
BBX 12 12 2 -1
BITMAP
4080
2040
4040
4470
43C0
8040
A040
A040
C040
47F0
4850
4780
ENDCHAR
STARTCHAR 3070
ENCODING 10832
SWIDTH 1600 0
DWIDTH 16 0
BBX 14 12 2 -1
BITMAP
4088
205C
6040
4470
43C0
4040
A040
A040
A040
47F0
4450
4380
ENDCHAR
STARTCHAR 3071
ENCODING 10833
SWIDTH 1600 0
DWIDTH 16 0
BBX 14 13 2 -1
BITMAP
001C
40E4
6054
4048
4470
43C0
8040
A040
C040
C040
47F0
4450
4380
ENDCHAR
STARTCHAR 3072
ENCODING 10834
SWIDTH 1600 0
DWIDTH 16 0
BBX 12 11 2 -1
BITMAP
1080
F080
20C0
20C0
40A0
40B0
4110
8100
4300
4600
3800
ENDCHAR
STARTCHAR 3073
ENCODING 10835
SWIDTH 1600 0
DWIDTH 16 0
BBX 13 11 2 -1
BITMAP
38A8
D090
20C0
20C0
40A0
4090
8100
8100
4200
2C00
1000
ENDCHAR
STARTCHAR 3074
ENCODING 10836
SWIDTH 1600 0
DWIDTH 16 0
BBX 14 12 2 -1
BITMAP
0018
38A4
D098
20C0
20C0
40A0
40B0
8100
8100
4200
2C00
1000
ENDCHAR
STARTCHAR 3075
ENCODING 10837
SWIDTH 1600 0
DWIDTH 16 0
BBX 12 10 2 0
BITMAP
0400
0300
0200
0400
0800
0400
03C0
1E30
E110
CF30
ENDCHAR
STARTCHAR 3076
ENCODING 10838
SWIDTH 1600 0
DWIDTH 16 0
BBX 13 10 2 0
BITMAP
0400
0300
0248
0430
0800
0400
03C0
1E30
E330
CE00
ENDCHAR
STARTCHAR 3077
ENCODING 10839
SWIDTH 1600 0
DWIDTH 16 0
BBX 13 11 2 0
BITMAP
0400
0200
0178
0248
0448
0470
0400
03E0
9D10
E130
4700
ENDCHAR
STARTCHAR 3078
ENCODING 10840
SWIDTH 1600 0
DWIDTH 16 0
BBX 14 7 1 1
BITMAP
0400
1A00
2100
C0C0
0060
0018
000C
ENDCHAR
STARTCHAR 3079
ENCODING 10841
SWIDTH 1600 0
DWIDTH 16 0
BBX 14 9 1 1
BITMAP
0018
0020
0410
1A00
2100
C0C0
0060
0018
000C
ENDCHAR
STARTCHAR 307A
ENCODING 10842
SWIDTH 1600 0
DWIDTH 16 0
BBX 14 9 1 1
BITMAP
0078
0048
0478
1A00
2100
C0C0
0060
0018
000C
ENDCHAR
STARTCHAR 307B
ENCODING 10843
SWIDTH 1600 0
DWIDTH 16 0
BBX 13 12 2 -1
BITMAP
4000
23E0
4040
4050
43E0
8040
8040
A040
A040
43F8
4440
4380
ENDCHAR
STARTCHAR 307C
ENCODING 10844
SWIDTH 1600 0
DWIDTH 16 0
BBX 14 12 2 -1
BITMAP
4000
47C8
4094
40E0
8F80
8080
8080
C080
C080
C7F0
C880
4700
ENDCHAR
STARTCHAR 307D
ENCODING 10845
SWIDTH 1600 0
DWIDTH 16 0
BBX 15 12 1 -1
BITMAP
400E
27F2
404A
4074
47C0
8040
8040
A040
C040
43F0
4440
4380
ENDCHAR
STARTCHAR 307E
ENCODING 10846
SWIDTH 1600 0
DWIDTH 16 0
BBX 9 13 3 -2
BITMAP
0400
0400
0480
7F00
0400
0780
3C00
0400
0400
7E00
8580
4C00
3000
ENDCHAR
STARTCHAR 307F
ENCODING 10847
SWIDTH 1600 0
DWIDTH 16 0
BBX 12 10 2 0
BITMAP
0F00
1200
0400
0440
0840
3FC0
5060
A0B0
C080
C100
ENDCHAR
STARTCHAR 3080
ENCODING 10848
SWIDTH 1600 0
DWIDTH 16 0
BBX 12 11 2 -1
BITMAP
1000
1600
F840
10B0
7090
9090
9080
6040
2040
20C0
1F80
ENDCHAR
STARTCHAR 3081
ENCODING 10849
SWIDTH 1600 0
DWIDTH 16 0
BBX 13 11 1 -1
BITMAP
0100
2100
23C0
1D30
3218
5208
4C08
8C08
5418
6020
00C0
ENDCHAR
STARTCHAR 3082
ENCODING 10850
SWIDTH 1600 0
DWIDTH 16 0
BBX 9 13 3 -2
BITMAP
0800
0800
4800
3000
1800
7000
9100
7880
2080
2080
2080
1B00
0400
ENDCHAR
STARTCHAR 3083
ENCODING 10851
SWIDTH 1600 0
DWIDTH 16 0
BBX 10 9 3 -1
BITMAP
0400
3C00
27C0
1840
F040
0980
0400
0400
0200
ENDCHAR
STARTCHAR 3084
ENCODING 10852
SWIDTH 1600 0
DWIDTH 16 0
BBX 14 12 1 -1
BITMAP
0100
0F80
10A0
1358
0C04
B40C
6278
0200
0100
0180
0080
0080
ENDCHAR
STARTCHAR 3085
ENCODING 10853
SWIDTH 1600 0
DWIDTH 16 0
BBX 9 8 3 -1
BITMAP
1C00
AB00
B280
E280
E280
9280
0F00
0800
ENDCHAR
STARTCHAR 3086
ENCODING 10854
SWIDTH 1600 0
DWIDTH 16 0
BBX 12 12 2 -1
BITMAP
0400
1A00
93C0
9D20
9120
B110
D110
D920
CD60
4780
0200
0400
ENDCHAR
STARTCHAR 3087
ENCODING 10855
SWIDTH 1600 0
DWIDTH 16 0
BBX 8 10 4 -2
BITMAP
18
08
0B
0C
08
08
08
7E
89
70
ENDCHAR
STARTCHAR 3088
ENCODING 10856
SWIDTH 1600 0
DWIDTH 16 0
BBX 9 12 3 -1
BITMAP
1800
0800
0800
0B80
0C00
0800
0800
0800
0800
7E00
8980
7800
ENDCHAR
STARTCHAR 3089
ENCODING 10857
SWIDTH 1600 0
DWIDTH 16 0
BBX 10 13 3 -2
BITMAP
1000
0800
0800
7000
4000
4000
4000
5F80
E040
C0C0
0080
0300
0400
ENDCHAR
STARTCHAR 308A
ENCODING 10858
SWIDTH 1600 0
DWIDTH 16 0
BBX 6 11 5 0
BITMAP
98
E4
C4
C4
84
84
84
84
0C
08
10
ENDCHAR
STARTCHAR 308B
ENCODING 10859
SWIDTH 1600 0
DWIDTH 16 0
BBX 10 12 3 -1
BITMAP
0600
3A00
0400
0400
0800
1600
3980
6040
C040
1C80
2380
1E00
ENDCHAR
STARTCHAR 308C
ENCODING 10860
SWIDTH 1600 0
DWIDTH 16 0
BBX 13 12 2 -1
BITMAP
1000
1000
1080
1340
FC40
3040
3080
2080
6080
A080
A098
2060
ENDCHAR
STARTCHAR 308D
ENCODING 10861
SWIDTH 1600 0
DWIDTH 16 0
BBX 10 12 3 -1
BITMAP
0400
3A00
0400
0800
1000
2780
7840
C040
8040
0040
0180
0600
ENDCHAR
STARTCHAR 308E
ENCODING 10862
SWIDTH 1600 0
DWIDTH 16 0
BBX 9 9 4 -1
BITMAP
1000
1000
2000
7300
3C80
2080
6080
A100
E200
ENDCHAR
STARTCHAR 308F
ENCODING 10863
SWIDTH 1600 0
DWIDTH 16 0
BBX 12 12 2 -1
BITMAP
0800
0800
0800
0800
79C0
1630
1810
1010
7010
5020
B040
1180
ENDCHAR
STARTCHAR 3090
ENCODING 10864
SWIDTH 1600 0
DWIDTH 16 0
BBX 11 12 2 -1
BITMAP
0200
1F00
0200
0400
0400
0FE0
3820
5020
9020
A7E0
6460
0380
ENDCHAR
STARTCHAR 3091
ENCODING 10865
SWIDTH 1600 0
DWIDTH 16 0
BBX 12 12 2 -1
BITMAP
0100
1F00
0200
0700
08C0
1040
1E80
0F00
0800
30C0
7B20
8470
ENDCHAR
STARTCHAR 3092
ENCODING 10866
SWIDTH 1600 0
DWIDTH 16 0
BBX 10 12 3 -1
BITMAP
0800
0800
1E00
7000
2080
79C0
8E00
1800
2800
4000
4000
3F00
ENDCHAR
STARTCHAR 3093
ENCODING 10867
SWIDTH 1600 0
DWIDTH 16 0
BBX 11 12 2 -1
BITMAP
0400
0200
0400
0400
0800
1000
1000
3E00
2200
4220
8340
8180
ENDCHAR
STARTCHAR 30A1
ENCODING 11041
SWIDTH 1600 0
DWIDTH 16 0
BBX 8 7 4 0
BITMAP
FF
12
0C
10
10
10
20
ENDCHAR
STARTCHAR 30A2
ENCODING 11042
SWIDTH 1600 0
DWIDTH 16 0
BBX 12 12 2 -1
BITMAP
87E0
7830
04C0
0300
0200
0600
0400
0400
0800
0800
1000
2000
ENDCHAR
STARTCHAR 30A3
ENCODING 11043
SWIDTH 1600 0
DWIDTH 16 0
BBX 7 9 4 -1
BITMAP
06
04
08
18
68
88
08
08
08
ENDCHAR
STARTCHAR 30A4
ENCODING 11044
SWIDTH 1600 0
DWIDTH 16 0
BBX 8 13 4 -1
BITMAP
02
01
03
06
0C
0C
34
44
84
04
04
04
04
ENDCHAR
STARTCHAR 30A5
ENCODING 11045
SWIDTH 1600 0
DWIDTH 16 0
BBX 8 8 4 0
BITMAP
10
10
FF
81
82
82
04
08
ENDCHAR
STARTCHAR 30A6
ENCODING 11046
SWIDTH 1600 0
DWIDTH 16 0
BBX 10 11 3 0
BITMAP
0C00
0800
FFC0
8040
80C0
C080
4180
0100
0200
0400
0800
ENDCHAR
STARTCHAR 30A7
ENCODING 11047
SWIDTH 1600 0
DWIDTH 16 0
BBX 10 6 3 -2
BITMAP
3E00
0400
0400
0800
BFC0
4000
ENDCHAR
STARTCHAR 30A8
ENCODING 11048
SWIDTH 1600 0
DWIDTH 16 0
BBX 12 8 2 1
BITMAP
01C0
3E00
0200
0200
0200
0200
BFF0
6000
ENDCHAR
STARTCHAR 30A9
ENCODING 11049
SWIDTH 1600 0
DWIDTH 16 0
BBX 9 9 3 -1
BITMAP
0400
0400
9F80
6C00
1400
2400
4400
0400
0400
ENDCHAR
STARTCHAR 30AA
ENCODING 11050
SWIDTH 1600 0
DWIDTH 16 0
BBX 11 12 3 -1
BITMAP
0600
0200
0200
FFE0
0600
0A00
1A00
3200
4200
8200
0E00
0200
ENDCHAR
STARTCHAR 30AB
ENCODING 11051
SWIDTH 1600 0
DWIDTH 16 0
BBX 10 12 3 -1
BITMAP
0400
0600
0400
07C0
7840
0840
1080
2080
2080
4100
8700
0200
ENDCHAR
STARTCHAR 30AC
ENCODING 11052
SWIDTH 1600 0
DWIDTH 16 0
BBX 13 12 3 -1
BITMAP
0400
0618
0428
07C0
7840
0880
1080
2080
4080
8900
0700
0200
ENDCHAR
STARTCHAR 30AD
ENCODING 11053
SWIDTH 1600 0
DWIDTH 16 0
BBX 10 12 3 -1
BITMAP
1800
0800
0F00
3800
4800
05C0
0E00
F400
0200
0200
0200
0100
ENDCHAR
STARTCHAR 30AE
ENCODING 11054
SWIDTH 1600 0
DWIDTH 16 0
BBX 12 12 3 -1
BITMAP
1020
1050
0BA0
1C00
6800
08E0
0700
FC00
4400
0200
0200
0300
ENDCHAR
STARTCHAR 30AF
ENCODING 11055
SWIDTH 1600 0
DWIDTH 16 0
BBX 10 12 3 -1
BITMAP
0400
0C80
0BC0
1080
2100
4100
0200
0400
0800
1000
2000
C000
ENDCHAR
STARTCHAR 30B0
ENCODING 11056
SWIDTH 1600 0
DWIDTH 16 0
BBX 13 12 3 -1
BITMAP
0010
0428
0FA0
08C0
1080
2100
C300
0200
0400
0800
1000
6000
ENDCHAR
STARTCHAR 30B1
ENCODING 11057
SWIDTH 1600 0
DWIDTH 16 0
BBX 11 10 3 0
BITMAP
1000
3000
23E0
5E00
8200
0200
0400
0C00
0800
1000
ENDCHAR
STARTCHAR 30B2
ENCODING 11058
SWIDTH 1600 0
DWIDTH 16 0
BBX 13 11 3 0
BITMAP
0050
1028
3000
27E0
5A00
8200
0600
0400
0800
1000
2000
ENDCHAR
STARTCHAR 30B3
ENCODING 11059
SWIDTH 1600 0
DWIDTH 16 0
BBX 8 7 4 2
BITMAP
1F
E1
01
01
02
02
FF
ENDCHAR
STARTCHAR 30B4
ENCODING 11060
SWIDTH 1600 0
DWIDTH 16 0
BBX 13 10 3 1
BITMAP
0030
0048
01A0
7EC0
0080
0080
0080
0100
8F00
7000
ENDCHAR
STARTCHAR 30B5
ENCODING 11061
SWIDTH 1600 0
DWIDTH 16 0
BBX 14 12 1 -1
BITMAP
00C0
0840
0840
BFFC
6840
0840
0840
0880
0080
0100
0100
0200
ENDCHAR
STARTCHAR 30B6
ENCODING 11062
SWIDTH 1600 0
DWIDTH 16 0
BBX 14 12 1 -1
BITMAP
00C4
0848
0848
9FFC
6840
0840
0840
0880
0080
0100
0100
0200
ENDCHAR
STARTCHAR 30B7
ENCODING 11063
SWIDTH 1600 0
DWIDTH 16 0
BBX 11 10 3 0
BITMAP
6000
1000
0020
0040
6080
0100
0600
0C00
B000
6000
ENDCHAR
STARTCHAR 30B8
ENCODING 11064
SWIDTH 1600 0
DWIDTH 16 0
BBX 10 10 3 0
BITMAP
6040
1100
0080
8040
6080
0100
0200
0C00
9800
6000
ENDCHAR
STARTCHAR 30B9
ENCODING 11065
SWIDTH 1600 0
DWIDTH 16 0
BBX 12 10 2 0
BITMAP
0080
3FC0
1080
0100
0200
0400
0F00
10C0
2020
C030
ENDCHAR
STARTCHAR 30BA
ENCODING 11066
SWIDTH 1600 0
DWIDTH 16 0
BBX 13 11 2 0
BITMAP
0018
00A8
3FD0
1180
0100
0200
0400
0F00
10C0
2020
C030
ENDCHAR
STARTCHAR 30BB
ENCODING 11067
SWIDTH 1600 0
DWIDTH 16 0
BBX 11 10 3 0
BITMAP
0800
0800
0840
0FE0
3840
C880
0800
0800
0800
07E0
ENDCHAR
STARTCHAR 30BC
ENCODING 11068
SWIDTH 1600 0
DWIDTH 16 0
BBX 13 10 3 0
BITMAP
0810
0828
0810
17E0
3840
D080
1000
1000
1000
0FC0
ENDCHAR
STARTCHAR 30BD
ENCODING 11069
SWIDTH 1600 0
DWIDTH 16 0
BBX 9 10 4 0
BITMAP
0100
8180
C100
4200
0200
0400
0800
1000
2000
4000
ENDCHAR
STARTCHAR 30BE
ENCODING 11070
SWIDTH 1600 0
DWIDTH 16 0
BBX 12 11 4 0
BITMAP
0030
0150
8180
C100
4200
0200
0400
0800
1000
2000
4000
ENDCHAR
STARTCHAR 30BF
ENCODING 11071
SWIDTH 1600 0
DWIDTH 16 0
BBX 9 12 4 -1
BITMAP
1000
0900
1780
2100
4200
B600
0C00
0800
1000
2000
4000
8000
ENDCHAR
STARTCHAR 30C0
ENCODING 11072
SWIDTH 1600 0
DWIDTH 16 0
BBX 12 12 4 -1
BITMAP
1020
0950
1780
2100
6200
9E00
0C00
0800
1000
2000
4000
8000
ENDCHAR
STARTCHAR 30C1
ENCODING 11073
SWIDTH 1600 0
DWIDTH 16 0
BBX 12 12 2 -1
BITMAP
0380
0600
3A00
0200
0FF0
F200
0200
0400
0400
0400
0800
1000
ENDCHAR
STARTCHAR 30C2
ENCODING 11074
SWIDTH 1600 0
DWIDTH 16 0
BBX 13 12 2 -1
BITMAP
0380
0608
3A38
0200
0FF0
F200
0200
0400
0400
0400
0800
1000
ENDCHAR
STARTCHAR 30C3
ENCODING 11075
SWIDTH 1600 0
DWIDTH 16 0
BBX 8 7 4 -1
BITMAP
11
91
82
02
04
08
10
ENDCHAR
STARTCHAR 30C4
ENCODING 11076
SWIDTH 1600 0
DWIDTH 16 0
BBX 10 10 3 0
BITMAP
1080
0840
88C0
C080
0100
0100
0200
0400
0800
1000
ENDCHAR
STARTCHAR 30C5
ENCODING 11077
SWIDTH 1600 0
DWIDTH 16 0
BBX 13 11 3 0
BITMAP
0010
1028
0850
88C0
C080
0180
0100
0200
0400
0800
1000
ENDCHAR
STARTCHAR 30C6
ENCODING 11078
SWIDTH 1600 0
DWIDTH 16 0
BBX 12 11 2 0
BITMAP
07C0
0800
0000
8FF0
7200
0200
0200
0400
0400
0800
1000
ENDCHAR
STARTCHAR 30C7
ENCODING 11079
SWIDTH 1600 0
DWIDTH 16 0
BBX 14 11 2 0
BITMAP
07C8
0814
0008
9FF0
6200
0200
0200
0400
0400
0800
1000
ENDCHAR
STARTCHAR 30C8
ENCODING 11080
SWIDTH 1600 0
DWIDTH 16 0
BBX 6 13 6 -1
BITMAP
80
40
40
40
40
60
58
44
40
40
40
40
40
ENDCHAR
STARTCHAR 30C9
ENCODING 11081
SWIDTH 1600 0
DWIDTH 16 0
BBX 8 13 6 -1
BITMAP
80
40
42
45
42
60
58
44
40
40
40
40
40
ENDCHAR
STARTCHAR 30CA
ENCODING 11082
SWIDTH 1600 0
DWIDTH 16 0
BBX 12 13 2 -2
BITMAP
0600
0200
0200
0200
1FF0
E200
0200
0200
0400
0400
0800
0800
1000
ENDCHAR
STARTCHAR 30CB
ENCODING 11083
SWIDTH 1600 0
DWIDTH 16 0
BBX 12 6 2 2
BITMAP
3FC0
0000
0000
0000
BFF0
4010
ENDCHAR
STARTCHAR 30CC
ENCODING 11084
SWIDTH 1600 0
DWIDTH 16 0
BBX 9 10 4 0
BITMAP
4F00
3180
0300
2200
1C00
0C00
1E00
3300
4000
8000
ENDCHAR
STARTCHAR 30CD
ENCODING 11085
SWIDTH 1600 0
DWIDTH 16 0
BBX 10 12 3 -1
BITMAP
0C00
0600
0300
7F00
0600
0C00
1500
64C0
8440
0400
0400
0400
ENDCHAR
STARTCHAR 30CE
ENCODING 11086
SWIDTH 1600 0
DWIDTH 16 0
BBX 8 10 4 0
BITMAP
01
01
02
02
04
08
10
20
40
80
ENDCHAR
STARTCHAR 30CF
ENCODING 11087
SWIDTH 1600 0
DWIDTH 16 0
BBX 13 6 2 2
BITMAP
1000
1840
1020
2030
4018
8000
ENDCHAR
STARTCHAR 30D0
ENCODING 11088
SWIDTH 1600 0
DWIDTH 16 0
BBX 15 8 1 2
BITMAP
000C
001A
0808
0C60
0830
1018
2008
C000
ENDCHAR
STARTCHAR 30D1
ENCODING 11089
SWIDTH 1600 0
DWIDTH 16 0
BBX 14 8 2 2
BITMAP
0018
0024
101C
18C0
1060
2030
4010
8000
ENDCHAR
STARTCHAR 30D2
ENCODING 11090
SWIDTH 1600 0
DWIDTH 16 0
BBX 10 11 3 0
BITMAP
C000
4000
4000
4100
7F00
4000
4000
4000
4000
4080
3FC0
ENDCHAR
STARTCHAR 30D3
ENCODING 11091
SWIDTH 1600 0
DWIDTH 16 0
BBX 11 11 3 0
BITMAP
C000
4020
4040
4140
7F00
4000
4000
4000
4000
4080
3FC0
ENDCHAR
STARTCHAR 30D4
ENCODING 11092
SWIDTH 1600 0
DWIDTH 16 0
BBX 11 11 3 0
BITMAP
C060
40A0
4060
4100
7F00
4000
4000
4000
4000
4080
3FC0
ENDCHAR
STARTCHAR 30D5
ENCODING 11093
SWIDTH 1600 0
DWIDTH 16 0
BBX 10 10 3 0
BITMAP
01C0
FE40
4080
0080
0100
0300
0200
0400
0800
1000
ENDCHAR
STARTCHAR 30D6
ENCODING 11094
SWIDTH 1600 0
DWIDTH 16 0
BBX 14 11 2 0
BITMAP
0014
81E8
7E60
4040
00C0
0080
0100
0300
0200
0400
0800
ENDCHAR
STARTCHAR 30D7
ENCODING 11095
SWIDTH 1600 0
DWIDTH 16 0
BBX 14 12 2 0
BITMAP
001C
0024
01D4
FE68
4040
0080
0080
0100
0200
0400
0800
1000
ENDCHAR
STARTCHAR 30D8
ENCODING 11096
SWIDTH 1600 0
DWIDTH 16 0
BBX 14 6 1 2
BITMAP
0E00
1100
E080
0060
0038
000C
ENDCHAR
STARTCHAR 30D9
ENCODING 11097
SWIDTH 1600 0
DWIDTH 16 0
BBX 14 8 1 2
BITMAP
0018
0028
0E10
1100
E080
0060
0038
000C
ENDCHAR
STARTCHAR 30DA
ENCODING 11098
SWIDTH 1600 0
DWIDTH 16 0
BBX 14 8 1 2
BITMAP
0078
0048
0E78
3100
E080
0060
0038
000C
ENDCHAR
STARTCHAR 30DB
ENCODING 11099
SWIDTH 1600 0
DWIDTH 16 0
BBX 11 12 3 -1
BITMAP
0400
0400
0400
FFC0
4400
0400
0400
8480
8440
8460
0C00
0400
ENDCHAR
STARTCHAR 30DC
ENCODING 11100
SWIDTH 1600 0
DWIDTH 16 0
BBX 13 12 2 -1
BITMAP
0200
0208
0230
7FE0
2200
0200
0200
4240
4220
C220
0600
0200
ENDCHAR
STARTCHAR 30DD
ENCODING 11101
SWIDTH 1600 0
DWIDTH 16 0
BBX 12 13 3 -1
BITMAP
00F0
0490
04F0
0400
FFC0
4400
0400
0400
8480
8440
8460
0C00
0400
ENDCHAR
STARTCHAR 30DE
ENCODING 11102
SWIDTH 1600 0
DWIDTH 16 0
BBX 12 7 2 2
BITMAP
01F0
1F30
E060
00C0
0D00
0600
0200
ENDCHAR
STARTCHAR 30DF
ENCODING 11103
SWIDTH 1600 0
DWIDTH 16 0
BBX 7 11 4 0
BITMAP
40
38
04
00
40
38
04
00
80
78
0E
ENDCHAR
STARTCHAR 30E0
ENCODING 11104
SWIDTH 1600 0
DWIDTH 16 0
BBX 11 9 3 1
BITMAP
0400
0400
0C00
0800
0800
1100
2080
20C0
FF60
ENDCHAR
STARTCHAR 30E1
ENCODING 11105
SWIDTH 1600 0
DWIDTH 16 0
BBX 9 10 4 0
BITMAP
0100
0180
0300
0200
0C00
0E00
1A00
2000
4000
8000
ENDCHAR
STARTCHAR 30E2
ENCODING 11106
SWIDTH 1600 0
DWIDTH 16 0
BBX 11 10 3 0
BITMAP
0380
3C00
0800
0800
0BE0
FC00
0800
0800
0800
07E0
ENDCHAR
STARTCHAR 30E3
ENCODING 11107
SWIDTH 1600 0
DWIDTH 16 0
BBX 10 8 3 -1
BITMAP
1000
1080
1FC0
E900
0800
0800
0400
0400
ENDCHAR
STARTCHAR 30E4
ENCODING 11108
SWIDTH 1600 0
DWIDTH 16 0
BBX 13 10 1 0
BITMAP
0400
0410
07E8
9A10
6260
0200
0200
0100
0100
0180
ENDCHAR
STARTCHAR 30E5
ENCODING 11109
SWIDTH 1600 0
DWIDTH 16 0
BBX 10 5 3 -1
BITMAP
3E00
0200
0200
0400
FFC0
ENDCHAR
STARTCHAR 30E6
ENCODING 11110
SWIDTH 1600 0
DWIDTH 16 0
BBX 12 7 2 1
BITMAP
3F80
0180
0100
0100
0100
FFF0
C000
ENDCHAR
STARTCHAR 30E7
ENCODING 11111
SWIDTH 1600 0
DWIDTH 16 0
BBX 6 7 5 -1
BITMAP
04
FC
04
FC
04
08
FC
ENDCHAR
STARTCHAR 30E8
ENCODING 11112
SWIDTH 1600 0
DWIDTH 16 0
BBX 9 8 4 1
BITMAP
FF00
0180
0100
FF00
0100
0200
0200
FE00
ENDCHAR
STARTCHAR 30E9
ENCODING 11113
SWIDTH 1600 0
DWIDTH 16 0
BBX 10 12 3 -1
BITMAP
4300
3F00
0000
0380
FCC0
0080
0100
0200
0600
0C00
1000
2000
ENDCHAR
STARTCHAR 30EA
ENCODING 11114
SWIDTH 1600 0
DWIDTH 16 0
BBX 6 11 5 0
BITMAP
0C
84
84
84
84
84
84
84
08
08
10
ENDCHAR
STARTCHAR 30EB
ENCODING 11115
SWIDTH 1600 0
DWIDTH 16 0
BBX 13 10 1 0
BITMAP
0200
1180
1900
1100
1100
1108
2130
21C0
4180
8000
ENDCHAR
STARTCHAR 30EC
ENCODING 11116
SWIDTH 1600 0
DWIDTH 16 0
BBX 9 9 4 1
BITMAP
8000
4000
4000
4000
4180
4200
4C00
5800
6000
ENDCHAR
STARTCHAR 30ED
ENCODING 11117
SWIDTH 1600 0
DWIDTH 16 0
BBX 10 8 3 1
BITMAP
FF80
40C0
4080
4080
4080
4100
7F00
4000
ENDCHAR
STARTCHAR 30EE
ENCODING 11118
SWIDTH 1600 0
DWIDTH 16 0
BBX 8 7 4 -1
BITMAP
FF
81
82
82
04
08
10
ENDCHAR
STARTCHAR 30EF
ENCODING 11119
SWIDTH 1600 0
DWIDTH 16 0
BBX 10 10 3 0
BITMAP
FFC0
80C0
8080
8080
C100
0100
0200
0400
0800
1000
ENDCHAR
STARTCHAR 30F0
ENCODING 11120
SWIDTH 1600 0
DWIDTH 16 0
BBX 12 13 2 -1
BITMAP
0100
0100
0100
3FE0
0100
0100
1100
1100
FFF0
0100
0100
0100
0100
ENDCHAR
STARTCHAR 30F1
ENCODING 11121
SWIDTH 1600 0
DWIDTH 16 0
BBX 12 8 2 1
BITMAP
3FC0
0080
0700
0400
0400
0400
9FF0
E010
ENDCHAR
STARTCHAR 30F2
ENCODING 11122
SWIDTH 1600 0
DWIDTH 16 0
BBX 10 12 3 -1
BITMAP
0080
7FC0
0080
0080
BF80
6100
0200
0200
0400
0800
1000
6000
ENDCHAR
STARTCHAR 30F3
ENCODING 11123
SWIDTH 1600 0
DWIDTH 16 0
BBX 10 8 4 1
BITMAP
C000
2040
0080
0100
0600
0800
3000
E000
ENDCHAR
STARTCHAR 30F4
ENCODING 11124
SWIDTH 1600 0
DWIDTH 16 0
BBX 13 12 3 -1
BITMAP
0C00
0828
BFD0
C040
80C0
8080
C080
0100
0200
0400
0800
1000
ENDCHAR
STARTCHAR 30F5
ENCODING 11125
SWIDTH 1600 0
DWIDTH 16 0
BBX 7 8 5 -1
BITMAP
10
10
FE
24
44
44
84
18
ENDCHAR
STARTCHAR 30F6
ENCODING 11126
SWIDTH 1600 0
DWIDTH 16 0
BBX 7 8 4 -1
BITMAP
20
20
7E
84
08
08
10
20
ENDCHAR
STARTCHAR 0410
ENCODING 11297
SWIDTH 1600 0
DWIDTH 16 0
BBX 11 11 2 0
BITMAP
0400
0C00
0A00
0A00
1100
1100
2080
3F80
4040
4040
E0E0
ENDCHAR
STARTCHAR 0411
ENCODING 11298
SWIDTH 1600 0
DWIDTH 16 0
BBX 9 11 3 0
BITMAP
7F80
2080
2080
2000
2000
3F00
2180
2080
2080
2180
FF00
ENDCHAR
STARTCHAR 0412
ENCODING 11299
SWIDTH 1600 0
DWIDTH 16 0
BBX 9 11 3 0
BITMAP
7E00
2100
2080
2100
2100
3E00
2100
2080
2080
2180
FF00
ENDCHAR
STARTCHAR 0413
ENCODING 11300
SWIDTH 1600 0
DWIDTH 16 0
BBX 10 11 3 0
BITMAP
FFC0
2040
2040
2000
2000
2000
2000
2000
2000
2000
F000
ENDCHAR
STARTCHAR 0414
ENCODING 11301
SWIDTH 1600 0
DWIDTH 16 0
BBX 12 14 2 -3
BITMAP
3FF0
0840
0840
0840
0840
1040
1040
2040
2040
4040
7FC0
8030
8010
0010
ENDCHAR
STARTCHAR 0415
ENCODING 11302
SWIDTH 1600 0
DWIDTH 16 0
BBX 10 11 3 0
BITMAP
FF80
2080
2000
2000
2000
3F00
2000
2000
2000
2040
6180
ENDCHAR
STARTCHAR 0401
ENCODING 11303
SWIDTH 1600 0
DWIDTH 16 0
BBX 10 12 3 0
BITMAP
3300
0100
FF80
2080
2000
2000
3F00
2100
2000
2000
2040
FF80
ENDCHAR
STARTCHAR 0416
ENCODING 11304
SWIDTH 1600 0
DWIDTH 16 0
BBX 15 12 0 0
BITMAP
4004
E7CE
1110
1120
1120
0920
07C0
0D60
1930
1110
2108
67CC
ENDCHAR
STARTCHAR 0417
ENCODING 11305
SWIDTH 1600 0
DWIDTH 16 0
BBX 8 12 4 -1
BITMAP
7C
42
02
02
06
18
06
02
03
82
46
38
ENDCHAR
STARTCHAR 0418
ENCODING 11306
SWIDTH 1600 0
DWIDTH 16 0
BBX 12 11 2 0
BITMAP
F9F0
2040
21C0
2140
2240
2440
2840
2840
3040
2040
F9F0
ENDCHAR
STARTCHAR 0419
ENCODING 11307
SWIDTH 1600 0
DWIDTH 16 0
BBX 10 12 3 0
BITMAP
3300
0E00
E1C0
4080
4180
4280
4480
4880
5080
6080
4080
E1C0
ENDCHAR
STARTCHAR 041A
ENCODING 11308
SWIDTH 1600 0
DWIDTH 16 0
BBX 11 12 2 -1
BITMAP
F8E0
2120
2100
2200
2200
3C00
2600
2300
2100
2080
F840
0020
ENDCHAR
STARTCHAR 041B
ENCODING 11309
SWIDTH 1600 0
DWIDTH 16 0
BBX 12 11 2 0
BITMAP
3FF0
0840
0840
0840
0840
0840
0840
0840
1040
9040
E0E0
ENDCHAR
STARTCHAR 041C
ENCODING 11310
SWIDTH 1600 0
DWIDTH 16 0
BBX 15 11 0 0
BITMAP
600C
3018
3028
2828
2848
2448
2448
2288
2288
2108
F03E
ENDCHAR
STARTCHAR 041D
ENCODING 11311
SWIDTH 1600 0
DWIDTH 16 0
BBX 12 11 2 0
BITMAP
F9F0
2040
2040
2040
2040
3FC0
2040
2040
2040
2040
F870
ENDCHAR
STARTCHAR 041E
ENCODING 11312
SWIDTH 1600 0
DWIDTH 16 0
BBX 10 11 3 0
BITMAP
1E00
6180
4080
8040
8040
8040
8040
8040
4080
6180
1E00
ENDCHAR
STARTCHAR 041F
ENCODING 11313
SWIDTH 1600 0
DWIDTH 16 0
BBX 12 11 2 0
BITMAP
FFE0
2040
2040
2040
2040
2040
2040
2040
2040
2040
78F0
ENDCHAR
STARTCHAR 0420
ENCODING 11314
SWIDTH 1600 0
DWIDTH 16 0
BBX 10 11 3 0
BITMAP
7F00
20C0
2040
2040
20C0
3F00
2000
2000
2000
2000
F800
ENDCHAR
STARTCHAR 0421
ENCODING 11315
SWIDTH 1600 0
DWIDTH 16 0
BBX 10 12 3 -1
BITMAP
1F40
20C0
4040
8000
8000
8000
8000
8000
4000
6040
1980
0600
ENDCHAR
STARTCHAR 0422
ENCODING 11316
SWIDTH 1600 0
DWIDTH 16 0
BBX 11 11 2 0
BITMAP
7FE0
8420
8420
0400
0400
0400
0400
0400
0400
0400
0C00
ENDCHAR
STARTCHAR 0423
ENCODING 11317
SWIDTH 1600 0
DWIDTH 16 0
BBX 12 11 2 0
BITMAP
F870
2020
1040
1040
0880
0900
0500
0600
0200
2400
3C00
ENDCHAR
STARTCHAR 0424
ENCODING 11318
SWIDTH 1600 0
DWIDTH 16 0
BBX 11 11 2 0
BITMAP
0F80
0200
1F00
62C0
8220
8220
8220
C220
6240
1F80
0E00
ENDCHAR
STARTCHAR 0425
ENCODING 11319
SWIDTH 1600 0
DWIDTH 16 0
BBX 12 11 2 0
BITMAP
78F0
1040
1080
0900
0600
0400
0A00
1100
2080
2040
C0E0
ENDCHAR
STARTCHAR 0426
ENCODING 11320
SWIDTH 1600 0
DWIDTH 16 0
BBX 12 14 2 -3
BITMAP
79F0
2040
2040
2040
2040
2040
2040
2040
2040
2040
FFC0
0030
0010
0010
ENDCHAR
STARTCHAR 0427
ENCODING 11321
SWIDTH 1600 0
DWIDTH 16 0
BBX 12 11 2 0
BITMAP
F9F0
2040
2040
2040
2040
2040
20C0
1F40
0040
0040
00F0
ENDCHAR
STARTCHAR 0428
ENCODING 11322
SWIDTH 1600 0
DWIDTH 16 0
BBX 14 11 1 0
BITMAP
F71C
4208
4208
4208
4208
4208
4208
4208
4208
4208
C208
ENDCHAR
STARTCHAR 0429
ENCODING 11323
SWIDTH 1600 0
DWIDTH 16 0
BBX 16 13 0 -2
BITMAP
7B9E
2104
2104
2104
2104
2104
2104
2104
2104
2104
FFFC
0003
0001
ENDCHAR
STARTCHAR 042A
ENCODING 11324
SWIDTH 1600 0
DWIDTH 16 0
BBX 11 11 3 0
BITMAP
FC00
8800
0800
0800
0800
0FC0
0860
0820
0820
0860
3FC0
ENDCHAR
STARTCHAR 042B
ENCODING 11325
SWIDTH 1600 0
DWIDTH 16 0
BBX 14 11 1 0
BITMAP
F03C
2008
2008
2008
2008
3F08
2188
2088
2088
2188
FF38
ENDCHAR
STARTCHAR 042C
ENCODING 11326
SWIDTH 1600 0
DWIDTH 16 0
BBX 9 12 3 -1
BITMAP
F800
2000
2000
2000
2000
3E00
2180
2080
2080
2080
6300
1C00
ENDCHAR
STARTCHAR 042D
ENCODING 11327
SWIDTH 1600 0
DWIDTH 16 0
BBX 10 12 3 -1
BITMAP
BF00
C080
8080
0040
0040
0FC0
0040
0040
00C0
8080
4300
3C00
ENDCHAR
STARTCHAR 042E
ENCODING 11328
SWIDTH 1600 0
DWIDTH 16 0
BBX 15 12 0 -1
BITMAP
F8F0
218C
2104
2202
2202
3E02
2202
2202
2202
2104
F98C
0070
ENDCHAR
STARTCHAR 042F
ENCODING 11329
SWIDTH 1600 0
DWIDTH 16 0
BBX 11 11 3 0
BITMAP
1FE0
3080
2080
2080
1080
0F80
0880
1880
1080
2080
C180
ENDCHAR
STARTCHAR 0430
ENCODING 11345
SWIDTH 1600 0
DWIDTH 16 0
BBX 6 7 4 0
BITMAP
7C
44
0C
34
44
84
7C
ENDCHAR
STARTCHAR 0431
ENCODING 11346
SWIDTH 1600 0
DWIDTH 16 0
BBX 8 11 4 0
BITMAP
01
3E
40
58
E4
82
81
81
81
42
3C
ENDCHAR
STARTCHAR 0432
ENCODING 11347
SWIDTH 1600 0
DWIDTH 16 0
BBX 6 7 5 0
BITMAP
F8
44
44
78
44
44
7C
ENDCHAR
STARTCHAR 0433
ENCODING 11348
SWIDTH 1600 0
DWIDTH 16 0
BBX 6 7 5 0
BITMAP
7C
44
40
40
40
40
C0
ENDCHAR
STARTCHAR 0434
ENCODING 11349
SWIDTH 1600 0
DWIDTH 16 0
BBX 10 9 3 -2
BITMAP
3F80
1100
1100
2100
2100
4100
7F00
8080
8040
ENDCHAR
STARTCHAR 0435
ENCODING 11350
SWIDTH 1600 0
DWIDTH 16 0
BBX 6 8 5 -1
BITMAP
F0
8C
FC
80
80
80
48
30
ENDCHAR
STARTCHAR 0451
ENCODING 11351
SWIDTH 1600 0
DWIDTH 16 0
BBX 6 11 5 -1
BITMAP
48
48
00
78
84
FC
80
80
80
48
30
ENDCHAR
STARTCHAR 0436
ENCODING 11352
SWIDTH 1600 0
DWIDTH 16 0
BBX 11 8 2 -1
BITMAP
EC60
2580
1500
1F00
2480
4480
4440
0020
ENDCHAR
STARTCHAR 0437
ENCODING 11353
SWIDTH 1600 0
DWIDTH 16 0
BBX 6 8 5 -1
BITMAP
F8
88
08
18
04
04
88
70
ENDCHAR
STARTCHAR 0438
ENCODING 11354
SWIDTH 1600 0
DWIDTH 16 0
BBX 7 7 4 0
BITMAP
E6
42
42
5E
62
42
C2
ENDCHAR
STARTCHAR 0439
ENCODING 11355
SWIDTH 1600 0
DWIDTH 16 0
BBX 8 11 4 -1
BITMAP
66
64
18
E6
42
42
5E
62
42
C2
01
ENDCHAR
STARTCHAR 043A
ENCODING 11356
SWIDTH 1600 0
DWIDTH 16 0
BBX 6 7 6 0
BITMAP
CC
B0
A0
E0
90
90
88
ENDCHAR
STARTCHAR 043B
ENCODING 11357
SWIDTH 1600 0
DWIDTH 16 0
BBX 9 8 3 -1
BITMAP
3F00
1100
1100
1100
1100
1100
E380
C000
ENDCHAR
STARTCHAR 043C
ENCODING 11358
SWIDTH 1600 0
DWIDTH 16 0
BBX 11 7 2 0
BITMAP
4060
60C0
5140
5140
4A40
4C40
C4E0
ENDCHAR
STARTCHAR 043D
ENCODING 11359
SWIDTH 1600 0
DWIDTH 16 0
BBX 9 8 3 -1
BITMAP
F100
2100
2100
3F00
2100
2100
6100
0080
ENDCHAR
STARTCHAR 043E
ENCODING 11360
SWIDTH 1600 0
DWIDTH 16 0
BBX 8 8 4 0
BITMAP
3C
42
81
81
81
81
42
3C
ENDCHAR
STARTCHAR 043F
ENCODING 11361
SWIDTH 1600 0
DWIDTH 16 0
BBX 7 7 4 0
BITMAP
FE
42
42
42
42
42
C2
ENDCHAR
STARTCHAR 0440
ENCODING 11362
SWIDTH 1600 0
DWIDTH 16 0
BBX 8 11 4 -3
BITMAP
4C
76
41
41
41
41
42
64
58
40
E0
ENDCHAR
STARTCHAR 0441
ENCODING 11363
SWIDTH 1600 0
DWIDTH 16 0
BBX 6 8 5 0
BITMAP
38
44
84
80
80
80
84
78
ENDCHAR
STARTCHAR 0442
ENCODING 11364
SWIDTH 1600 0
DWIDTH 16 0
BBX 7 7 4 0
BITMAP
FE
12
10
10
10
10
38
ENDCHAR
STARTCHAR 0443
ENCODING 11365
SWIDTH 1600 0
DWIDTH 16 0
BBX 8 11 4 -4
BITMAP
E3
42
22
24
14
18
08
10
10
E0
40
ENDCHAR
STARTCHAR 0444
ENCODING 11366
SWIDTH 1600 0
DWIDTH 16 0
BBX 10 14 3 -3
BITMAP
0C00
0400
0400
0400
7F80
4440
8440
8440
8440
4440
4C80
3700
0400
0400
ENDCHAR
STARTCHAR 0445
ENCODING 11367
SWIDTH 1600 0
DWIDTH 16 0
BBX 6 7 5 0
BITMAP
C4
58
30
30
50
88
8C
ENDCHAR
STARTCHAR 0446
ENCODING 11368
SWIDTH 1600 0
DWIDTH 16 0
BBX 9 9 4 -2
BITMAP
E700
4200
4200
4200
4200
4200
C200
3D80
0080
ENDCHAR
STARTCHAR 0447
ENCODING 11369
SWIDTH 1600 0
DWIDTH 16 0
BBX 7 8 4 -1
BITMAP
EC
44
44
4C
34
04
04
02
ENDCHAR
STARTCHAR 0448
ENCODING 11370
SWIDTH 1600 0
DWIDTH 16 0
BBX 12 8 2 -1
BITMAP
E770
4220
4220
4220
4220
4220
4220
3DC0
ENDCHAR
STARTCHAR 0449
ENCODING 11371
SWIDTH 1600 0
DWIDTH 16 0
BBX 13 9 2 -2
BITMAP
EF78
4420
4420
4420
4420
4420
7FE0
0018
0008
ENDCHAR
STARTCHAR 044A
ENCODING 11372
SWIDTH 1600 0
DWIDTH 16 0
BBX 8 7 4 0
BITMAP
7C
90
10
1E
11
11
1E
ENDCHAR
STARTCHAR 044B
ENCODING 11373
SWIDTH 1600 0
DWIDTH 16 0
BBX 10 8 3 -1
BITMAP
E1C0
4080
4080
7880
4480
4480
C980
3040
ENDCHAR
STARTCHAR 044C
ENCODING 11374
SWIDTH 1600 0
DWIDTH 16 0
BBX 6 8 5 -1
BITMAP
E0
40
40
78
44
44
C8
30
ENDCHAR
STARTCHAR 044D
ENCODING 11375
SWIDTH 1600 0
DWIDTH 16 0
BBX 6 8 5 0
BITMAP
F8
88
04
3C
04
04
88
70
ENDCHAR
STARTCHAR 044E
ENCODING 11376
SWIDTH 1600 0
DWIDTH 16 0
BBX 12 8 2 -1
BITMAP
E3C0
4420
4810
7810
4810
4820
4420
03C0
ENDCHAR
STARTCHAR 044F
ENCODING 11377
SWIDTH 1600 0
DWIDTH 16 0
BBX 5 7 5 0
BITMAP
F8
88
88
78
48
48
88
ENDCHAR
STARTCHAR AC00
ENCODING 12321
SWIDTH 1600 0
DWIDTH 16 0
BBX 15 14 1 -2
BITMAP
00C0
0030
0020
7F20
0220
0220
042E
0430
0820
1020
2020
C020
0020
0020
ENDCHAR
STARTCHAR AC01
ENCODING 12322
SWIDTH 1600 0
DWIDTH 16 0
BBX 13 15 2 -3
BITMAP
0080
0040
FE40
0440
0840
1878
1040
6040
8040
3FC0
0040
0040
0040
0040
0040
ENDCHAR
STARTCHAR AC04
ENCODING 12323
SWIDTH 1600 0
DWIDTH 16 0
BBX 13 14 2 -2
BITMAP
0080
0040
8E40
7440
0840
0840
1078
2040
4040
8040
1800
0800
0800
0FF0
ENDCHAR
STARTCHAR AC07
ENCODING 12324
SWIDTH 1600 0
DWIDTH 16 0
BBX 13 14 2 -2
BITMAP
00C0
0040
FC40
0C40
0840
1078
2040
4040
8040
3FC0
1000
1000
1000
1FE0
ENDCHAR
STARTCHAR AC08
ENCODING 12325
SWIDTH 1600 0
DWIDTH 16 0
BBX 13 14 2 -2
BITMAP
00C0
0040
FE40
0440
0840
0878
1040
2040
FFC0
0040
0040
1FC0
1000
1FE0
ENDCHAR
STARTCHAR AC09
ENCODING 12326
SWIDTH 1600 0
DWIDTH 16 0
BBX 13 14 2 -2
BITMAP
0180
0040
FE40
0440
0858
0860
1040
2000
7DE0
8420
7C20
2020
2620
1820
ENDCHAR
STARTCHAR AC0A
ENCODING 12327
SWIDTH 1600 0
DWIDTH 16 0
BBX 13 14 2 -2
BITMAP
0180
0040
FE40
0440
0840
0878
1040
6040
BFA0
0520
6520
3920
23E0
3D00
ENDCHAR
STARTCHAR AC10
ENCODING 12328
SWIDTH 1600 0
DWIDTH 16 0
BBX 12 15 2 -3
BITMAP
0180
00C0
FE40
0440
0840
0840
1070
2040
C040
1FC0
0840
0840
0880
0FC0
0800
ENDCHAR
STARTCHAR AC11
ENCODING 12329
SWIDTH 1600 0
DWIDTH 16 0
BBX 13 15 2 -3
BITMAP
0180
00C0
FE40
0440
0840
0848
1070
2040
C0C0
0840
0FC0
0840
0840
0FC0
0840
ENDCHAR
STARTCHAR AC12
ENCODING 12330
SWIDTH 1600 0
DWIDTH 16 0
BBX 13 15 2 -3
BITMAP
0180
00C0
FE40
0440
0840
0848
1070
2040
CCC0
2440
3C40
24A0
2530
3E10
2400
ENDCHAR
STARTCHAR AC13
ENCODING 12331
SWIDTH 1600 0
DWIDTH 16 0
BBX 13 14 2 -2
BITMAP
00C0
0040
FE40
0440
0840
0878
1040
2040
C240
0100
0300
04C0
0820
3010
ENDCHAR
STARTCHAR AC14
ENCODING 12332
SWIDTH 1600 0
DWIDTH 16 0
BBX 13 14 2 -2
BITMAP
0180
00C0
FE40
0440
0840
0840
1078
2040
D0C0
0840
1880
14C0
2120
4210
ENDCHAR
STARTCHAR AC15
ENCODING 12333
SWIDTH 1600 0
DWIDTH 16 0
BBX 13 14 2 -2
BITMAP
00C0
0040
FE40
0440
0840
0878
1040
2040
C140
0680
0840
0840
0CC0
0780
ENDCHAR
STARTCHAR AC16
ENCODING 12334
SWIDTH 1600 0
DWIDTH 16 0
BBX 13 14 2 -2
BITMAP
0180
00C0
FE40
0440
0840
0840
1078
2040
C040
3FC0
0200
0500
08C0
3020
ENDCHAR
STARTCHAR AC17
ENCODING 12335
SWIDTH 1600 0
DWIDTH 16 0
BBX 13 15 2 -3
BITMAP
00C0
0040
FE40
0440
0C40
0878
1040
67C0
8000
3FF0
0300
0680
0860
1010
2000
ENDCHAR
STARTCHAR AC19
ENCODING 12336
SWIDTH 1600 0
DWIDTH 16 0
BBX 13 14 2 -2
BITMAP
0180
00C0
FE40
0440
0840
0840
1078
2040
C040
0FE0
0800
0FC0
0800
0FE0
ENDCHAR
STARTCHAR AC1A
ENCODING 12337
SWIDTH 1600 0
DWIDTH 16 0
BBX 13 15 2 -3
BITMAP
0180
00C0
FE40
0440
0840
0840
1078
2040
C040
3FE0
0080
0880
0500
3FE0
1000
ENDCHAR
STARTCHAR AC1B
ENCODING 12338
SWIDTH 1600 0
DWIDTH 16 0
BBX 13 14 2 -2
BITMAP
0180
0040
7E40
0240
0440
0878
1040
2040
C7C0
3E20
0380
0480
0480
0380
ENDCHAR
STARTCHAR AC1C
ENCODING 12339
SWIDTH 1600 0
DWIDTH 16 0
BBX 11 15 2 -3
BITMAP
00C0
0320
0120
0920
7920
1120
1120
11E0
2120
4120
8120
0120
0120
0120
0020
ENDCHAR
STARTCHAR AC1D
ENCODING 12340
SWIDTH 1600 0
DWIDTH 16 0
BBX 10 14 3 -2
BITMAP
00C0
0240
0240
F240
1240
23C0
2240
4240
8240
7FC0
0040
0040
0040
0040
ENDCHAR
STARTCHAR AC20
ENCODING 12341
SWIDTH 1600 0
DWIDTH 16 0
BBX 12 14 2 -2
BITMAP
0060
0120
0120
FD20
0920
0920
11E0
2120
4120
8120
1820
0800
0800
0FF0
ENDCHAR
STARTCHAR AC24
ENCODING 12342
SWIDTH 1600 0
DWIDTH 16 0
BBX 11 14 3 -2
BITMAP
04C0
0240
0240
F240
1240
23C0
2240
4240
8000
3FC0
0040
1FC0
1000
1FE0
ENDCHAR
STARTCHAR AC2C
ENCODING 12343
SWIDTH 1600 0
DWIDTH 16 0
BBX 10 15 3 -3
BITMAP
04C0
0240
0240
F240
1240
23C0
2240
4240
8240
3FC0
1080
1080
1080
1F80
1000
ENDCHAR
STARTCHAR AC2D
ENCODING 12344
SWIDTH 1600 0
DWIDTH 16 0
BBX 10 15 3 -3
BITMAP
04C0
0240
0240
F240
1240
23C0
2240
4240
80C0
0840
0FC0
0840
0840
0FC0
0840
ENDCHAR
STARTCHAR AC2F
ENCODING 12345
SWIDTH 1600 0
DWIDTH 16 0
BBX 12 14 2 -2
BITMAP
0060
0320
0120
7D20
0920
1120
11E0
2120
C320
0120
0300
06C0
0820
1010
ENDCHAR
STARTCHAR AC30
ENCODING 12346
SWIDTH 1600 0
DWIDTH 16 0
BBX 12 14 2 -2
BITMAP
0060
0120
FD20
0920
0920
11E0
2120
4120
8940
0440
0CC0
12A0
2110
4210
ENDCHAR
STARTCHAR AC31
ENCODING 12347
SWIDTH 1600 0
DWIDTH 16 0
BBX 10 14 3 -2
BITMAP
00C0
0440
0240
FA40
1240
2240
23C0
4240
8240
07C0
0840
0840
0C40
0780
ENDCHAR
STARTCHAR AC38
ENCODING 12348
SWIDTH 1600 0
DWIDTH 16 0
BBX 14 14 1 -2
BITMAP
0060
0030
0020
7F20
0220
0238
0420
0420
0820
103C
2020
C020
0020
0020
ENDCHAR
STARTCHAR AC39
ENCODING 12349
SWIDTH 1600 0
DWIDTH 16 0
BBX 13 15 2 -3
BITMAP
00C0
0040
FE40
0458
0860
0840
1048
2070
4000
FFC0
0040
0040
0040
0040
0040
ENDCHAR
STARTCHAR AC3C
ENCODING 12350
SWIDTH 1600 0
DWIDTH 16 0
BBX 13 14 2 -2
BITMAP
00C0
0040
FE40
0640
0470
0840
1040
2058
4060
8040
1840
0800
0800
0FF0
ENDCHAR
STARTCHAR AC40
ENCODING 12351
SWIDTH 1600 0
DWIDTH 16 0
BBX 13 14 2 -2
BITMAP
0180
00C0
FE40
0440
0C78
0840
1040
2058
C060
1FC0
0040
0FC0
0800
0FF0
ENDCHAR
STARTCHAR AC4B
ENCODING 12352
SWIDTH 1600 0
DWIDTH 16 0
BBX 13 14 2 -2
BITMAP
00C0
0040
FE40
0478
0840
0840
1078
2040
4340
8240
0380
0440
0820
3010
ENDCHAR
STARTCHAR AC4D
ENCODING 12353
SWIDTH 1600 0
DWIDTH 16 0
BBX 14 14 1 -2
BITMAP
0060
0020
7F20
0220
0438
0420
0820
103C
60A0
8340
0420
0420
0660
03C0
ENDCHAR
STARTCHAR AC54
ENCODING 12354
SWIDTH 1600 0
DWIDTH 16 0
BBX 11 15 2 -3
BITMAP
0060
0320
0120
FD20
0920
09E0
1120
1120
2120
41E0
8120
0120
0120
0120
0020
ENDCHAR
STARTCHAR AC58
ENCODING 12355
SWIDTH 1600 0
DWIDTH 16 0
BBX 14 13 1 -1
BITMAP
0030
0090
0090
7C90
04F0
0890
1090
10F0
6090
8C90
0490
0400
03FC
ENDCHAR
STARTCHAR AC5C
ENCODING 12356
SWIDTH 1600 0
DWIDTH 16 0
BBX 12 14 2 -2
BITMAP
00C0
0320
0120
7920
09E0
1120
21E0
4120
9FE0
0020
1FE0
0800
0800
0FF0
ENDCHAR
STARTCHAR AC70
ENCODING 12357
SWIDTH 1600 0
DWIDTH 16 0
BBX 11 14 2 -2
BITMAP
00E0
0020
0020
FE20
0620
0420
0BE0
0820
1020
2020
4020
8020
0020
0020
ENDCHAR
STARTCHAR AC71
ENCODING 12358
SWIDTH 1600 0
DWIDTH 16 0
BBX 12 15 1 -3
BITMAP
0030
0010
7F10
0210
0410
04F0
0810
1010
2000
DFF0
0010
0010
0010
0010
0010
ENDCHAR
STARTCHAR AC74
ENCODING 12359
SWIDTH 1600 0
DWIDTH 16 0
BBX 12 14 2 -2
BITMAP
0060
0020
0020
7E20
0420
0BE0
1820
1020
6020
8020
1820
0800
0800
0FF0
ENDCHAR
STARTCHAR AC77
ENCODING 12360
SWIDTH 1600 0
DWIDTH 16 0
BBX 12 14 2 -2
BITMAP
0060
0020
FE20
0620
0420
09E0
1020
2020
4020
8020
0FE0
0800
0800
0FF0
ENDCHAR
STARTCHAR AC78
ENCODING 12361
SWIDTH 1600 0
DWIDTH 16 0
BBX 12 14 2 -2
BITMAP
0060
0020
FE20
0420
07E0
0820
1020
2020
4020
9FE0
0020
1FE0
0800
0FF0
ENDCHAR
STARTCHAR AC7A
ENCODING 12362
SWIDTH 1600 0
DWIDTH 16 0
BBX 12 14 1 -2
BITMAP
0030
0010
3F10
0310
03F0
0410
0810
1010
2010
DEF0
0290
1CA0
1CF0
0080
ENDCHAR
STARTCHAR AC80
ENCODING 12363
SWIDTH 1600 0
DWIDTH 16 0
BBX 11 15 2 -3
BITMAP
0060
0020
FE20
0420
0420
09E0
1020
2020
4020
9FE0
0840
0840
0840
0FE0
0800
ENDCHAR
STARTCHAR AC81
ENCODING 12364
SWIDTH 1600 0
DWIDTH 16 0
BBX 11 15 2 -3
BITMAP
0060
0020
FE20
0420
0420
09E0
1020
2020
5020
8820
0FE0
0820
0820
0FE0
0820
ENDCHAR
STARTCHAR AC83
ENCODING 12365
SWIDTH 1600 0
DWIDTH 16 0
BBX 12 14 2 -2
BITMAP
0060
0020
FE20
0420
0420
09E0
1020
2020
4220
8100
0300
04C0
0820
3010
ENDCHAR
STARTCHAR AC84
ENCODING 12366
SWIDTH 1600 0
DWIDTH 16 0
BBX 12 14 2 -2
BITMAP
0060
FE20
0420
0820
0BE0
1020
2020
4020
8840
0840
0CC0
12A0
2110
4000
ENDCHAR
STARTCHAR AC85
ENCODING 12367
SWIDTH 1600 0
DWIDTH 16 0
BBX 11 14 2 -2
BITMAP
0060
0020
FE20
0420
0420
09E0
1020
2020
40A0
8340
0420
0420
0660
03C0
ENDCHAR
STARTCHAR AC86
ENCODING 12368
SWIDTH 1600 0
DWIDTH 16 0
BBX 13 15 1 -3
BITMAP
0030
0010
7F10
0210
0410
04F0
0810
1010
6010
9FF0
0080
0180
0260
0418
1800
ENDCHAR
STARTCHAR AC89
ENCODING 12369
SWIDTH 1600 0
DWIDTH 16 0
BBX 12 14 2 -2
BITMAP
0060
0020
FE20
0420
0820
09E0
1020
6020
8000
0FE0
0800
0FE0
0800
07F0
ENDCHAR
STARTCHAR AC8A
ENCODING 12370
SWIDTH 1600 0
DWIDTH 16 0
BBX 12 14 2 -2
BITMAP
0060
0020
FE20
0420
0420
09E0
1020
2020
4020
BFE0
0840
0480
0480
3FF0
ENDCHAR
STARTCHAR AC8B
ENCODING 12371
SWIDTH 1600 0
DWIDTH 16 0
BBX 11 14 2 -2
BITMAP
0060
0020
7E20
0420
0BE0
0820
1020
6020
83A0
1F40
0180
0640
0440
0380
ENDCHAR
STARTCHAR AC8C
ENCODING 12372
SWIDTH 1600 0
DWIDTH 16 0
BBX 11 15 2 -3
BITMAP
00C0
0360
0120
F920
0920
1120
1F20
2120
2120
4120
8120
0120
0120
0120
0020
ENDCHAR
STARTCHAR AC90
ENCODING 12373
SWIDTH 1600 0
DWIDTH 16 0
BBX 13 14 1 -2
BITMAP
0030
0090
0090
7C90
0890
0F90
1090
2090
4090
8090
0C10
0400
0400
07F8
ENDCHAR
STARTCHAR AC94
ENCODING 12374
SWIDTH 1600 0
DWIDTH 16 0
BBX 13 14 1 -2
BITMAP
0030
0190
0090
3C90
0C90
0F90
1090
2090
4080
8FF0
0010
0FF0
0400
07F8
ENDCHAR
STARTCHAR AC9C
ENCODING 12375
SWIDTH 1600 0
DWIDTH 16 0
BBX 11 15 2 -3
BITMAP
0060
0220
0120
F920
0920
1F20
2120
2120
4100
9FC0
0840
0840
0840
0FC0
0800
ENDCHAR
STARTCHAR AC9D
ENCODING 12376
SWIDTH 1600 0
DWIDTH 16 0
BBX 11 15 2 -3
BITMAP
0260
0120
F920
0920
1920
1F20
2120
4120
8060
0420
07E0
0420
0420
07E0
0420
ENDCHAR
STARTCHAR AC9F
ENCODING 12377
SWIDTH 1600 0
DWIDTH 16 0
BBX 13 14 1 -2
BITMAP
0030
0190
0090
3C90
0C90
0F90
1090
2090
4190
8080
0080
0160
0618
0808
ENDCHAR
STARTCHAR ACA0
ENCODING 12378
SWIDTH 1600 0
DWIDTH 16 0
BBX 14 14 1 -2
BITMAP
0030
0190
0090
3C90
0490
0F90
1090
2090
4080
8630
0620
0670
0948
1184
ENDCHAR
STARTCHAR ACA1
ENCODING 12379
SWIDTH 1600 0
DWIDTH 16 0
BBX 11 14 2 -2
BITMAP
0260
0120
F920
0920
1120
1F20
2120
4120
8000
03C0
0420
0420
0620
03C0
ENDCHAR
STARTCHAR ACA8
ENCODING 12380
SWIDTH 1600 0
DWIDTH 16 0
BBX 11 14 2 -2
BITMAP
0060
0020
0220
7E20
05E0
0C20
0820
13E0
2020
4020
8020
0020
0020
0020
ENDCHAR
STARTCHAR ACA9
ENCODING 12381
SWIDTH 1600 0
DWIDTH 16 0
BBX 11 15 2 -3
BITMAP
00C0
0060
FE20
0420
05E0
0820
1020
21E0
4020
BFE0
0020
0020
0020
0020
0020
ENDCHAR
STARTCHAR ACAA
ENCODING 12382
SWIDTH 1600 0
DWIDTH 16 0
BBX 12 14 1 -2
BITMAP
0060
0030
7F10
0210
04F0
0410
0810
10F0
2010
DE70
0210
0210
0210
0210
ENDCHAR
STARTCHAR ACAC
ENCODING 12383
SWIDTH 1600 0
DWIDTH 16 0
BBX 12 14 2 -2
BITMAP
0060
0020
FE20
0620
04E0
0820
1020
23E0
4020
8020
1820
0800
0800
0FF0
ENDCHAR
STARTCHAR ACAF
ENCODING 12384
SWIDTH 1600 0
DWIDTH 16 0
BBX 13 13 1 -1
BITMAP
0030
0010
3F10
03F0
0290
0410
0810
10F0
2010
CFF0
0400
0400
07F8
ENDCHAR
STARTCHAR ACB0
ENCODING 12385
SWIDTH 1600 0
DWIDTH 16 0
BBX 12 14 2 -2
BITMAP
00E0
0060
FE20
06E0
0520
0820
13E0
2020
4020
9FE0
0040
1FE0
0800
0FF0
ENDCHAR
STARTCHAR ACB8
ENCODING 12386
SWIDTH 1600 0
DWIDTH 16 0
BBX 11 14 2 -2
BITMAP
00E0
0060
FE20
0420
0DE0
0820
1020
23E0
4020
8FC0
0840
0840
0FC0
0800
ENDCHAR
STARTCHAR ACB9
ENCODING 12387
SWIDTH 1600 0
DWIDTH 16 0
BBX 11 15 2 -3
BITMAP
00C0
0060
FE20
0420
05E0
0820
1020
21E0
5020
8820
0FE0
0820
0820
0FE0
0820
ENDCHAR
STARTCHAR ACBB
ENCODING 12388
SWIDTH 1600 0
DWIDTH 16 0
BBX 12 14 2 -2
BITMAP
0060
0020
FE20
07E0
0420
0820
13E0
2020
4220
8100
0300
0280
0C60
1010
ENDCHAR
STARTCHAR ACBC
ENCODING 12389
SWIDTH 1600 0
DWIDTH 16 0
BBX 12 14 2 -2
BITMAP
00C0
0060
FE20
0420
05E0
0820
1020
21E0
4020
8860
0840
14A0
2310
4210
ENDCHAR
STARTCHAR ACBD
ENCODING 12390
SWIDTH 1600 0
DWIDTH 16 0
BBX 11 14 2 -2
BITMAP
00C0
0060
FE20
0420
04E0
0820
1020
21E0
4120
82E0
0420
0420
0660
03C0
ENDCHAR
STARTCHAR ACC1
ENCODING 12391
SWIDTH 1600 0
DWIDTH 16 0
BBX 12 14 2 -2
BITMAP
00C0
0060
FE20
0420
04E0
0820
1020
21E0
4020
8FE0
0800
0FE0
0800
0FF0
ENDCHAR
STARTCHAR ACC4
ENCODING 12392
SWIDTH 1600 0
DWIDTH 16 0
BBX 11 14 2 -2
BITMAP
0060
0220
0120
F920
0920
1720
1120
2F20
2120
4120
8120
0120
0120
0020
ENDCHAR
STARTCHAR ACC8
ENCODING 12393
SWIDTH 1600 0
DWIDTH 16 0
BBX 13 13 1 -1
BITMAP
0030
0190
0490
3C90
0F90
0890
1090
2790
4090
8C90
0490
0400
07F8
ENDCHAR
STARTCHAR ACCC
ENCODING 12394
SWIDTH 1600 0
DWIDTH 16 0
BBX 12 14 2 -2
BITMAP
0260
0120
F920
0920
1720
1120
2F20
4000
9FE0
0020
1FE0
0800
0800
0FF0
ENDCHAR
STARTCHAR ACD5
ENCODING 12395
SWIDTH 1600 0
DWIDTH 16 0
BBX 11 15 2 -3
BITMAP
0060
0320
F920
0920
1F20
1120
2720
4120
8860
0420
07E0
0420
0420
07E0
0420
ENDCHAR
STARTCHAR ACD7
ENCODING 12396
SWIDTH 1600 0
DWIDTH 16 0
BBX 12 14 2 -2
BITMAP
0040
0020
0120
F920
0920
1720
1120
2F20
4320
8120
0300
02C0
0C20
1010
ENDCHAR
STARTCHAR ACE0
ENCODING 12397
SWIDTH 1600 0
DWIDTH 16 0
BBX 14 10 1 0
BITMAP
3FF0
0010
0010
0020
0020
0220
0200
0200
0200
FFFC
ENDCHAR
STARTCHAR ACE1
ENCODING 12398
SWIDTH 1600 0
DWIDTH 16 0
BBX 14 14 1 -3
BITMAP
3FF0
0010
0620
0220
0200
FFFC
0000
0000
1FE0
0020
0020
0020
0020
0020
ENDCHAR
STARTCHAR ACE4
ENCODING 12399
SWIDTH 1600 0
DWIDTH 16 0
BBX 14 12 1 -2
BITMAP
3FF0
0010
0610
0120
0120
01FC
FE00
0000
1800
0800
0800
0FF0
ENDCHAR
STARTCHAR ACE7
ENCODING 12400
SWIDTH 1600 0
DWIDTH 16 0
BBX 14 13 1 -2
BITMAP
3FF0
0010
0620
0220
0200
02FC
FF00
0000
1FF0
0800
0800
0800
0FF0
ENDCHAR
STARTCHAR ACE8
ENCODING 12401
SWIDTH 1600 0
DWIDTH 16 0
BBX 14 13 1 -2
BITMAP
3FF0
0010
0620
0220
0200
FFFC
0000
0000
1FE0
0020
1FE0
0800
0FF0
ENDCHAR
STARTCHAR ACEA
ENCODING 12402
SWIDTH 1600 0
DWIDTH 16 0
BBX 14 14 1 -3
BITMAP
3FF0
0010
0620
0220
0200
FFFC
0000
0000
1DF0
0520
3D20
11E0
1300
0C00
ENDCHAR
STARTCHAR ACEC
ENCODING 12403
SWIDTH 1600 0
DWIDTH 16 0
BBX 14 13 1 -2
BITMAP
3FF0
0010
0620
0220
0200
FFFC
0000
1E20
0220
3E60
1090
1608
0800
ENDCHAR
STARTCHAR ACEF
ENCODING 12404
SWIDTH 1600 0
DWIDTH 16 0
BBX 14 13 1 -2
BITMAP
3FF0
0020
0320
0220
FFFC
0000
00E0
1E00
05F0
1DA0
1110
1D10
00E0
ENDCHAR
STARTCHAR ACF0
ENCODING 12405
SWIDTH 1600 0
DWIDTH 16 0
BBX 14 13 1 -2
BITMAP
3FF0
0010
0620
0120
0100
FFFC
0000
0000
1FE0
0820
0840
0FE0
0800
ENDCHAR
STARTCHAR ACF1
ENCODING 12406
SWIDTH 1600 0
DWIDTH 16 0
BBX 14 14 1 -3
BITMAP
3FF0
0010
0220
0120
0100
81FC
FE00
00C0
0840
0FC0
0840
0840
0FC0
0840
ENDCHAR
STARTCHAR ACF3
ENCODING 12407
SWIDTH 1600 0
DWIDTH 16 0
BBX 14 13 1 -2
BITMAP
3FF0
0010
0020
0620
0200
0200
FFFC
0400
0300
0300
0480
0860
3010
ENDCHAR
STARTCHAR ACF5
ENCODING 12408
SWIDTH 1600 0
DWIDTH 16 0
BBX 14 13 1 -2
BITMAP
3FF0
0010
0620
0220
0200
82FC
7F00
0200
0580
0840
0840
0CC0
0780
ENDCHAR
STARTCHAR ACF6
ENCODING 12409
SWIDTH 1600 0
DWIDTH 16 0
BBX 14 14 1 -3
BITMAP
3FF0
0010
0620
0220
0200
FFFC
0000
0000
3FF0
0100
0300
04C0
0830
1000
ENDCHAR
STARTCHAR ACFC
ENCODING 12410
SWIDTH 1600 0
DWIDTH 16 0
BBX 13 14 1 -2
BITMAP
0060
0020
0020
7FA0
0120
0120
1920
0838
08E0
FF20
0020
0020
0020
0020
ENDCHAR
STARTCHAR ACFD
ENCODING 12411
SWIDTH 1600 0
DWIDTH 16 0
BBX 13 15 2 -3
BITMAP
00C0
0040
FE40
0240
3240
1458
17E0
E840
0000
3FC0
1040
0040
0040
0040
0040
ENDCHAR
STARTCHAR AD00
ENCODING 12412
SWIDTH 1600 0
DWIDTH 16 0
BBX 13 14 2 -2
BITMAP
00C0
0040
FE40
0240
0240
3440
1478
1FC0
E040
0040
1840
0800
0800
0FF0
ENDCHAR
STARTCHAR AD04
ENCODING 12413
SWIDTH 1600 0
DWIDTH 16 0
BBX 13 14 2 -2
BITMAP
00C0
0040
FE40
0240
3240
1078
1FC0
E040
0000
1FC0
0040
0FC0
0800
0FF0
ENDCHAR
STARTCHAR AD06
ENCODING 12414
SWIDTH 1600 0
DWIDTH 16 0
BBX 13 14 2 -2
BITMAP
00C0
0040
FE40
0240
1240
1078
3FC0
C040
0000
3BC0
0A40
3240
3BC0
0200
ENDCHAR
STARTCHAR AD0C
ENCODING 12577
SWIDTH 1600 0
DWIDTH 16 0
BBX 13 14 2 -2
BITMAP
00C0
0040
7F40
0240
1240
12F8
3D40
C000
0000
0FE0
0840
0840
0FE0
0800
ENDCHAR
STARTCHAR AD0D
ENCODING 12578
SWIDTH 1600 0
DWIDTH 16 0
BBX 13 14 2 -2
BITMAP
00C0
0040
FE40
0240
3240
1078
1FC0
E040
2040
1040
1FC0
1040
1FC0
1040
ENDCHAR
STARTCHAR AD0F
ENCODING 12579
SWIDTH 1600 0
DWIDTH 16 0
BBX 14 14 1 -2
BITMAP
0060
0020
7FA0
0120
1920
0924
08F8
FF20
0120
0080
0180
0260
0410
0808
ENDCHAR
STARTCHAR AD11
ENCODING 12580
SWIDTH 1600 0
DWIDTH 16 0
BBX 14 14 1 -2
BITMAP
0060
0020
7F20
0120
1120
083C
09E0
FE20
00A0
03C0
0420
0420
0420
03C0
ENDCHAR
STARTCHAR AD18
ENCODING 12581
SWIDTH 1600 0
DWIDTH 16 0
BBX 12 14 1 -2
BITMAP
0020
0190
0090
7E90
0290
0290
1490
14F0
1790
F890
0090
0090
0090
0010
ENDCHAR
STARTCHAR AD1C
ENCODING 12582
SWIDTH 1600 0
DWIDTH 16 0
BBX 13 14 1 -2
BITMAP
0030
0090
0090
7E90
0290
3290
14F0
1790
F890
0090
0C10
0400
0400
03F8
ENDCHAR
STARTCHAR AD20
ENCODING 12583
SWIDTH 1600 0
DWIDTH 16 0
BBX 13 14 1 -2
BITMAP
0030
0110
0090
7E90
0290
1290
10F0
1390
FC90
0FF0
0010
0FF0
0400
07F8
ENDCHAR
STARTCHAR AD29
ENCODING 12584
SWIDTH 1600 0
DWIDTH 16 0
BBX 11 15 2 -3
BITMAP
0260
0120
FD20
0520
2520
21E0
2720
F920
1160
0820
0FE0
0820
0820
0FE0
0820
ENDCHAR
STARTCHAR AD2C
ENCODING 12585
SWIDTH 1600 0
DWIDTH 16 0
BBX 13 14 1 -2
BITMAP
0130
0090
7E90
0290
1490
14F0
1390
FC90
0090
0420
0420
0A60
1A98
2108
ENDCHAR
STARTCHAR AD2D
ENCODING 12586
SWIDTH 1600 0
DWIDTH 16 0
BBX 12 14 1 -2
BITMAP
0030
0190
7E90
0290
0290
1090
10F0
1790
F8D0
01F0
0210
0210
0310
01E0
ENDCHAR
STARTCHAR AD34
ENCODING 12587
SWIDTH 1600 0
DWIDTH 16 0
BBX 12 14 1 -2
BITMAP
0030
0010
7F90
0090
0110
1110
0910
0810
09F0
FE10
0010
0010
0010
0010
ENDCHAR
STARTCHAR AD35
ENCODING 12588
SWIDTH 1600 0
DWIDTH 16 0
BBX 10 14 3 -2
BITMAP
00C0
0040
FE40
0240
3240
1440
17C0
E840
0000
7FC0
2040
0040
0040
0040
ENDCHAR
STARTCHAR AD38
ENCODING 12589
SWIDTH 1600 0
DWIDTH 16 0
BBX 12 14 2 -2
BITMAP
0060
0020
7F20
0120
0220
1220
1060
1FA0
E020
0020
1800
0800
0800
0FF0
ENDCHAR
STARTCHAR AD3C
ENCODING 12590
SWIDTH 1600 0
DWIDTH 16 0
BBX 11 14 3 -2
BITMAP
00C0
0040
FE40
0240
1440
1440
1FC0
E040
3FC0
0080
3FC0
1000
1000
1FE0
ENDCHAR
STARTCHAR AD44
ENCODING 12591
SWIDTH 1600 0
DWIDTH 16 0
BBX 11 15 2 -3
BITMAP
0060
0020
7F20
0120
1220
0A20
08E0
FF20
0020
0000
0FC0
0840
0840
0FC0
0800
ENDCHAR
STARTCHAR AD45
ENCODING 12592
SWIDTH 1600 0
DWIDTH 16 0
BBX 10 15 3 -3
BITMAP
00C0
0040
FE40
0240
3440
1440
17C0
E840
10C0
0840
0FC0
0840
0840
0FC0
0840
ENDCHAR
STARTCHAR AD47
ENCODING 12593
SWIDTH 1600 0
DWIDTH 16 0
BBX 12 14 2 -2
BITMAP
0060
0020
7F20
0120
2220
1220
12E0
1D20
E020
0120
0300
0280
0C60
1010
ENDCHAR
STARTCHAR AD49
ENCODING 12594
SWIDTH 1600 0
DWIDTH 16 0
BBX 11 14 2 -2
BITMAP
0060
0020
7F20
0120
1220
0A20
08E0
FF20
00A0
03C0
0420
0420
0660
03C0
ENDCHAR
STARTCHAR AD50
ENCODING 12595
SWIDTH 1600 0
DWIDTH 16 0
BBX 16 10 0 0
BITMAP
1FF8
0008
0008
0008
00D0
0450
0450
0440
0440
FFFF
ENDCHAR
STARTCHAR AD54
ENCODING 12596
SWIDTH 1600 0
DWIDTH 16 0
BBX 14 12 2 -1
BITMAP
0060
7FA0
0020
00C0
08C0
0880
FFFC
0000
1000
1000
1000
0FF0
ENDCHAR
STARTCHAR AD58
ENCODING 12597
SWIDTH 1600 0
DWIDTH 16 0
BBX 13 12 2 -1
BITMAP
7FE0
0320
0940
0940
FFF8
0000
0000
7FC0
0080
3F80
2000
1FC0
ENDCHAR
STARTCHAR AD61
ENCODING 12598
SWIDTH 1600 0
DWIDTH 16 0
BBX 14 13 1 -2
BITMAP
3FF0
0010
01A0
04A0
0480
FFFC
0000
1820
0820
0FE0
0820
0FE0
0820
ENDCHAR
STARTCHAR AD63
ENCODING 12599
SWIDTH 1600 0
DWIDTH 16 0
BBX 14 13 2 -2
BITMAP
7FE0
0020
0020
01C0
08C0
0880
FFFC
0400
0200
0500
0880
1060
6000
ENDCHAR
STARTCHAR AD6C
ENCODING 12600
SWIDTH 1600 0
DWIDTH 16 0
BBX 13 13 2 -2
BITMAP
3FE0
0040
0040
0040
0080
FFF8
0200
0200
0200
0200
0200
0200
0200
ENDCHAR
STARTCHAR AD6D
ENCODING 12601
SWIDTH 1600 0
DWIDTH 16 0
BBX 14 13 2 -2
BITMAP
3FE0
0020
0040
0040
FFFC
0200
0200
3FC0
0040
0040
0040
0040
0040
ENDCHAR
STARTCHAR AD70
ENCODING 12602
SWIDTH 1600 0
DWIDTH 16 0
BBX 13 12 2 -2
BITMAP
3FE0
0020
0040
0040
FFB8
0240
0200
2200
2200
2000
3FE0
1020
ENDCHAR
STARTCHAR AD73
ENCODING 12603
SWIDTH 1600 0
DWIDTH 16 0
BBX 14 13 1 -2
BITMAP
1FF0
0020
0020
0020
0040
FFFC
0100
0100
1FF0
0800
0800
0800
0FF0
ENDCHAR
STARTCHAR AD74
ENCODING 12604
SWIDTH 1600 0
DWIDTH 16 0
BBX 14 13 2 -2
BITMAP
3FE0
0020
0020
0040
0040
FFFC
0200
3E00
01C0
0040
3FC0
1000
1FE0
ENDCHAR
STARTCHAR AD75
ENCODING 12605
SWIDTH 1600 0
DWIDTH 16 0
BBX 13 13 2 -2
BITMAP
3FE0
0020
0040
0040
0040
FFF8
0200
0200
3CE0
4820
3020
2C20
1020
ENDCHAR
STARTCHAR AD76
ENCODING 12606
SWIDTH 1600 0
DWIDTH 16 0
BBX 13 13 2 -2
BITMAP
3FE0
0020
0040
0040
0040
FFF8
0200
0200
3DE0
3D20
2120
3DE0
0100
ENDCHAR
STARTCHAR AD7B
ENCODING 12607
SWIDTH 1600 0
DWIDTH 16 0
BBX 14 13 1 -2
BITMAP
1FF0
0020
0020
FFFC
0100
0100
1EE0
03F8
3640
19B0
1110
1FB0
0040
ENDCHAR
STARTCHAR AD7C
ENCODING 12608
SWIDTH 1600 0
DWIDTH 16 0
BBX 14 13 2 -2
BITMAP
3FE0
0020
0040
0040
0040
FFFC
0200
0200
1FC0
1040
1080
1FC0
1000
ENDCHAR
STARTCHAR AD7D
ENCODING 12609
SWIDTH 1600 0
DWIDTH 16 0
BBX 14 13 1 -2
BITMAP
1FF0
0020
0020
0020
0040
FFFC
0100
1160
0820
0FE0
0820
0FE0
0820
ENDCHAR
STARTCHAR AD7F
ENCODING 12610
SWIDTH 1600 0
DWIDTH 16 0
BBX 14 14 1 -3
BITMAP
33F0
0C20
0020
0020
0040
FFFC
0100
0100
0300
0300
0680
0860
1010
2000
ENDCHAR
STARTCHAR AD81
ENCODING 12611
SWIDTH 1600 0
DWIDTH 16 0
BBX 14 13 2 -2
BITMAP
3FE0
0020
0040
0040
0040
FFFC
0200
0200
0F00
1080
1080
1880
0F00
ENDCHAR
STARTCHAR AD82
ENCODING 12612
SWIDTH 1600 0
DWIDTH 16 0
BBX 14 14 1 -3
BITMAP
1FF0
0010
0020
0020
FFFC
0100
0100
0100
33F0
0D00
0380
0660
0810
1000
ENDCHAR
STARTCHAR AD88
ENCODING 12613
SWIDTH 1600 0
DWIDTH 16 0
BBX 12 14 1 -2
BITMAP
0030
0010
3F90
0110
0110
0110
0250
FF90
0410
04F0
0410
0410
0410
0010
ENDCHAR
STARTCHAR AD89
ENCODING 12614
SWIDTH 1600 0
DWIDTH 16 0
BBX 12 14 1 -2
BITMAP
0030
0010
3F10
0110
0210
FF90
04F0
0410
0410
1FF0
0010
0010
0010
0010
ENDCHAR
STARTCHAR AD8C
ENCODING 12615
SWIDTH 1600 0
DWIDTH 16 0
BBX 13 14 1 -2
BITMAP
0030
0010
3F90
0110
0110
0110
FE90
0530
08D0
0010
0C10
0400
0400
07F8
ENDCHAR
STARTCHAR AD90
ENCODING 12616
SWIDTH 1600 0
DWIDTH 16 0
BBX 13 14 1 -2
BITMAP
0030
0010
3F10
0110
0110
0250
FDB0
04D0
0000
0FF0
0020
0FF0
0400
07F8
ENDCHAR
STARTCHAR AD9C
ENCODING 12617
SWIDTH 1600 0
DWIDTH 16 0
BBX 14 14 1 -2
BITMAP
0030
0010
3F10
0110
0250
FF90
04F0
0410
0410
0230
0620
0750
0988
3104
ENDCHAR
STARTCHAR AD9D
ENCODING 12618
SWIDTH 1600 0
DWIDTH 16 0
BBX 11 14 2 -2
BITMAP
0040
0020
7E20
0220
0220
0320
FC20
09E0
0820
0B20
0CC0
0840
0C40
0780
ENDCHAR
STARTCHAR ADA4
ENCODING 12619
SWIDTH 1600 0
DWIDTH 16 0
BBX 11 14 2 -2
BITMAP
0060
01A0
00A0
FCA0
04A0
08A0
08A0
1CA0
F7A0
10A0
10A0
10A0
00A0
0020
ENDCHAR
STARTCHAR ADB7
ENCODING 12620
SWIDTH 1600 0
DWIDTH 16 0
BBX 13 14 1 -2
BITMAP
0030
00D0
0650
3A50
0250
0450
8E50
78D0
0950
0890
0080
0140
0630
0808
ENDCHAR
STARTCHAR ADC0
ENCODING 12621
SWIDTH 1600 0
DWIDTH 16 0
BBX 12 14 1 -2
BITMAP
0030
0010
3F90
0110
0110
0110
0230
8FD0
7410
0410
0410
0410
0410
0010
ENDCHAR
STARTCHAR ADC1
ENCODING 12622
SWIDTH 1600 0
DWIDTH 16 0
BBX 11 14 2 -2
BITMAP
0040
0020
7F20
0220
0220
03E0
FC20
0820
0820
3FE0
0020
0020
0020
0020
ENDCHAR
STARTCHAR ADC4
ENCODING 12623
SWIDTH 1600 0
DWIDTH 16 0
BBX 12 14 2 -2
BITMAP
0060
0020
7F20
0220
0220
02E0
0720
F820
0820
0820
1820
0800
0800
0FF0
ENDCHAR
STARTCHAR ADC8
ENCODING 12624
SWIDTH 1600 0
DWIDTH 16 0
BBX 13 14 1 -2
BITMAP
0020
0010
3F90
0090
0110
01F0
FE10
0410
0FF0
0020
0FE0
0400
0400
07F8
ENDCHAR
STARTCHAR ADD0
ENCODING 12625
SWIDTH 1600 0
DWIDTH 16 0
BBX 11 14 2 -2
BITMAP
0040
0020
7F20
0220
0220
03E0
FC20
0820
0820
0FC0
0840
0840
0FC0
0800
ENDCHAR
STARTCHAR ADD1
ENCODING 12626
SWIDTH 1600 0
DWIDTH 16 0
BBX 11 15 2 -3
BITMAP
0060
0020
7F20
0220
0220
FFE0
4820
0820
1860
0820
0FE0
0820
0820
0FE0
0820
ENDCHAR
STARTCHAR ADD3
ENCODING 12627
SWIDTH 1600 0
DWIDTH 16 0
BBX 12 14 2 -2
BITMAP
0040
0020
7F20
0220
0220
03E0
FE20
0820
0B20
0120
0300
04C0
0820
3010
ENDCHAR
STARTCHAR ADDC
ENCODING 12628
SWIDTH 1600 0
DWIDTH 16 0
BBX 14 13 1 -2
BITMAP
3FF0
0020
0020
0020
0040
FFFC
0840
0840
0840
0840
0840
0840
0040
ENDCHAR
STARTCHAR ADE0
ENCODING 12629
SWIDTH 1600 0
DWIDTH 16 0
BBX 14 11 1 -1
BITMAP
3FF0
0010
0020
0020
FFFC
0840
0840
1840
1840
1040
1FE0
ENDCHAR
STARTCHAR ADE4
ENCODING 12630
SWIDTH 1600 0
DWIDTH 16 0
BBX 13 13 2 -2
BITMAP
3FE0
0040
0040
0040
0078
FF80
0880
0FC0
1080
3FC0
1000
1000
1FE0
ENDCHAR
STARTCHAR ADF8
ENCODING 12631
SWIDTH 1600 0
DWIDTH 16 0
BBX 14 8 1 1
BITMAP
3FF0
0010
0010
0020
0020
0020
0040
FFFC
ENDCHAR
STARTCHAR ADF9
ENCODING 12632
SWIDTH 1600 0
DWIDTH 16 0
BBX 14 13 1 -2
BITMAP
1FF0
0010
0020
0020
0020
FFFC
0000
1FE0
0020
0020
0020
0020
0020
ENDCHAR
STARTCHAR ADFC
ENCODING 12633
SWIDTH 1600 0
DWIDTH 16 0
BBX 14 11 1 -1
BITMAP
1FF0
0010
0010
0020
0020
FFFC
2000
1000
1000
1000
0FF0
ENDCHAR
STARTCHAR ADFF
ENCODING 12634
SWIDTH 1600 0
DWIDTH 16 0
BBX 14 12 1 -1
BITMAP
1FF0
0010
0020
0020
0020
FFFC
0000
0FE0
0800
0800
0800
0FF0
ENDCHAR
STARTCHAR AE00
ENCODING 12635
SWIDTH 1600 0
DWIDTH 16 0
BBX 14 12 1 -1
BITMAP
1FF0
0010
0020
0020
0020
FFFC
0000
1FE0
0040
1FE0
0800
0FF0
ENDCHAR
STARTCHAR AE01
ENCODING 12636
SWIDTH 1600 0
DWIDTH 16 0
BBX 14 13 1 -2
BITMAP
1FF0
0010
0020
0020
0020
FFFC
0000
1E00
0270
3E10
1010
1210
1C10
ENDCHAR
STARTCHAR AE08
ENCODING 12637
SWIDTH 1600 0
DWIDTH 16 0
BBX 14 13 1 -2
BITMAP
1FF0
0010
0020
0020
0020
FFFC
0000
1FE0
0820
0840
0840
0FE0
0800
ENDCHAR
STARTCHAR AE09
ENCODING 12638
SWIDTH 1600 0
DWIDTH 16 0
BBX 14 13 1 -2
BITMAP
1FF0
0010
0020
0020
0020
FFFC
10C0
0840
0FC0
0840
0840
0FC0
0840
ENDCHAR
STARTCHAR AE0B
ENCODING 12639
SWIDTH 1600 0
DWIDTH 16 0
BBX 14 12 1 -1
BITMAP
1FF0
0010
0020
0020
0020
FFFC
0000
0300
0300
0280
0460
1830
ENDCHAR
STARTCHAR AE0D
ENCODING 12640
SWIDTH 1600 0
DWIDTH 16 0
BBX 14 13 1 -2
BITMAP
1FF0
0010
0020
0020
0020
FFFC
0100
0780
0CC0
0840
0840
0CC0
0780
ENDCHAR
STARTCHAR AE14
ENCODING 12641
SWIDTH 1600 0
DWIDTH 16 0
BBX 11 14 2 -2
BITMAP
0060
0020
FF20
0120
0220
0220
0220
0020
03E0
FC20
0020
0020
0020
0020
ENDCHAR
STARTCHAR AE30
ENCODING 12642
SWIDTH 1600 0
DWIDTH 16 0
BBX 11 14 2 -2
BITMAP
0060
0020
0020
7E20
0420
0C20
0820
1020
2020
4020
8020
0020
0020
0020
ENDCHAR
STARTCHAR AE31
ENCODING 12643
SWIDTH 1600 0
DWIDTH 16 0
BBX 12 14 1 -2
BITMAP
0030
0010
7F10
0310
0210
0410
0810
1010
2070
CF90
0010
0010
0010
0010
ENDCHAR
STARTCHAR AE34
ENCODING 12644
SWIDTH 1600 0
DWIDTH 16 0
BBX 12 14 2 -2
BITMAP
0060
0020
FE20
0620
0420
0820
1020
2020
4020
8020
1820
0800
0800
0FF0
ENDCHAR
STARTCHAR AE37
ENCODING 12645
SWIDTH 1600 0
DWIDTH 16 0
BBX 13 13 1 -1
BITMAP
0030
0010
3F10
0210
0210
0410
0810
1010
2FF0
C400
0400
0400
03F8
ENDCHAR
STARTCHAR AE38
ENCODING 12646
SWIDTH 1600 0
DWIDTH 16 0
BBX 12 14 2 -2
BITMAP
0060
0020
FE20
0420
0420
0820
1020
2020
5FE0
0040
1FE0
0800
0800
0FF0
ENDCHAR
STARTCHAR AE3A
ENCODING 12647
SWIDTH 1600 0
DWIDTH 16 0
BBX 11 14 2 -2
BITMAP
0060
0020
FE20
0420
0420
0820
1020
2020
DFE0
0920
7D20
2120
23E0
3D00
ENDCHAR
STARTCHAR AE40
ENCODING 12648
SWIDTH 1600 0
DWIDTH 16 0
BBX 11 14 2 -2
BITMAP
0060
0020
FE20
0420
0420
0820
1020
2020
4FE0
0860
0860
0840
0FE0
0800
ENDCHAR
STARTCHAR AE41
ENCODING 12649
SWIDTH 1600 0
DWIDTH 16 0
BBX 11 14 2 -2
BITMAP
0060
0020
FE20
0420
0420
0820
1020
2000
5820
0820
0FE0
0820
0FE0
0820
ENDCHAR
STARTCHAR AE43
ENCODING 12650
SWIDTH 1600 0
DWIDTH 16 0
BBX 12 14 2 -2
BITMAP
0060
0020
FE20
0420
0420
0820
1020
2020
4320
0100
0280
0460
0810
3000
ENDCHAR
STARTCHAR AE45
ENCODING 12651
SWIDTH 1600 0
DWIDTH 16 0
BBX 10 14 3 -2
BITMAP
0180
00C0
FC40
0840
0840
1040
2040
4040
8240
0D80
1040
1040
18C0
0F80
ENDCHAR
STARTCHAR AE46
ENCODING 12652
SWIDTH 1600 0
DWIDTH 16 0
BBX 12 14 2 -2
BITMAP
0060
0020
7E20
0620
0420
0820
1020
2020
C070
1F80
0300
06C0
0830
1010
ENDCHAR
STARTCHAR AE4A
ENCODING 12653
SWIDTH 1600 0
DWIDTH 16 0
BBX 12 14 2 -2
BITMAP
0060
0020
FE20
0420
0420
0820
1020
2020
5FE0
0000
0840
0440
0480
3FF0
ENDCHAR
STARTCHAR AE4C
ENCODING 12654
SWIDTH 1600 0
DWIDTH 16 0
BBX 13 14 2 -2
BITMAP
00C0
0040
0040
7F40
1240
2240
4240
4478
8440
0840
1040
2040
0040
0040
ENDCHAR
STARTCHAR AE4D
ENCODING 12655
SWIDTH 1600 0
DWIDTH 16 0
BBX 12 15 3 -3
BITMAP
0180
0080
FE80
2280
4480
48F0
9080
2080
4000
7F80
0080
0080
0080
0080
0080
ENDCHAR
STARTCHAR AE4E
ENCODING 12656
SWIDTH 1600 0
DWIDTH 16 0
BBX 12 14 3 -2
BITMAP
0180
0080
FE80
2280
4480
48F0
9080
2080
4000
7B80
0880
0880
0880
0880
ENDCHAR
STARTCHAR AE50
ENCODING 12657
SWIDTH 1600 0
DWIDTH 16 0
BBX 13 14 2 -2
BITMAP
00C0
0040
F940
1740
2240
2448
4470
8840
1040
2040
1840
0800
0800
0FF0
ENDCHAR
STARTCHAR AE54
ENCODING 12658
SWIDTH 1600 0
DWIDTH 16 0
BBX 12 14 3 -2
BITMAP
0180
0080
FE80
2280
4480
48F0
8880
1080
3F80
0080
0080
3F80
1000
1FC0
ENDCHAR
STARTCHAR AE56
ENCODING 12659
SWIDTH 1600 0
DWIDTH 16 0
BBX 14 14 1 -2
BITMAP
00C0
0020
7FA0
0920
1120
223C
4420
8020
3FF0
0920
3D20
2120
2DE0
1100
ENDCHAR
STARTCHAR AE5C
ENCODING 12660
SWIDTH 1600 0
DWIDTH 16 0
BBX 13 14 2 -2
BITMAP
00C0
0040
7F40
1140
1240
2678
4440
8840
1FC0
0840
0840
0880
0FC0
0800
ENDCHAR
STARTCHAR AE5D
ENCODING 12661
SWIDTH 1600 0
DWIDTH 16 0
BBX 13 14 2 -2
BITMAP
00C0
0040
7F40
1140
1240
2678
4440
8840
1040
0840
0FC0
0840
0FC0
0840
ENDCHAR
STARTCHAR AE5F
ENCODING 12662
SWIDTH 1600 0
DWIDTH 16 0
BBX 13 14 2 -2
BITMAP
00C0
0040
7940
1740
1240
2248
4470
8840
1240
0240
0500
08C0
1060
6020
ENDCHAR
STARTCHAR AE60
ENCODING 12663
SWIDTH 1600 0
DWIDTH 16 0
BBX 13 14 2 -2
BITMAP
00C0
0040
7F40
1140
2240
2478
4440
0840
1840
0840
14C0
12A0
6310
8200
ENDCHAR
STARTCHAR AE61
ENCODING 12664
SWIDTH 1600 0
DWIDTH 16 0
BBX 13 14 2 -2
BITMAP
00C0
0040
7F40
1140
1240
2678
4440
8840
1140
0680
0840
0840
0CC0
0780
ENDCHAR
STARTCHAR AE65
ENCODING 12665
SWIDTH 1600 0
DWIDTH 16 0
BBX 13 14 2 -2
BITMAP
00C0
0040
7F40
1140
1240
2678
4440
8840
1060
0F80
0800
0FE0
0800
07E0
ENDCHAR
STARTCHAR AE68
ENCODING 12666
SWIDTH 1600 0
DWIDTH 16 0
BBX 11 14 2 -2
BITMAP
0160
00A0
00A0
FEA0
24A0
24A0
48E0
88A0
90A0
20A0
00A0
00A0
0020
0020
ENDCHAR
STARTCHAR AE69
ENCODING 12667
SWIDTH 1600 0
DWIDTH 16 0
BBX 12 14 1 -2
BITMAP
0030
00D0
0050
3F50
1250
2250
4470
8850
1050
1FF0
0010
0010
0010
0010
ENDCHAR
STARTCHAR AE6C
ENCODING 12668
SWIDTH 1600 0
DWIDTH 16 0
BBX 13 14 1 -2
BITMAP
00B0
0050
0050
7F50
1250
1250
2470
4850
8850
1050
0410
0400
0400
07F8
ENDCHAR
STARTCHAR AE70
ENCODING 12669
SWIDTH 1600 0
DWIDTH 16 0
BBX 12 14 2 -2
BITMAP
0060
00A0
FEA0
24A0
24A0
48E0
88A0
10A0
2FE0
0020
0020
0FE0
0400
07F0
ENDCHAR
STARTCHAR AE78
ENCODING 12670
SWIDTH 1600 0
DWIDTH 16 0
BBX 12 14 1 -2
BITMAP
00B0
0050
0050
3E50
1250
2470
4450
8850
1000
03F0
0210
0210
03F0
0200
ENDCHAR
STARTCHAR AE79
ENCODING 12833
SWIDTH 1600 0
DWIDTH 16 0
BBX 11 14 2 -2
BITMAP
0060
00A0
FEA0
24A0
24A0
48E0
88A0
10A0
2CA0
0420
07E0
0420
07E0
0420
ENDCHAR
STARTCHAR AE7B
ENCODING 12834
SWIDTH 1600 0
DWIDTH 16 0
BBX 12 14 2 -2
BITMAP
0060
0320
0120
7F20
2520
2520
49E0
9120
1320
0120
0300
06C0
0820
1010
ENDCHAR
STARTCHAR AE7C
ENCODING 12835
SWIDTH 1600 0
DWIDTH 16 0
BBX 13 14 1 -2
BITMAP
00B0
0050
7B50
0D50
1250
2270
2450
C850
0060
0220
0620
0950
1088
2100
ENDCHAR
STARTCHAR AE7D
ENCODING 12836
SWIDTH 1600 0
DWIDTH 16 0
BBX 12 14 1 -2
BITMAP
00B0
0050
0050
3F50
1250
2270
4450
8850
1090
01C0
0230
0210
0330
01E0
ENDCHAR
STARTCHAR AE84
ENCODING 12837
SWIDTH 1600 0
DWIDTH 16 0
BBX 13 14 2 -2
BITMAP
00C0
0040
0040
7F40
1158
2260
2240
4440
8848
1070
0040
0040
0040
0040
ENDCHAR
STARTCHAR AE85
ENCODING 12838
SWIDTH 1600 0
DWIDTH 16 0
BBX 14 15 1 -3
BITMAP
0060
0020
99A0
7F2C
1130
2220
442C
0430
0000
3FE0
0020
0020
0020
0020
0020
ENDCHAR
STARTCHAR AE8C
ENCODING 12839
SWIDTH 1600 0
DWIDTH 16 0
BBX 13 14 2 -2
BITMAP
00C0
0040
7F40
1278
2240
4440
8878
1040
1FC0
0040
1FC0
0800
0800
0FF0
ENDCHAR
STARTCHAR AEBC
ENCODING 12840
SWIDTH 1600 0
DWIDTH 16 0
BBX 11 14 2 -2
BITMAP
0060
0020
0020
7F20
1120
1260
23A0
4420
8820
0820
1020
0020
0020
0020
ENDCHAR
STARTCHAR AEBD
ENCODING 12841
SWIDTH 1600 0
DWIDTH 16 0
BBX 11 14 2 -2
BITMAP
0060
0020
7F20
1120
23E0
4420
8820
1020
21E0
3E20
0020
0020
0020
0020
ENDCHAR
STARTCHAR AEBE
ENCODING 12842
SWIDTH 1600 0
DWIDTH 16 0
BBX 11 14 2 -2
BITMAP
0060
0020
7F20
1120
23E0
4420
8820
1020
2000
1DE0
0420
0420
0420
0420
ENDCHAR
STARTCHAR AEC0
ENCODING 12843
SWIDTH 1600 0
DWIDTH 16 0
BBX 12 14 2 -2
BITMAP
0060
0020
B120
5F20
2220
43E0
4420
8820
1020
3020
0820
0800
0800
0FF0
ENDCHAR
STARTCHAR AEC4
ENCODING 12844
SWIDTH 1600 0
DWIDTH 16 0
BBX 12 14 2 -2
BITMAP
0060
0020
7F20
1120
23E0
4420
8820
1020
1FE0
0020
1FE0
0800
0800
0FF0
ENDCHAR
STARTCHAR AECC
ENCODING 12845
SWIDTH 1600 0
DWIDTH 16 0
BBX 11 14 2 -2
BITMAP
0060
0020
7F20
1120
23E0
4420
8420
0820
1FE0
0840
0840
0840
0FC0
0800
ENDCHAR
STARTCHAR AECD
ENCODING 12846
SWIDTH 1600 0
DWIDTH 16 0
BBX 11 14 2 -2
BITMAP
0060
0020
7F20
1120
23E0
4420
8420
0820
1060
0820
0FE0
0820
0FE0
0820
ENDCHAR
STARTCHAR AECF
ENCODING 12847
SWIDTH 1600 0
DWIDTH 16 0
BBX 12 14 2 -2
BITMAP
0060
0020
7F20
1120
1220
23E0
4420
8820
1220
0120
0380
0640
0820
1010
ENDCHAR
STARTCHAR AED0
ENCODING 12848
SWIDTH 1600 0
DWIDTH 16 0
BBX 12 14 2 -2
BITMAP
0060
0020
7F20
1120
2220
43E0
8420
0820
1840
0420
0840
1660
2290
4100
ENDCHAR
STARTCHAR AED1
ENCODING 12849
SWIDTH 1600 0
DWIDTH 16 0
BBX 11 14 2 -2
BITMAP
0060
0020
7F20
1120
23E0
4420
8420
0820
1020
03C0
0420
0420
0660
03C0
ENDCHAR
STARTCHAR AED8
ENCODING 12850
SWIDTH 1600 0
DWIDTH 16 0
BBX 11 15 2 -3
BITMAP
0040
01A0
00A0
FEA0
24A0
24A0
47A0
48A0
90A0
10A0
20A0
00A0
00A0
0020
0020
ENDCHAR
STARTCHAR AED9
ENCODING 12851
SWIDTH 1600 0
DWIDTH 16 0
BBX 12 14 1 -2
BITMAP
0030
00D0
0850
3F50
1250
23D0
4450
8850
1050
1FF0
0010
0010
0010
0010
ENDCHAR
STARTCHAR AEDC
ENCODING 12852
SWIDTH 1600 0
DWIDTH 16 0
BBX 12 14 2 -2
BITMAP
0060
01A0
00A0
7EA0
24A0
27A0
48A0
90A0
20A0
00A0
0820
0800
0800
0FF0
ENDCHAR
STARTCHAR AEE8
ENCODING 12853
SWIDTH 1600 0
DWIDTH 16 0
BBX 11 14 2 -2
BITMAP
0060
01A0
E6A0
3CA0
44A0
4FA0
90A0
20A0
0080
0FE0
0840
0840
0FC0
0800
ENDCHAR
STARTCHAR AEEB
ENCODING 12854
SWIDTH 1600 0
DWIDTH 16 0
BBX 13 14 1 -2
BITMAP
0030
00D0
7950
1750
1250
23D0
4450
8850
1150
0090
0180
0240
0430
1808
ENDCHAR
STARTCHAR AEED
ENCODING 12855
SWIDTH 1600 0
DWIDTH 16 0
BBX 12 14 1 -2
BITMAP
0030
00D0
0850
3F50
1250
23D0
4450
8850
1050
01E0
0210
0210
0310
01E0
ENDCHAR
STARTCHAR AEF4
ENCODING 12856
SWIDTH 1600 0
DWIDTH 16 0
BBX 11 14 2 -2
BITMAP
0060
0020
0020
7F20
1360
22A0
2420
4420
89E0
1020
0020
0020
0020
0020
ENDCHAR
STARTCHAR AEF8
ENCODING 12857
SWIDTH 1600 0
DWIDTH 16 0
BBX 13 14 1 -2
BITMAP
0030
0010
7F90
19F0
1110
2210
45F0
8810
0010
0010
0C00
0400
0400
07F8
ENDCHAR
STARTCHAR AEFC
ENCODING 12858
SWIDTH 1600 0
DWIDTH 16 0
BBX 12 14 2 -2
BITMAP
0060
0020
FF20
11E0
2220
4420
04E0
0820
1FE0
0020
1FE0
0800
0800
0FF0
ENDCHAR
STARTCHAR AF07
ENCODING 12859
SWIDTH 1600 0
DWIDTH 16 0
BBX 12 14 2 -2
BITMAP
0060
0020
7F20
1120
12E0
2220
45E0
8820
1220
0120
0300
02C0
0C20
1010
ENDCHAR
STARTCHAR AF08
ENCODING 12860
SWIDTH 1600 0
DWIDTH 16 0
BBX 12 14 2 -2
BITMAP
0060
0020
7F20
11E0
2220
4420
89E0
1020
0040
0C60
0840
16A0
2290
4110
ENDCHAR
STARTCHAR AF0D
ENCODING 12861
SWIDTH 1600 0
DWIDTH 16 0
BBX 13 14 1 -2
BITMAP
0030
0010
3F90
09B0
1150
2210
42F0
8410
0800
07F0
0400
07F0
0400
03F8
ENDCHAR
STARTCHAR AF10
ENCODING 12862
SWIDTH 1600 0
DWIDTH 16 0
BBX 11 15 2 -3
BITMAP
0040
01A0
00A0
FEA0
24A0
27A0
44A0
4BA0
90A0
10A0
20A0
00A0
00A0
0020
0020
ENDCHAR
STARTCHAR AF2C
ENCODING 12863
SWIDTH 1600 0
DWIDTH 16 0
BBX 15 9 0 1
BITMAP
3CF8
0410
0410
0810
0B20
0120
0100
0100
FFFE
ENDCHAR
STARTCHAR AF2D
ENCODING 12864
SWIDTH 1600 0
DWIDTH 16 0
BBX 14 13 1 -2
BITMAP
7DF0
0410
0B20
0920
0100
FFFC
0000
3FE0
0020
0020
0020
0020
0020
ENDCHAR
STARTCHAR AF30
ENCODING 12865
SWIDTH 1600 0
DWIDTH 16 0
BBX 14 11 1 -1
BITMAP
3DF0
0810
0A20
0920
0108
FFFC
0000
3000
1000
1000
0FF0
ENDCHAR
STARTCHAR AF32
ENCODING 12866
SWIDTH 1600 0
DWIDTH 16 0
BBX 13 13 2 -2
BITMAP
FBE0
0820
1420
1240
1240
FE00
01F8
6180
2030
23C0
2360
3A20
01C0
ENDCHAR
STARTCHAR AF34
ENCODING 12867
SWIDTH 1600 0
DWIDTH 16 0
BBX 14 13 1 -2
BITMAP
7DF0
0410
0B20
0920
0108
FFFC
0000
3FC0
0040
0040
1FC0
1000
1FE0
ENDCHAR
STARTCHAR AF3C
ENCODING 12868
SWIDTH 1600 0
DWIDTH 16 0
BBX 14 13 1 -2
BITMAP
01F0
3C10
0620
0920
0900
FFFC
0000
0000
1FE0
0820
0840
0FE0
0800
ENDCHAR
STARTCHAR AF3D
ENCODING 12869
SWIDTH 1600 0
DWIDTH 16 0
BBX 14 13 1 -2
BITMAP
7DF0
0410
0B20
0920
0108
FFFC
0000
1060
0820
0FE0
0820
0FE0
0820
ENDCHAR
STARTCHAR AF3F
ENCODING 12870
SWIDTH 1600 0
DWIDTH 16 0
BBX 14 13 1 -2
BITMAP
7CF0
0410
0810
0920
0120
0100
FFFC
0200
0100
0280
0460
0830
3000
ENDCHAR
STARTCHAR AF41
ENCODING 12871
SWIDTH 1600 0
DWIDTH 16 0
BBX 14 13 1 -2
BITMAP
01F0
3C20
0A20
0920
1108
FFFC
0000
0000
0780
0840
0840
0CC0
0780
ENDCHAR
STARTCHAR AF42
ENCODING 12872
SWIDTH 1600 0
DWIDTH 16 0
BBX 14 12 1 -1
BITMAP
3DF0
0410
0410
0920
0920
FFFC
0000
1FF0
0100
0300
04C0
1830
ENDCHAR
STARTCHAR AF43
ENCODING 12873
SWIDTH 1600 0
DWIDTH 16 0
BBX 14 13 1 -2
BITMAP
7DF0
2490
0710
0920
01FC
FF04
0000
0780
3FF0
0300
0680
0C60
1010
ENDCHAR
STARTCHAR AF48
ENCODING 12874
SWIDTH 1600 0
DWIDTH 16 0
BBX 14 14 1 -2
BITMAP
0060
0020
00A0
33A0
1120
1120
1520
043C
04E0
FF20
0020
0020
0020
0020
ENDCHAR
STARTCHAR AF49
ENCODING 12875
SWIDTH 1600 0
DWIDTH 16 0
BBX 13 14 1 -2
BITMAP
0060
0020
7BA0
08A0
0CA0
1420
04F8
FF20
0020
3FE0
0020
0020
0020
0020
ENDCHAR
STARTCHAR AF50
ENCODING 12876
SWIDTH 1600 0
DWIDTH 16 0
BBX 14 14 1 -2
BITMAP
0040
0020
3BA0
08A0
0CA0
143C
0460
FFA0
0FE0
0020
0020
0FE0
0400
07F8
ENDCHAR
STARTCHAR AF5C
ENCODING 12877
SWIDTH 1600 0
DWIDTH 16 0
BBX 14 14 1 -2
BITMAP
0040
0020
3BA0
08A0
1D20
142C
0470
FFA0
0000
0620
0420
0750
0948
3188
ENDCHAR
STARTCHAR AF5D
ENCODING 12878
SWIDTH 1600 0
DWIDTH 16 0
BBX 14 14 1 -2
BITMAP
0040
0020
7BA0
08A0
08A0
142C
0470
FFA0
0020
0180
0660
0420
0660
03C0
ENDCHAR
STARTCHAR AF64
ENCODING 12879
SWIDTH 1600 0
DWIDTH 16 0
BBX 11 14 2 -2
BITMAP
0040
01A0
00A0
66A0
22A0
24A0
54A0
54E0
16A0
E8A0
00A0
00A0
00A0
0020
ENDCHAR
STARTCHAR AF65
ENCODING 12880
SWIDTH 1600 0
DWIDTH 16 0
BBX 12 14 1 -2
BITMAP
0030
00D0
0050
7F50
1250
2A50
2A70
09D0
FE50
1FF0
0010
0010
0010
0010
ENDCHAR
STARTCHAR AF79
ENCODING 12881
SWIDTH 1600 0
DWIDTH 16 0
BBX 11 14 2 -2
BITMAP
0060
01A0
00A0
EEA0
22A0
54A0
14E0
1EA0
E0A0
03C0
0420
0420
0420
03C0
ENDCHAR
STARTCHAR AF80
ENCODING 12882
SWIDTH 1600 0
DWIDTH 16 0
BBX 11 14 2 -2
BITMAP
00C0
0020
FF20
1120
2120
2120
2820
0820
0BA0
F420
0020
0020
0020
0020
ENDCHAR
STARTCHAR AF84
ENCODING 12883
SWIDTH 1600 0
DWIDTH 16 0
BBX 12 14 3 -2
BITMAP
00C0
0040
0240
E640
2240
3A40
0840
0FC0
F040
0040
3040
1000
1000
0FF0
ENDCHAR
STARTCHAR AF88
ENCODING 12884
SWIDTH 1600 0
DWIDTH 16 0
BBX 12 14 2 -2
BITMAP
0060
0020
7320
1120
1920
2420
24E0
FB20
0000
1FC0
0040
1FC0
0800
0FF0
ENDCHAR
STARTCHAR AF90
ENCODING 12885
SWIDTH 1600 0
DWIDTH 16 0
BBX 11 14 2 -2
BITMAP
00C0
0020
7FA0
1120
1120
1420
0460
FFA0
0020
0FE0
0840
0840
0FC0
0800
ENDCHAR
STARTCHAR AF91
ENCODING 12886
SWIDTH 1600 0
DWIDTH 16 0
BBX 11 14 2 -2
BITMAP
00E0
0020
7320
1120
1920
2420
0460
FBA0
1060
0820
0FE0
0820
0FE0
0820
ENDCHAR
STARTCHAR AF95
ENCODING 12887
SWIDTH 1600 0
DWIDTH 16 0
BBX 11 14 2 -2
BITMAP
00C0
0020
7FA0
1120
1120
1520
0420
FFE0
00A0
03C0
0420
0420
0660
03C0
ENDCHAR
STARTCHAR AF9C
ENCODING 12888
SWIDTH 1600 0
DWIDTH 16 0
BBX 14 10 1 0
BITMAP
7DF8
0418
0410
0810
0810
1CA0
14A0
0480
0480
FFFC
ENDCHAR
STARTCHAR AFB8
ENCODING 12889
SWIDTH 1600 0
DWIDTH 16 0
BBX 13 14 2 -3
BITMAP
7DE0
0820
0820
0840
1040
1FF8
FE00
0200
0200
0200
0200
0200
0200
0200
ENDCHAR
STARTCHAR AFB9
ENCODING 12890
SWIDTH 1600 0
DWIDTH 16 0
BBX 14 14 1 -3
BITMAP
00F0
1C10
0420
0420
07FC
FF00
0100
0100
0100
1FE0
0020
0020
0020
0020
ENDCHAR
STARTCHAR AFBC
ENCODING 12891
SWIDTH 1600 0
DWIDTH 16 0
BBX 13 13 2 -2
BITMAP
7BE0
0820
0840
0840
1018
FFF8
0200
0200
0200
2200
2200
2000
3FC0
ENDCHAR
STARTCHAR AFC0
ENCODING 12892
SWIDTH 1600 0
DWIDTH 16 0
BBX 14 13 1 -2
BITMAP
7DF0
0410
0420
0020
FFFC
0200
0200
1FC0
0040
1FC0
0800
0800
07E0
ENDCHAR
STARTCHAR AFC7
ENCODING 12893
SWIDTH 1600 0
DWIDTH 16 0
BBX 13 13 2 -2
BITMAP
03E0
3840
0840
1000
FFF8
0200
3CC0
0800
6BE0
31C0
2220
3A40
01C0
ENDCHAR
STARTCHAR AFC8
ENCODING 12894
SWIDTH 1600 0
DWIDTH 16 0
BBX 14 13 2 -2
BITMAP
01E0
7820
0820
0840
07FC
FE00
0200
0200
1FC0
1040
1040
1FC0
1000
ENDCHAR
STARTCHAR AFC9
ENCODING 12895
SWIDTH 1600 0
DWIDTH 16 0
BBX 14 13 1 -2
BITMAP
3CF0
0410
0420
0820
FFDC
0120
0200
1040
0840
0FC0
0840
0FC0
0840
ENDCHAR
STARTCHAR AFCB
ENCODING 12896
SWIDTH 1600 0
DWIDTH 16 0
BBX 14 13 1 -2
BITMAP
3DF0
0410
0420
0820
0840
FFFC
0100
0100
0200
0100
0300
04E0
1830
ENDCHAR
STARTCHAR AFCD
ENCODING 12897
SWIDTH 1600 0
DWIDTH 16 0
BBX 13 13 2 -2
BITMAP
7C00
08E0
0820
0840
FFB8
0240
0200
0200
0D80
1080
1080
1980
0F00
ENDCHAR
STARTCHAR AFCE
ENCODING 12898
SWIDTH 1600 0
DWIDTH 16 0
BBX 13 14 2 -3
BITMAP
7BE0
0820
0840
1040
FFB8
0240
0200
0200
7FE0
0200
0600
0980
1060
2000
ENDCHAR
STARTCHAR AFD4
ENCODING 12899
SWIDTH 1600 0
DWIDTH 16 0
BBX 11 14 2 -2
BITMAP
0060
0020
FF20
2120
2220
2220
0320
FC20
0BE0
0820
0820
0820
0020
0020
ENDCHAR
STARTCHAR AFDC
ENCODING 12900
SWIDTH 1600 0
DWIDTH 16 0
BBX 12 14 2 -2
BITMAP
0060
0020
7320
1120
1220
2720
F820
08E0
0800
1FE0
0040
1FE0
0800
0FF0
ENDCHAR
STARTCHAR AFE8
ENCODING 12901
SWIDTH 1600 0
DWIDTH 16 0
BBX 13 14 1 -2
BITMAP
0030
0010
3390
1110
1110
DE90
24F0
0410
0040
0420
0C20
0A50
3188
4108
ENDCHAR
STARTCHAR AFE9
ENCODING 12902
SWIDTH 1600 0
DWIDTH 16 0
BBX 11 14 2 -2
BITMAP
0060
0020
F720
1120
1220
2720
F820
09E0
0820
0180
0660
0420
0660
03C0
ENDCHAR
STARTCHAR AFF0
ENCODING 12903
SWIDTH 1600 0
DWIDTH 16 0
BBX 12 14 1 -2
BITMAP
0030
00D0
0050
7650
1250
1250
0150
FE50
0BD0
0850
0850
0850
0050
0010
ENDCHAR
STARTCHAR AFF1
ENCODING 12904
SWIDTH 1600 0
DWIDTH 16 0
BBX 11 14 2 -2
BITMAP
0060
01A0
00A0
6CA0
24A0
44A0
4CA0
B0A0
13A0
3FE0
0020
0020
0020
0020
ENDCHAR
STARTCHAR AFF4
ENCODING 12905
SWIDTH 1600 0
DWIDTH 16 0
BBX 12 14 2 -2
BITMAP
0040
01E0
00A0
EEA0
24A0
24A0
24A0
F8A0
17A0
10A0
1820
0820
0800
0FF0
ENDCHAR
STARTCHAR AFF8
ENCODING 12906
SWIDTH 1600 0
DWIDTH 16 0
BBX 11 14 3 -2
BITMAP
00C0
0340
0140
CD40
4940
4940
B940
E740
2000
1FC0
0040
1FC0
0800
0FE0
ENDCHAR
STARTCHAR B000
ENCODING 12907
SWIDTH 1600 0
DWIDTH 16 0
BBX 11 15 2 -3
BITMAP
00C0
00E0
00A0
ECA0
24A0
24A0
5CA0
B5A0
12A0
0FE0
0840
0840
0840
0FC0
0800
ENDCHAR
STARTCHAR B001
ENCODING 12908
SWIDTH 1600 0
DWIDTH 16 0
BBX 12 14 1 -2
BITMAP
0030
0050
0050
6650
2450
2450
BC50
53D0
0830
0410
07F0
0410
07F0
0410
ENDCHAR
STARTCHAR B004
ENCODING 12909
SWIDTH 1600 0
DWIDTH 16 0
BBX 13 14 1 -2
BITMAP
0030
0050
0050
3650
1250
2250
FE50
0BD0
0810
0420
0420
0E60
1998
2108
ENDCHAR
STARTCHAR B00C
ENCODING 12910
SWIDTH 1600 0
DWIDTH 16 0
BBX 12 14 1 -2
BITMAP
0030
0010
7B90
0890
1090
1110
1150
FE90
0410
0410
0410
0410
0410
0010
ENDCHAR
STARTCHAR B010
ENCODING 12911
SWIDTH 1600 0
DWIDTH 16 0
BBX 12 14 2 -2
BITMAP
0060
0020
7320
1120
2120
2260
FDA0
0820
0820
0820
1820
0800
0800
0FF0
ENDCHAR
STARTCHAR B014
ENCODING 12912
SWIDTH 1600 0
DWIDTH 16 0
BBX 13 14 1 -2
BITMAP
0030
0010
3B90
0910
1110
97F0
6C10
0410
0FF0
0020
0020
0FE0
0400
07F8
ENDCHAR
STARTCHAR B01C
ENCODING 12913
SWIDTH 1600 0
DWIDTH 16 0
BBX 11 14 2 -2
BITMAP
0060
0020
7320
1120
1220
21E0
FE20
0820
0000
0FC0
0840
0840
0FC0
0800
ENDCHAR
STARTCHAR B01D
ENCODING 12914
SWIDTH 1600 0
DWIDTH 16 0
BBX 10 15 3 -3
BITMAP
00C0
0040
6640
2240
2240
2FC0
D040
1040
10C0
0840
0FC0
0840
0840
0FC0
0840
ENDCHAR
STARTCHAR B028
ENCODING 12915
SWIDTH 1600 0
DWIDTH 16 0
BBX 14 15 1 -3
BITMAP
0410
7DF0
0410
0820
0820
1020
8FFC
7840
0840
0840
0840
0840
0840
0840
0040
ENDCHAR
STARTCHAR B044
ENCODING 12916
SWIDTH 1600 0
DWIDTH 16 0
BBX 14 9 1 1
BITMAP
0010
3CF0
0410
0410
0820
0820
0820
0808
FFFC
ENDCHAR
STARTCHAR B045
ENCODING 12917
SWIDTH 1600 0
DWIDTH 16 0
BBX 14 13 1 -2
BITMAP
3DF0
0410
0810
0820
0820
CFFC
3000
3FE0
0020
0020
0020
0020
0020
ENDCHAR
STARTCHAR B048
ENCODING 12918
SWIDTH 1600 0
DWIDTH 16 0
BBX 14 12 1 -1
BITMAP
3DF0
0410
0410
0820
0828
FFFC
0000
3000
1000
1000
1000
1FF0
ENDCHAR
STARTCHAR B04A
ENCODING 12919
SWIDTH 1600 0
DWIDTH 16 0
BBX 14 13 1 -2
BITMAP
3FF0
0410
0410
0800
CFFC
3000
01E0
1000
13F0
1120
1310
1D10
00F0
ENDCHAR
STARTCHAR B04C
ENCODING 12920
SWIDTH 1600 0
DWIDTH 16 0
BBX 14 12 1 -1
BITMAP
7DF8
0410
0410
0810
081C
FFE0
0000
1FE0
0020
1FE0
0800
0FF0
ENDCHAR
STARTCHAR B04E
ENCODING 12921
SWIDTH 1600 0
DWIDTH 16 0
BBX 14 13 1 -2
BITMAP
3E18
0478
0410
0410
0820
FFFC
0000
1FF0
0490
1E90
1090
16F0
0880
ENDCHAR
STARTCHAR B053
ENCODING 12922
SWIDTH 1600 0
DWIDTH 16 0
BBX 14 13 1 -2
BITMAP
3DF0
0410
0410
0820
FFFC
00E0
3C00
09F0
7CE0
2110
2110
3910
00E0
ENDCHAR
STARTCHAR B054
ENCODING 12923
SWIDTH 1600 0
DWIDTH 16 0
BBX 14 13 1 -2
BITMAP
1CF0
2410
0410
0820
0820
FFFC
0000
1FE0
0820
0840
0840
0FE0
0800
ENDCHAR
STARTCHAR B055
ENCODING 12924
SWIDTH 1600 0
DWIDTH 16 0
BBX 14 13 1 -2
BITMAP
3EF8
0410
0410
0410
0820
87FC
7800
1820
0820
0FE0
0820
0FE0
0820
ENDCHAR
STARTCHAR B057
ENCODING 12925
SWIDTH 1600 0
DWIDTH 16 0
BBX 14 13 1 -2
BITMAP
3DF0
0410
0410
0420
0820
FFFC
0000
0300
0300
0280
0460
1830
6000
ENDCHAR
STARTCHAR B059
ENCODING 12926
SWIDTH 1600 0
DWIDTH 16 0
BBX 14 13 1 -2
BITMAP
7DF0
0410
0810
0820
0820
8FFC
7000
0100
0680
0840
0840
0CC0
0380
ENDCHAR
STARTCHAR B05D
ENCODING 13089
SWIDTH 1600 0
DWIDTH 16 0
BBX 14 12 1 -1
BITMAP
3DF0
0410
0420
0820
FFFC
0000
0000
1FE0
0800
0FE0
0800
0FF0
ENDCHAR
STARTCHAR B07C
ENCODING 13090
SWIDTH 1600 0
DWIDTH 16 0
BBX 11 14 2 -2
BITMAP
0060
0020
0020
FFA0
1120
1120
2220
2220
4420
8420
0820
1020
0020
0020
ENDCHAR
STARTCHAR B07D
ENCODING 13091
SWIDTH 1600 0
DWIDTH 16 0
BBX 11 14 2 -2
BITMAP
0060
0020
FF20
1120
2220
2220
4420
0820
1000
3FE0
0020
0020
0020
0020
ENDCHAR
STARTCHAR B080
ENCODING 13092
SWIDTH 1600 0
DWIDTH 16 0
BBX 12 14 2 -2
BITMAP
0060
0020
F320
1D20
2220
4220
8420
0820
1020
1020
0820
0800
0800
0FF0
ENDCHAR
STARTCHAR B084
ENCODING 13093
SWIDTH 1600 0
DWIDTH 16 0
BBX 11 14 2 -2
BITMAP
0060
0020
7F20
2220
4220
4420
8820
1000
0FC0
0040
1FE0
0800
0800
07E0
ENDCHAR
STARTCHAR B08C
ENCODING 13094
SWIDTH 1600 0
DWIDTH 16 0
BBX 12 14 1 -2
BITMAP
0030
0010
7F90
1910
1110
2210
4410
8410
1800
07F0
0420
0420
07E0
0400
ENDCHAR
STARTCHAR B08D
ENCODING 13095
SWIDTH 1600 0
DWIDTH 16 0
BBX 12 14 1 -2
BITMAP
0030
0010
7F90
0890
1110
2110
4210
8410
0830
0410
07F0
0410
07F0
0410
ENDCHAR
STARTCHAR B08F
ENCODING 13096
SWIDTH 1600 0
DWIDTH 16 0
BBX 12 14 2 -2
BITMAP
0060
0020
FF20
1120
1220
2220
4420
8820
1320
0120
0300
04C0
0820
1010
ENDCHAR
STARTCHAR B091
ENCODING 13097
SWIDTH 1600 0
DWIDTH 16 0
BBX 11 14 2 -2
BITMAP
0060
0020
FFA0
1120
1120
2220
4420
0820
1020
03C0
0420
0420
0660
03C0
ENDCHAR
STARTCHAR B098
ENCODING 13098
SWIDTH 1600 0
DWIDTH 16 0
BBX 13 14 1 -2
BITMAP
0060
0020
0020
E020
2020
2020
2020
2038
23A0
3C20
0020
0020
0020
0020
ENDCHAR
STARTCHAR B099
ENCODING 13099
SWIDTH 1600 0
DWIDTH 16 0
BBX 12 15 2 -3
BITMAP
00C0
0040
C040
4040
4040
4370
7C40
0040
03C0
3C40
0040
0040
0040
0040
0040
ENDCHAR
STARTCHAR B09A
ENCODING 13100
SWIDTH 1600 0
DWIDTH 16 0
BBX 13 14 2 -2
BITMAP
00C0
0040
C040
4040
4058
4360
7C40
0000
FBC0
0840
0840
0840
0840
0840
ENDCHAR
STARTCHAR B09C
ENCODING 13101
SWIDTH 1600 0
DWIDTH 16 0
BBX 14 13 1 -1
BITMAP
0060
0020
E020
2020
2020
202C
21B0
3E20
1020
0820
0820
0800
0FF0
ENDCHAR
STARTCHAR B09F
ENCODING 13102
SWIDTH 1600 0
DWIDTH 16 0
BBX 14 14 1 -2
BITMAP
0060
0020
E020
2020
2020
207C
3FA0
0020
0020
10E0
0F00
0800
0800
07F0
ENDCHAR
STARTCHAR B0A0
ENCODING 13103
SWIDTH 1600 0
DWIDTH 16 0
BBX 13 14 2 -2
BITMAP
00C0
0040
C040
4040
4078
4340
7C40
0000
1FE0
0040
0FE0
0800
0800
07E0
ENDCHAR
STARTCHAR B0A1
ENCODING 13104
SWIDTH 1600 0
DWIDTH 16 0
BBX 13 14 2 -2
BITMAP
00C0
0040
C040
4040
40D8
5F60
2040
0000
3DC0
0840
3040
2040
3C40
0040
ENDCHAR
STARTCHAR B0A2
ENCODING 13105
SWIDTH 1600 0
DWIDTH 16 0
BBX 13 14 2 -2
BITMAP
00C0
0040
C040
4040
4058
43E0
7C40
0000
7FE0
0920
7D20
2120
27E0
3900
ENDCHAR
STARTCHAR B0A8
ENCODING 13106
SWIDTH 1600 0
DWIDTH 16 0
BBX 12 14 3 -2
BITMAP
0180
0080
8080
8080
8090
86E0
F880
0080
0000
3F80
2100
2100
3F00
2000
ENDCHAR
STARTCHAR B0A9
ENCODING 13107
SWIDTH 1600 0
DWIDTH 16 0
BBX 13 14 2 -2
BITMAP
00C0
0040
C040
4040
4058
4760
7840
0000
1040
0840
0FC0
0840
0FC0
0840
ENDCHAR
STARTCHAR B0AB
ENCODING 13108
SWIDTH 1600 0
DWIDTH 16 0
BBX 13 14 2 -2
BITMAP
00C0
0040
0040
C040
4040
4078
4340
7C40
0240
0100
0300
04C0
0820
3010
ENDCHAR
STARTCHAR B0AC
ENCODING 13109
SWIDTH 1600 0
DWIDTH 16 0
BBX 13 14 2 -2
BITMAP
00C0
0040
0040
C040
4040
4078
4340
7C40
18C0
0840
08C0
14C0
2130
4210
ENDCHAR
STARTCHAR B0AD
ENCODING 13110
SWIDTH 1600 0
DWIDTH 16 0
BBX 13 14 2 -2
BITMAP
00C0
0040
C040
4040
4040
4078
4740
7840
0100
0680
0840
0840
0CC0
0780
ENDCHAR
STARTCHAR B0AE
ENCODING 13111
SWIDTH 1600 0
DWIDTH 16 0
BBX 13 14 2 -2
BITMAP
00C0
0040
C040
4040
4058
4360
7C40
0040
3FE0
0100
0300
04C0
1820
2000
ENDCHAR
STARTCHAR B0AF
ENCODING 13112
SWIDTH 1600 0
DWIDTH 16 0
BBX 13 15 2 -3
BITMAP
00C0
0040
C040
4040
4058
4360
7C40
0780
0000
3FF0
0300
0300
04C0
1830
2000
ENDCHAR
STARTCHAR B0B1
ENCODING 13113
SWIDTH 1600 0
DWIDTH 16 0
BBX 13 13 2 -1
BITMAP
00C0
0040
C040
4040
4058
4360
7C40
0000
1FC0
1000
1FC0
1000
1FE0
ENDCHAR
STARTCHAR B0B3
ENCODING 13114
SWIDTH 1600 0
DWIDTH 16 0
BBX 13 14 2 -2
BITMAP
00C0
0040
C040
4040
4078
4F40
7040
0380
3FF0
0780
0440
0840
0440
0380
ENDCHAR
STARTCHAR B0B4
ENCODING 13115
SWIDTH 1600 0
DWIDTH 16 0
BBX 12 15 1 -3
BITMAP
0030
0190
0090
E090
2090
2090
2090
20F0
2090
3F90
0090
0090
0090
0090
0010
ENDCHAR
STARTCHAR B0B5
ENCODING 13116
SWIDTH 1600 0
DWIDTH 16 0
BBX 11 15 2 -3
BITMAP
0060
0320
C120
4120
4120
41E0
4720
7920
0120
1FE0
1020
0020
0020
0020
0020
ENDCHAR
STARTCHAR B0B8
ENCODING 13117
SWIDTH 1600 0
DWIDTH 16 0
BBX 11 14 3 -2
BITMAP
00C0
0640
0240
8240
8240
8240
8FC0
F240
0240
0240
1040
1000
1000
1FE0
ENDCHAR
STARTCHAR B0BC
ENCODING 13118
SWIDTH 1600 0
DWIDTH 16 0
BBX 12 14 2 -2
BITMAP
0040
0320
C120
4120
4120
41E0
4F20
7120
1FE0
0020
1FE0
0800
0800
0FF0
ENDCHAR
STARTCHAR B0C4
ENCODING 13119
SWIDTH 1600 0
DWIDTH 16 0
BBX 11 14 2 -2
BITMAP
0260
0120
C120
4120
4120
41E0
4F20
7120
0100
1FE0
0820
0840
0820
0FC0
ENDCHAR
STARTCHAR B0C5
ENCODING 13120
SWIDTH 1600 0
DWIDTH 16 0
BBX 11 14 2 -2
BITMAP
0060
0320
C120
4120
4120
41E0
4320
7D20
1060
0820
0FE0
0820
0FE0
0820
ENDCHAR
STARTCHAR B0C7
ENCODING 13121
SWIDTH 1600 0
DWIDTH 16 0
BBX 11 14 3 -2
BITMAP
00C0
0640
0240
8240
8240
8240
87C0
9A40
E640
0240
0600
0D80
1040
6020
ENDCHAR
STARTCHAR B0C8
ENCODING 13122
SWIDTH 1600 0
DWIDTH 16 0
BBX 12 14 2 -2
BITMAP
0260
0120
C120
4120
4120
41E0
4F20
7120
1040
0C40
0C40
12A0
2310
4210
ENDCHAR
STARTCHAR B0C9
ENCODING 13123
SWIDTH 1600 0
DWIDTH 16 0
BBX 11 14 2 -2
BITMAP
0060
0320
C120
4120
4120
41E0
4320
7D20
00A0
0340
0420
0420
0660
03C0
ENDCHAR
STARTCHAR B0D0
ENCODING 13124
SWIDTH 1600 0
DWIDTH 16 0
BBX 13 14 2 -2
BITMAP
00C0
0040
0040
C040
4048
4070
4040
4040
4740
7870
0040
0040
0040
0040
ENDCHAR
STARTCHAR B0D1
ENCODING 13125
SWIDTH 1600 0
DWIDTH 16 0
BBX 14 15 2 -3
BITMAP
0060
0020
8020
402C
4030
40E0
7F2C
0030
0000
3FC0
0040
0040
0040
0040
0040
ENDCHAR
STARTCHAR B0D4
ENCODING 13126
SWIDTH 1600 0
DWIDTH 16 0
BBX 13 14 2 -2
BITMAP
00C0
0040
0040
C040
4078
4040
41C0
7E40
0070
0040
1840
0800
0800
0FF0
ENDCHAR
STARTCHAR B0D8
ENCODING 13127
SWIDTH 1600 0
DWIDTH 16 0
BBX 14 14 2 -2
BITMAP
0060
0020
C020
403C
4020
40E0
7F3C
0020
1FE0
0020
0040
0FE0
0800
0FF0
ENDCHAR
STARTCHAR B0E0
ENCODING 13128
SWIDTH 1600 0
DWIDTH 16 0
BBX 13 14 2 -2
BITMAP
00C0
0040
C040
4058
4060
43C0
7C78
0040
0000
0FE0
0840
0840
0FC0
0800
ENDCHAR
STARTCHAR B0E5
ENCODING 13129
SWIDTH 1600 0
DWIDTH 16 0
BBX 13 14 2 -2
BITMAP
00C0
0040
C040
4040
4070
40C0
4F40
7078
0040
0780
0840
0840
0CC0
0780
ENDCHAR
STARTCHAR B108
ENCODING 13130
SWIDTH 1600 0
DWIDTH 16 0
BBX 11 14 2 -2
BITMAP
0060
0020
0020
C020
4020
47E0
4020
4020
4120
7E20
0020
0020
0020
0020
ENDCHAR
STARTCHAR B109
ENCODING 13131
SWIDTH 1600 0
DWIDTH 16 0
BBX 11 15 2 -3
BITMAP
0060
0020
C020
43E0
4020
4020
4620
7820
0000
1FE0
0020
0020
0020
0020
0020
ENDCHAR
STARTCHAR B10B
ENCODING 13132
SWIDTH 1600 0
DWIDTH 16 0
BBX 12 14 2 -2
BITMAP
0060
0020
C020
43E0
4020
4120
7E20
0020
0C40
3440
04C0
04A0
0510
0600
ENDCHAR
STARTCHAR B10C
ENCODING 13133
SWIDTH 1600 0
DWIDTH 16 0
BBX 12 13 2 -1
BITMAP
0040
0020
C020
4020
43E0
4020
4320
7C20
0020
3020
1020
1000
1FF0
ENDCHAR
STARTCHAR B110
ENCODING 13134
SWIDTH 1600 0
DWIDTH 16 0
BBX 12 14 2 -2
BITMAP
0040
0020
C020
43E0
4020
4120
7E20
0020
0FE0
0040
1FE0
0800
0800
0FF0
ENDCHAR
STARTCHAR B112
ENCODING 13135
SWIDTH 1600 0
DWIDTH 16 0
BBX 11 14 2 -2
BITMAP
00C0
0060
C020
43E0
4020
4020
7C20
0020
7FE0
0520
6D20
3120
23E0
3D00
ENDCHAR
STARTCHAR B113
ENCODING 13136
SWIDTH 1600 0
DWIDTH 16 0
BBX 10 14 3 -2
BITMAP
00C0
0040
8040
83C0
8040
8440
F840
0640
FA40
13C0
DA40
6240
4BC0
7240
ENDCHAR
STARTCHAR B118
ENCODING 13137
SWIDTH 1600 0
DWIDTH 16 0
BBX 11 14 2 -2
BITMAP
0060
0020
C020
43E0
4020
4020
4E20
7020
0000
1FE0
0820
0840
0FE0
0800
ENDCHAR
STARTCHAR B119
ENCODING 13138
SWIDTH 1600 0
DWIDTH 16 0
BBX 11 15 2 -3
BITMAP
0060
0020
C020
43E0
4020
4020
4320
7C20
1820
0820
0FE0
0820
0820
0FE0
0820
ENDCHAR
STARTCHAR B11B
ENCODING 13139
SWIDTH 1600 0
DWIDTH 16 0
BBX 12 14 2 -2
BITMAP
0060
0020
C020
43E0
4020
4020
4320
7C20
0220
0120
0300
04C0
0820
3010
ENDCHAR
STARTCHAR B11C
ENCODING 13140
SWIDTH 1600 0
DWIDTH 16 0
BBX 12 14 2 -2
BITMAP
0060
0020
C020
43E0
4020
4020
4E20
7020
1840
0C60
0840
16A0
2310
4200
ENDCHAR
STARTCHAR B11D
ENCODING 13141
SWIDTH 1600 0
DWIDTH 16 0
BBX 11 14 2 -2
BITMAP
0060
0020
C020
43E0
4020
4020
4E20
7020
0120
06C0
0820
0820
0C60
07C0
ENDCHAR
STARTCHAR B123
ENCODING 13142
SWIDTH 1600 0
DWIDTH 16 0
BBX 12 14 2 -2
BITMAP
0060
0020
C020
41E0
4020
4220
7C20
0780
3E70
0100
06C0
0840
0440
0780
ENDCHAR
STARTCHAR B124
ENCODING 13143
SWIDTH 1600 0
DWIDTH 16 0
BBX 12 14 1 -2
BITMAP
0030
0190
0090
E090
2090
2090
2390
2090
2290
3C90
0090
0090
0090
0010
ENDCHAR
STARTCHAR B125
ENCODING 13144
SWIDTH 1600 0
DWIDTH 16 0
BBX 11 14 2 -2
BITMAP
0060
0120
C120
4120
4720
4120
4D20
7120
0000
1FE0
0020
0020
0020
0020
ENDCHAR
STARTCHAR B128
ENCODING 13145
SWIDTH 1600 0
DWIDTH 16 0
BBX 12 14 2 -2
BITMAP
0060
0320
0120
C120
4120
4720
4120
5920
6120
0120
0820
0800
0800
0FF0
ENDCHAR
STARTCHAR B12C
ENCODING 13146
SWIDTH 1600 0
DWIDTH 16 0
BBX 12 14 2 -2
BITMAP
0060
0320
8120
4120
4720
4120
4520
7920
0000
1FE0
0020
1FE0
0800
0FF0
ENDCHAR
STARTCHAR B134
ENCODING 13147
SWIDTH 1600 0
DWIDTH 16 0
BBX 10 15 3 -3
BITMAP
00C0
0640
0240
8240
9E40
8240
8A40
F240
0240
3FC0
1080
1080
1080
1F80
1000
ENDCHAR
STARTCHAR B135
ENCODING 13148
SWIDTH 1600 0
DWIDTH 16 0
BBX 10 15 3 -3
BITMAP
00C0
0640
0240
8240
BE40
8240
8A40
F240
20C0
1040
1FC0
1040
1040
1FC0
1040
ENDCHAR
STARTCHAR B137
ENCODING 13149
SWIDTH 1600 0
DWIDTH 16 0
BBX 12 14 2 -2
BITMAP
0060
0320
0120
C120
4320
4520
4120
4920
7020
0120
0300
06C0
0820
1010
ENDCHAR
STARTCHAR B138
ENCODING 13150
SWIDTH 1600 0
DWIDTH 16 0
BBX 11 14 3 -2
BITMAP
00C0
0640
0240
8240
9E40
8240
8A40
F240
0340
1880
1080
2940
4620
8400
ENDCHAR
STARTCHAR B139
ENCODING 13151
SWIDTH 1600 0
DWIDTH 16 0
BBX 10 14 3 -2
BITMAP
00C0
0640
0240
8240
9E40
8240
8A40
F240
0040
0700
18C0
1040
18C0
0F80
ENDCHAR
STARTCHAR B140
ENCODING 13152
SWIDTH 1600 0
DWIDTH 16 0
BBX 11 14 2 -2
BITMAP
0060
0020
8020
43E0
4020
4020
43E0
4020
4220
7C20
0020
0020
0020
0020
ENDCHAR
STARTCHAR B141
ENCODING 13153
SWIDTH 1600 0
DWIDTH 16 0
BBX 11 15 2 -3
BITMAP
0060
0020
C020
41E0
4020
4220
7DE0
0020
0000
3FE0
0020
0020
0020
0020
0020
ENDCHAR
STARTCHAR B144
ENCODING 13154
SWIDTH 1600 0
DWIDTH 16 0
BBX 14 13 1 -1
BITMAP
0030
0010
E010
21F0
2010
2010
2230
3CD0
0010
0410
0400
0400
07FC
ENDCHAR
STARTCHAR B148
ENCODING 13155
SWIDTH 1600 0
DWIDTH 16 0
BBX 13 14 1 -2
BITMAP
0030
0010
E010
20F0
2010
2010
20F0
3C10
0000
0FF0
0010
0FF0
0400
07F8
ENDCHAR
STARTCHAR B150
ENCODING 13156
SWIDTH 1600 0
DWIDTH 16 0
BBX 12 15 1 -3
BITMAP
0030
0010
E010
20F0
2010
2110
27F0
3810
0000
0FF0
0410
0420
0420
07F0
0400
ENDCHAR
STARTCHAR B151
ENCODING 13157
SWIDTH 1600 0
DWIDTH 16 0
BBX 12 15 1 -3
BITMAP
0030
0010
E010
20F0
2010
2010
20F0
3C10
0430
0210
03F0
0210
0210
03F0
0210
ENDCHAR
STARTCHAR B154
ENCODING 13158
SWIDTH 1600 0
DWIDTH 16 0
BBX 12 14 2 -2
BITMAP
0060
0020
C020
41E0
4020
4220
5DE0
2020
1080
0C40
0840
14A0
2310
4210
ENDCHAR
STARTCHAR B155
ENCODING 13159
SWIDTH 1600 0
DWIDTH 16 0
BBX 11 14 2 -2
BITMAP
0060
0020
C020
41E0
4020
4220
5DE0
6020
0020
03C0
0420
0420
0660
03C0
ENDCHAR
STARTCHAR B158
ENCODING 13160
SWIDTH 1600 0
DWIDTH 16 0
BBX 11 15 2 -3
BITMAP
0060
0020
C020
41E0
4020
4020
45E0
7820
0020
1FE0
0020
03C0
1C40
0080
0080
ENDCHAR
STARTCHAR B15C
ENCODING 13161
SWIDTH 1600 0
DWIDTH 16 0
BBX 11 14 2 -2
BITMAP
0060
0320
0120
C120
4F20
4120
4120
4720
4520
7920
0120
0120
0120
0020
ENDCHAR
STARTCHAR B160
ENCODING 13162
SWIDTH 1600 0
DWIDTH 16 0
BBX 13 14 1 -2
BITMAP
0030
0110
0090
E090
2790
2090
2790
2690
3890
0890
0410
0400
0400
07F8
ENDCHAR
STARTCHAR B178
ENCODING 13163
SWIDTH 1600 0
DWIDTH 16 0
BBX 14 9 2 1
BITMAP
6000
2000
2000
2020
3FF0
0200
0200
0200
FFFC
ENDCHAR
STARTCHAR B179
ENCODING 13164
SWIDTH 1600 0
DWIDTH 16 0
BBX 14 13 1 -2
BITMAP
3000
1000
1000
0FF0
0100
FFFC
0000
0000
3FE0
0020
0020
0020
0020
ENDCHAR
STARTCHAR B17C
ENCODING 13165
SWIDTH 1600 0
DWIDTH 16 0
BBX 14 12 1 -1
BITMAP
3000
1000
1010
0FF0
0100
0100
FFFC
0000
3000
1000
1000
1FF0
ENDCHAR
STARTCHAR B180
ENCODING 13166
SWIDTH 1600 0
DWIDTH 16 0
BBX 14 12 1 -1
BITMAP
3000
1000
1020
0FF0
0100
FFFC
0000
3FE0
0040
3FC0
1000
1FF0
ENDCHAR
STARTCHAR B182
ENCODING 13167
SWIDTH 1600 0
DWIDTH 16 0
BBX 13 12 2 -1
BITMAP
6000
2000
2000
1FE0
0200
FFF8
0000
0000
3FE0
6B20
3140
39C0
ENDCHAR
STARTCHAR B188
ENCODING 13168
SWIDTH 1600 0
DWIDTH 16 0
BBX 14 13 1 -2
BITMAP
3000
1000
1000
0FF0
0100
01FC
FF04
0000
0FE0
0820
0840
0FE0
0800
ENDCHAR
STARTCHAR B189
ENCODING 13169
SWIDTH 1600 0
DWIDTH 16 0
BBX 14 14 1 -2
BITMAP
3000
1000
1020
0FF0
0200
0200
FFFC
0000
10C0
0840
0FC0
0840
0FC0
0840
ENDCHAR
STARTCHAR B18B
ENCODING 13170
SWIDTH 1600 0
DWIDTH 16 0
BBX 14 13 1 -2
BITMAP
3000
1000
1020
0FF0
0200
0200
FFFC
0000
0100
0300
04C0
0830
3010
ENDCHAR
STARTCHAR B18D
ENCODING 13171
SWIDTH 1600 0
DWIDTH 16 0
BBX 14 13 1 -2
BITMAP
3000
1000
1000
0FF0
0100
01FC
FF00
0100
0680
0840
0840
0CC0
0380
ENDCHAR
STARTCHAR B192
ENCODING 13172
SWIDTH 1600 0
DWIDTH 16 0
BBX 13 13 2 -1
BITMAP
6000
2000
2000
1FE0
0200
0200
FFF8
0000
0000
3FE0
0080
0900
7FF0
ENDCHAR
STARTCHAR B193
ENCODING 13173
SWIDTH 1600 0
DWIDTH 16 0
BBX 14 13 1 -2
BITMAP
3000
1020
1FF0
0200
FFFC
0000
0780
0000
3FF0
0280
0440
0440
0780
ENDCHAR
STARTCHAR B194
ENCODING 13174
SWIDTH 1600 0
DWIDTH 16 0
BBX 12 14 2 -2
BITMAP
00C0
0040
C040
4040
4040
7F40
0840
0870
0BC0
F440
0040
0040
0040
0040
ENDCHAR
STARTCHAR B198
ENCODING 13175
SWIDTH 1600 0
DWIDTH 16 0
BBX 13 14 2 -2
BITMAP
00C0
0040
C040
4040
4340
3C40
0878
0FC0
F040
0040
1840
0800
0800
0FF0
ENDCHAR
STARTCHAR B19C
ENCODING 13176
SWIDTH 1600 0
DWIDTH 16 0
BBX 13 14 2 -2
BITMAP
00C0
C040
4040
4140
3E40
0878
0BC0
F440
0000
1FC0
0040
1FC0
0800
0FF0
ENDCHAR
STARTCHAR B1A8
ENCODING 13177
SWIDTH 1600 0
DWIDTH 16 0
BBX 12 14 3 -2
BITMAP
0180
C080
4080
4380
7C80
08B0
0BC0
F480
0000
1080
1080
2980
4260
8420
ENDCHAR
STARTCHAR B1CC
ENCODING 13178
SWIDTH 1600 0
DWIDTH 16 0
BBX 12 14 1 -2
BITMAP
0030
0010
6010
2010
2090
3F10
0410
0410
0590
FA10
0010
0010
0010
0010
ENDCHAR
STARTCHAR B1D0
ENCODING 13179
SWIDTH 1600 0
DWIDTH 16 0
BBX 12 13 2 -1
BITMAP
0060
0020
6020
2020
2020
3F20
0420
09E0
FE20
1820
0800
0800
0FF0
ENDCHAR
STARTCHAR B1D4
ENCODING 13180
SWIDTH 1600 0
DWIDTH 16 0
BBX 12 13 2 -1
BITMAP
0060
0020
4020
4020
4720
3820
0BE0
F420
1FE0
0020
0FE0
0800
0FF0
ENDCHAR
STARTCHAR B1DC
ENCODING 13181
SWIDTH 1600 0
DWIDTH 16 0
BBX 11 15 2 -3
BITMAP
0060
0020
2020
2020
2F20
1420
0460
FFA0
0020
1FE0
0860
0840
0840
0FE0
0800
ENDCHAR
STARTCHAR B1DD
ENCODING 13182
SWIDTH 1600 0
DWIDTH 16 0
BBX 11 14 2 -2
BITMAP
0060
0020
2020
2020
2320
1C20
0860
FFA0
1060
0820
0FE0
0820
0FE0
0820
ENDCHAR
STARTCHAR B1DF
ENCODING 13345
SWIDTH 1600 0
DWIDTH 16 0
BBX 12 14 2 -2
BITMAP
0060
0020
2020
2020
2120
1E20
0820
FFE0
0020
0120
0100
02C0
0420
1810
ENDCHAR
STARTCHAR B1E8
ENCODING 13346
SWIDTH 1600 0
DWIDTH 16 0
BBX 14 9 2 1
BITMAP
6000
2000
2000
2070
1F80
18C0
0880
0880
FFFC
ENDCHAR
STARTCHAR B1E9
ENCODING 13347
SWIDTH 1600 0
DWIDTH 16 0
BBX 13 14 2 -2
BITMAP
6000
2000
2000
3FE0
0000
1180
0880
FFF8
0000
7FC0
0040
0040
0040
0040
ENDCHAR
STARTCHAR B1EC
ENCODING 13348
SWIDTH 1600 0
DWIDTH 16 0
BBX 13 12 2 -1
BITMAP
6000
2000
2000
3FC0
0900
0900
FFF8
0000
6000
2000
2000
3FE0
ENDCHAR
STARTCHAR B1F0
ENCODING 13349
SWIDTH 1600 0
DWIDTH 16 0
BBX 14 12 1 -1
BITMAP
3000
1000
11F0
0F80
0480
FFFC
0000
3FE0
0040
3FC0
1000
1FF0
ENDCHAR
STARTCHAR B1F9
ENCODING 13350
SWIDTH 1600 0
DWIDTH 16 0
BBX 14 13 1 -2
BITMAP
3000
1000
1000
1FE0
0880
0480
FFFC
00C0
0840
0FC0
0840
0FC0
0840
ENDCHAR
STARTCHAR B1FB
ENCODING 13351
SWIDTH 1600 0
DWIDTH 16 0
BBX 14 14 1 -2
BITMAP
2000
1000
1000
1000
0FF0
0480
0480
FFFC
0000
0300
0300
0480
0860
3010
ENDCHAR
STARTCHAR B1FD
ENCODING 13352
SWIDTH 1600 0
DWIDTH 16 0
BBX 13 13 2 -2
BITMAP
6000
2000
2000
1FE0
0900
0900
FFF8
0000
0F00
1080
1080
1980
0700
ENDCHAR
STARTCHAR B204
ENCODING 13353
SWIDTH 1600 0
DWIDTH 16 0
BBX 13 14 2 -3
BITMAP
6000
2000
2000
3FE0
0000
0000
FFF8
0200
0200
0200
0200
0200
0200
0200
ENDCHAR
STARTCHAR B205
ENCODING 13354
SWIDTH 1600 0
DWIDTH 16 0
BBX 14 14 2 -2
BITMAP
6000
2000
2000
3FC0
0000
0000
FFFC
0200
0200
3FC0
0040
0040
0040
0040
ENDCHAR
STARTCHAR B208
ENCODING 13355
SWIDTH 1600 0
DWIDTH 16 0
BBX 13 13 2 -1
BITMAP
E000
2000
2000
3FE0
0000
0000
FFF8
0200
0200
6200
2200
2000
3FE0
ENDCHAR
STARTCHAR B20B
ENCODING 13356
SWIDTH 1600 0
DWIDTH 16 0
BBX 13 13 2 -2
BITMAP
6000
2000
2000
3FE0
0000
FFF8
0200
0200
1FC0
1000
1000
1000
0FE0
ENDCHAR
STARTCHAR B20C
ENCODING 13357
SWIDTH 1600 0
DWIDTH 16 0
BBX 14 13 1 -2
BITMAP
3000
1020
1FF0
0000
0000
FFFC
0100
1FE0
0020
1FE0
0800
0800
0FF0
ENDCHAR
STARTCHAR B214
ENCODING 13358
SWIDTH 1600 0
DWIDTH 16 0
BBX 14 14 2 -2
BITMAP
6000
2000
2000
3FC0
0000
0000
FFFC
0200
0200
1FC0
1040
1080
1FC0
1000
ENDCHAR
STARTCHAR B215
ENCODING 13359
SWIDTH 1600 0
DWIDTH 16 0
BBX 14 13 1 -2
BITMAP
3000
1000
1000
1FF0
0000
FFFC
0100
02C0
0840
0FC0
0840
0FC0
0840
ENDCHAR
STARTCHAR B217
ENCODING 13360
SWIDTH 1600 0
DWIDTH 16 0
BBX 14 12 1 -1
BITMAP
3000
1000
1030
1FF0
0000
FFFC
0100
0100
0300
0300
04C0
1830
ENDCHAR
STARTCHAR B219
ENCODING 13361
SWIDTH 1600 0
DWIDTH 16 0
BBX 14 13 1 -2
BITMAP
3000
1000
1000
1FF0
0000
FFFC
0100
0200
0580
0840
0840
0CC0
0780
ENDCHAR
STARTCHAR B220
ENCODING 13362
SWIDTH 1600 0
DWIDTH 16 0
BBX 12 14 1 -2
BITMAP
0030
0010
6010
2010
2110
3F10
0010
9F90
6410
04F0
0410
0410
0410
0010
ENDCHAR
STARTCHAR B234
ENCODING 13363
SWIDTH 1600 0
DWIDTH 16 0
BBX 13 14 1 -2
BITMAP
0030
0010
2010
2110
1F90
0010
DF10
24F0
0410
0430
0420
0A30
1148
2180
ENDCHAR
STARTCHAR B23C
ENCODING 13364
SWIDTH 1600 0
DWIDTH 16 0
BBX 11 14 2 -2
BITMAP
0060
01A0
00A0
40A0
40A0
40A0
4EA0
36A0
F8A0
13A0
10A0
10A0
00A0
0020
ENDCHAR
STARTCHAR B258
ENCODING 13365
SWIDTH 1600 0
DWIDTH 16 0
BBX 12 14 1 -2
BITMAP
0030
0010
6010
2010
2390
1C10
0010
00D0
FF10
0410
0410
0410
0410
0010
ENDCHAR
STARTCHAR B25C
ENCODING 13366
SWIDTH 1600 0
DWIDTH 16 0
BBX 12 14 2 -2
BITMAP
0060
0020
6020
2020
2120
3F20
01E0
FE20
0820
0820
1820
0800
0800
0FF0
ENDCHAR
STARTCHAR B260
ENCODING 13367
SWIDTH 1600 0
DWIDTH 16 0
BBX 12 14 2 -2
BITMAP
0060
4020
2020
2020
3E20
0FE0
F820
0820
1FE0
0040
1FC0
0800
0800
0FF0
ENDCHAR
STARTCHAR B268
ENCODING 13368
SWIDTH 1600 0
DWIDTH 16 0
BBX 12 15 1 -3
BITMAP
0030
3010
1010
1090
1F90
0030
8FD0
7410
0410
0FF0
0420
0420
0420
07E0
0400
ENDCHAR
STARTCHAR B269
ENCODING 13369
SWIDTH 1600 0
DWIDTH 16 0
BBX 12 15 1 -3
BITMAP
0030
3010
1010
1010
1F90
0010
87F0
7C10
0C30
0410
07F0
0410
0410
07F0
0410
ENDCHAR
STARTCHAR B274
ENCODING 13370
SWIDTH 1600 0
DWIDTH 16 0
BBX 14 14 1 -2
BITMAP
7000
1000
1000
1000
1FF0
0000
FFFC
0840
0840
0840
0840
0840
0840
0040
ENDCHAR
STARTCHAR B275
ENCODING 13371
SWIDTH 1600 0
DWIDTH 16 0
BBX 14 13 1 -2
BITMAP
3000
1000
1020
1FF0
0000
FFFC
0440
0440
1FE0
0020
0020
0020
0020
ENDCHAR
STARTCHAR B27C
ENCODING 13372
SWIDTH 1600 0
DWIDTH 16 0
BBX 13 12 2 -1
BITMAP
6000
2000
2000
3FE0
0000
FFF8
1080
3F00
0080
3F80
1000
1FC0
ENDCHAR
STARTCHAR B284
ENCODING 13373
SWIDTH 1600 0
DWIDTH 16 0
BBX 14 13 1 -2
BITMAP
3000
1000
1FE0
0000
0000
FFFC
0840
0840
0FE0
0840
0840
0FC0
0800
ENDCHAR
STARTCHAR B285
ENCODING 13374
SWIDTH 1600 0
DWIDTH 16 0
BBX 13 14 2 -2
BITMAP
6000
2000
2000
3FE0
0000
0000
FFF8
1100
3100
1080
1F80
1080
1F80
0080
ENDCHAR
STARTCHAR B289
ENCODING 13375
SWIDTH 1600 0
DWIDTH 16 0
BBX 14 13 1 -2
BITMAP
3000
1000
1000
1FF0
0000
FFFC
0840
0840
0FC0
0840
0840
0CC0
0780
ENDCHAR
STARTCHAR B290
ENCODING 13376
SWIDTH 1600 0
DWIDTH 16 0
BBX 14 10 1 0
BITMAP
3000
1000
1000
1010
1FF0
0000
0000
0000
0000
FFFC
ENDCHAR
STARTCHAR B291
ENCODING 13377
SWIDTH 1600 0
DWIDTH 16 0
BBX 14 13 1 -2
BITMAP
3000
1000
1000
1FF0
0000
0000
FFFC
0000
3FE0
0020
0020
0020
0020
ENDCHAR
STARTCHAR B294
ENCODING 13378
SWIDTH 1600 0
DWIDTH 16 0
BBX 14 12 1 -1
BITMAP
3000
1000
1030
1FF0
0000
0008
FFFC
0000
1000
1000
1000
1FF0
ENDCHAR
STARTCHAR B298
ENCODING 13379
SWIDTH 1600 0
DWIDTH 16 0
BBX 14 12 1 -1
BITMAP
3000
1000
1000
1FF0
0000
FFFC
0000
3FE0
0040
3FE0
1000
1FF0
ENDCHAR
STARTCHAR B299
ENCODING 13380
SWIDTH 1600 0
DWIDTH 16 0
BBX 14 13 1 -2
BITMAP
3000
1000
1000
1FF0
0000
FFFC
0000
3EF0
0210
3610
1810
1310
1C10
ENDCHAR
STARTCHAR B29A
ENCODING 13381
SWIDTH 1600 0
DWIDTH 16 0
BBX 13 13 2 -2
BITMAP
6000
2000
2000
3FC0
0000
FFF8
0000
0000
39F0
4920
3120
2DE0
1100
ENDCHAR
STARTCHAR B2A0
ENCODING 13382
SWIDTH 1600 0
DWIDTH 16 0
BBX 14 13 1 -2
BITMAP
3000
1000
1000
1FF0
0000
FFFC
0000
0000
1FE0
0820
0820
0FE0
0800
ENDCHAR
STARTCHAR B2A1
ENCODING 13383
SWIDTH 1600 0
DWIDTH 16 0
BBX 14 13 1 -2
BITMAP
3000
1000
1000
1FF0
0000
FFFC
1840
0840
0FC0
0840
0840
0FC0
0840
ENDCHAR
STARTCHAR B2A3
ENCODING 13384
SWIDTH 1600 0
DWIDTH 16 0
BBX 13 14 2 -2
BITMAP
6000
2000
2000
2000
3FC0
0000
0000
FFF8
0400
0200
0600
0980
3060
4000
ENDCHAR
STARTCHAR B2A5
ENCODING 13385
SWIDTH 1600 0
DWIDTH 16 0
BBX 14 13 1 -2
BITMAP
3000
1000
1020
1FF0
0000
FFFC
2100
0780
0CC0
0840
0840
0CC0
0780
ENDCHAR
STARTCHAR B2A6
ENCODING 13386
SWIDTH 1600 0
DWIDTH 16 0
BBX 14 14 1 -2
BITMAP
2000
1000
1000
10F0
0F00
0000
FFFC
0000
0070
1F80
0300
0480
0860
3010
ENDCHAR
STARTCHAR B2AA
ENCODING 13387
SWIDTH 1600 0
DWIDTH 16 0
BBX 14 12 1 -1
BITMAP
3000
1000
1FF0
0000
0000
FFFC
2000
0020
1FC0
0040
0480
3FF8
ENDCHAR
STARTCHAR B2AC
ENCODING 13388
SWIDTH 1600 0
DWIDTH 16 0
BBX 11 14 2 -2
BITMAP
00E0
0020
C020
4020
4120
7F20
0020
0020
01A0
FE20
0020
0020
0020
0020
ENDCHAR
STARTCHAR B2B0
ENCODING 13389
SWIDTH 1600 0
DWIDTH 16 0
BBX 12 13 2 -1
BITMAP
0060
0020
2020
2020
2020
3F20
0020
01E0
FE20
1820
0800
0800
0FF0
ENDCHAR
STARTCHAR B2B4
ENCODING 13390
SWIDTH 1600 0
DWIDTH 16 0
BBX 12 14 2 -2
BITMAP
00C0
0060
C020
4020
4020
7E20
0020
FFE0
1FE0
0020
1FE0
0800
0800
0FF0
ENDCHAR
STARTCHAR B2C8
ENCODING 13391
SWIDTH 1600 0
DWIDTH 16 0
BBX 11 14 2 -2
BITMAP
00E0
0020
0020
C020
4020
4020
4020
4060
4FA0
7020
0020
0020
0020
0020
ENDCHAR
STARTCHAR B2C9
ENCODING 13392
SWIDTH 1600 0
DWIDTH 16 0
BBX 11 15 2 -3
BITMAP
0060
0020
C020
4020
4020
40A0
7F20
0020
0000
3FE0
0020
0020
0020
0020
0020
ENDCHAR
STARTCHAR B2CC
ENCODING 13393
SWIDTH 1600 0
DWIDTH 16 0
BBX 13 13 1 -1
BITMAP
0030
0010
E010
2010
2010
2030
23D0
3C10
0010
0C10
0400
0400
07F8
ENDCHAR
STARTCHAR B2D0
ENCODING 13394
SWIDTH 1600 0
DWIDTH 16 0
BBX 12 13 2 -1
BITMAP
0060
0020
C020
4020
4020
43A0
7C20
0000
0FE0
0020
0FE0
0800
0FF0
ENDCHAR
STARTCHAR B2D2
ENCODING 13395
SWIDTH 1600 0
DWIDTH 16 0
BBX 11 14 2 -2
BITMAP
0060
0020
C020
4020
4020
43E0
7C20
0420
3FE0
0920
3120
2120
3DE0
0100
ENDCHAR
STARTCHAR B2D8
ENCODING 13396
SWIDTH 1600 0
DWIDTH 16 0
BBX 12 14 1 -2
BITMAP
0030
0010
E010
2010
2010
2050
3F90
0010
0000
07F0
0410
0410
07F0
0400
ENDCHAR
STARTCHAR B2D9
ENCODING 13397
SWIDTH 1600 0
DWIDTH 16 0
BBX 12 14 1 -2
BITMAP
0030
0010
E010
2010
2010
2050
3F90
0000
0C10
0410
07F0
0410
07F0
0410
ENDCHAR
STARTCHAR B2DB
ENCODING 13398
SWIDTH 1600 0
DWIDTH 16 0
BBX 12 14 2 -2
BITMAP
0060
0020
C020
4020
4020
41E0
7E20
0020
0220
0100
0300
0680
0860
3010
ENDCHAR
STARTCHAR B2DD
ENCODING 13399
SWIDTH 1600 0
DWIDTH 16 0
BBX 12 14 1 -2
BITMAP
0030
0010
E010
2010
2010
2030
23D0
3C10
0050
01A0
0210
0210
0330
01E0
ENDCHAR
STARTCHAR B2E2
ENCODING 13400
SWIDTH 1600 0
DWIDTH 16 0
BBX 12 13 2 -1
BITMAP
0060
0020
C020
4020
4020
43E0
7C20
0020
0000
3FE0
0040
0480
3FF0
ENDCHAR
STARTCHAR B2E4
ENCODING 13401
SWIDTH 1600 0
DWIDTH 16 0
BBX 13 14 1 -2
BITMAP
0060
0020
0020
FF20
2020
2020
2020
2038
2060
27A0
1820
0020
0020
0020
ENDCHAR
STARTCHAR B2E5
ENCODING 13402
SWIDTH 1600 0
DWIDTH 16 0
BBX 13 15 2 -3
BITMAP
00C0
0040
8E40
7040
4040
4078
4740
7840
0000
3FC0
0040
0040
0040
0040
0040
ENDCHAR
STARTCHAR B2E6
ENCODING 13403
SWIDTH 1600 0
DWIDTH 16 0
BBX 12 14 3 -2
BITMAP
0180
0080
FC80
8080
80B0
80C0
8E80
F080
0000
7380
1080
1080
1080
1080
ENDCHAR
ENDFONT
